<?xml version="1.0" encoding="UTF-8" standalone="no"?>
<svg
   xmlns:dc="http://purl.org/dc/elements/1.1/"
   xmlns:cc="http://creativecommons.org/ns#"
   xmlns:rdf="http://www.w3.org/1999/02/22-rdf-syntax-ns#"
   xmlns:svg="http://www.w3.org/2000/svg"
   xmlns="http://www.w3.org/2000/svg"
   xmlns:sodipodi="http://sodipodi.sourceforge.net/DTD/sodipodi-0.dtd"
   xmlns:inkscape="http://www.inkscape.org/namespaces/inkscape"
   width="300"
   height="700"
   viewBox="0 0 79.374998 185.20834"
   version="1.1"
   id="svg8"
   inkscape:version="1.0.1 (c497b03c, 2020-09-10)"
   sodipodi:docname="ant.svg"
   inkscape:export-filename="/Users/tass/bee.png"
   inkscape:export-xdpi="96"
   inkscape:export-ydpi="96">
  <defs
     id="defs2" />
  <sodipodi:namedview
     id="base"
     pagecolor="#ffffff"
     bordercolor="#666666"
     borderopacity="1.0"
     inkscape:pageopacity="0.0"
     inkscape:pageshadow="2"
     inkscape:zoom="2.3362036"
     inkscape:cx="27.261683"
     inkscape:cy="419.97988"
     inkscape:document-units="px"
     inkscape:current-layer="layer1"
     showgrid="false"
     showguides="false"
     inkscape:guide-bbox="true"
     inkscape:lockguides="false"
     units="px"
     inkscape:window-width="1860"
     inkscape:window-height="1287"
     inkscape:window-x="0"
     inkscape:window-y="22"
     inkscape:window-maximized="0"
     inkscape:document-rotation="0">
    <sodipodi:guide
       position="105.83333,0"
       orientation="1,0"
       id="guide954"
       inkscape:locked="false"
       inkscape:label=""
       inkscape:color="rgb(0,0,255)" />
    <sodipodi:guide
       position="97.895834,0"
       orientation="1,0"
       id="guide4710"
       inkscape:locked="false"
       inkscape:label=""
       inkscape:color="rgb(0,0,255)" />
    <sodipodi:guide
       position="113.77083,0"
       orientation="1,0"
       id="guide4712"
       inkscape:locked="false"
       inkscape:label=""
       inkscape:color="rgb(0,0,255)" />
  </sodipodi:namedview>
  <metadata
     id="metadata5">
    <rdf:RDF>
      <cc:Work
         rdf:about="">
        <dc:format>image/svg+xml</dc:format>
        <dc:type
           rdf:resource="http://purl.org/dc/dcmitype/StillImage" />
        <dc:title></dc:title>
      </cc:Work>
    </rdf:RDF>
  </metadata>
  <g
     inkscape:label="bug"
     inkscape:groupmode="layer"
     id="layer1"
     transform="translate(0,-32.41665)"
     style="display:inline">
    <g
       transform="matrix(0.90699503,0,0,1.2511875,81.393933,2.2411115)"
       style="stroke-width:0.938721"
       id="g4730" />
    <g
       transform="matrix(0.90699503,0,0,1.2511875,81.393933,2.2411115)"
       id="g952">
      <g
         id="g950" />
    </g>
    <g
       transform="matrix(0.90699503,0,0,1.2511875,81.393933,2.2411115)"
       style="display:inline;stroke-width:0.938721"
       id="g875" />
    <g
       transform="matrix(0.90699503,0,0,1.2511875,81.393933,2.2411115)"
       id="g879"
       style="display:inline">
      <g
         id="g877" />
    </g>
    <g
       transform="matrix(-0.90699503,0,0,1.2511875,-78.748099,2.2411115)"
       style="stroke-width:0.938721"
       id="g1620" />
    <g
       transform="matrix(-0.90699503,0,0,1.2511875,-78.748099,2.2411115)"
       id="g1624">
      <g
         id="g1622" />
    </g>
    <g
       transform="matrix(-0.90699503,0,0,1.2511875,-78.748099,2.2411115)"
       style="display:inline;stroke-width:0.938721"
       id="g1626" />
    <g
       transform="matrix(-0.90699503,0,0,1.2511875,-78.748099,2.2411115)"
       id="g1630"
       style="display:inline">
      <g
         id="g1628" />
    </g>
    <g
       transform="matrix(0.90699503,0,0,1.2511875,81.393933,2.2411115)"
       style="stroke-width:0.938721"
       id="g1642" />
    <g
       transform="matrix(0.90699503,0,0,1.2511875,81.393933,2.2411115)"
       id="g1646">
      <g
         id="g1644" />
    </g>
    <g
       transform="matrix(0.90699503,0,0,1.2511875,81.393933,2.2411115)"
       style="display:inline;stroke-width:0.938721"
       id="g1648" />
    <g
       transform="matrix(0.90699503,0,0,1.2511875,81.393933,2.2411115)"
       id="g1652"
       style="display:inline">
      <g
         id="g1650" />
    </g>
    <g
       transform="matrix(-0.90699503,0,0,1.2511875,-78.748099,2.2411115)"
       style="stroke-width:0.938721"
       id="g1664" />
    <g
       transform="matrix(-0.90699503,0,0,1.2511875,-78.748099,2.2411115)"
       id="g1668">
      <g
         id="g1666" />
    </g>
    <g
       transform="matrix(-0.90699503,0,0,1.2511875,-78.748099,2.2411115)"
       style="display:inline;stroke-width:0.938721"
       id="g1670" />
    <g
       transform="matrix(-0.90699503,0,0,1.2511875,-78.748099,2.2411115)"
       id="g1674"
       style="display:inline">
      <g
         id="g1672" />
    </g>
    <g
       transform="matrix(-0.90699503,0,0,1.2511875,-78.748099,2.2411115)"
       style="stroke-width:0.938721"
       id="g1676" />
    <g
       transform="matrix(-0.90699503,0,0,1.2511875,-78.748099,2.2411115)"
       id="g1680">
      <g
         id="g1678" />
    </g>
    <g
       transform="matrix(-0.90699503,0,0,1.2511875,-78.748099,2.2411115)"
       style="display:inline;stroke-width:0.938721"
       id="g1682" />
    <g
       transform="matrix(-0.90699503,0,0,1.2511875,-78.748099,2.2411115)"
       id="g1686"
       style="display:inline">
      <g
         id="g1684" />
    </g>
    <g
       transform="matrix(0.90699503,0,0,1.2511875,81.393933,2.2411115)"
       style="stroke-width:0.938721"
       id="g1698" />
    <g
       transform="matrix(0.90699503,0,0,1.2511875,81.393933,2.2411115)"
       id="g1702">
      <g
         id="g1700" />
    </g>
    <g
       transform="matrix(0.90699503,0,0,1.2511875,81.393933,2.2411115)"
       style="display:inline;stroke-width:0.938721"
       id="g1704" />
    <g
       transform="matrix(0.90699503,0,0,1.2511875,81.393933,2.2411115)"
       id="g1708"
       style="display:inline">
      <g
         id="g1706" />
    </g>
    <g
       transform="matrix(-0.90699503,0,0,1.2511875,-78.748099,2.2411115)"
       style="stroke-width:0.938721"
       id="g1710" />
    <g
       transform="matrix(-0.90699503,0,0,1.2511875,-78.748099,2.2411115)"
       id="g1714">
      <g
         id="g1712" />
    </g>
    <g
       transform="matrix(-0.90699503,0,0,1.2511875,-78.748099,2.2411115)"
       style="display:inline;stroke-width:0.938721"
       id="g1716" />
    <g
       transform="matrix(-0.90699503,0,0,1.2511875,-78.748099,2.2411115)"
       id="g1720"
       style="display:inline">
      <g
         id="g1718" />
    </g>
    <g
       transform="matrix(0.90699503,0,0,1.2511875,81.393933,2.2411115)"
       style="stroke-width:0.938721"
       id="g1732" />
    <g
       transform="matrix(0.90699503,0,0,1.2511875,81.393933,2.2411115)"
       id="g1736">
      <g
         id="g1734" />
    </g>
    <g
       transform="matrix(0.90699503,0,0,1.2511875,81.393933,2.2411115)"
       style="display:inline;stroke-width:0.938721"
       id="g1738" />
    <g
       transform="matrix(0.90699503,0,0,1.2511875,81.393933,2.2411115)"
       id="g1742"
       style="display:inline">
      <g
         id="g1740" />
    </g>
    <g
       transform="matrix(-0.90699503,0,0,1.2511875,-78.748099,2.2411115)"
       style="stroke-width:0.938721"
       id="g1805" />
    <g
       transform="matrix(-0.90699503,0,0,1.2511875,-78.748099,2.2411115)"
       id="g1809">
      <g
         id="g1807" />
    </g>
    <g
       transform="matrix(-0.90699503,0,0,1.2511875,-78.748099,2.2411115)"
       style="display:inline;stroke-width:0.938721"
       id="g1811" />
    <g
       transform="matrix(-0.90699503,0,0,1.2511875,-78.748099,2.2411115)"
       id="g1815"
       style="display:inline">
      <g
         id="g1813" />
    </g>
    <g
       transform="matrix(0.90699503,0,0,1.2511875,81.393935,2.2411115)"
       style="stroke-width:0.938721"
       id="g1827" />
    <g
       transform="matrix(0.90699503,0,0,1.2511875,81.393935,2.2411115)"
       id="g1831">
      <g
         id="g1829" />
    </g>
    <g
       transform="matrix(0.90699503,0,0,1.2511875,81.393935,2.2411115)"
       style="display:inline;stroke-width:0.938721"
       id="g1833" />
    <g
       transform="matrix(0.90699503,0,0,1.2511875,81.393935,2.2411115)"
       id="g1837"
       style="display:inline">
      <g
         id="g1835" />
    </g>
    <g
       transform="matrix(-0.90699503,0,0,1.2511875,-78.748099,2.2411115)"
       style="stroke-width:0.938721"
       id="g1839" />
    <g
       transform="matrix(-0.90699503,0,0,1.2511875,-78.748099,2.2411115)"
       id="g1843">
      <g
         id="g1841" />
    </g>
    <g
       transform="matrix(-0.90699503,0,0,1.2511875,-78.748099,2.2411115)"
       style="display:inline;stroke-width:0.938721"
       id="g1845" />
    <g
       transform="matrix(-0.90699503,0,0,1.2511875,-78.748099,2.2411115)"
       id="g1849"
       style="display:inline">
      <g
         id="g1847" />
    </g>
    <g
       transform="matrix(0.90699503,0,0,1.2511875,81.393935,2.2411115)"
       style="stroke-width:0.938721"
       id="g1851" />
    <g
       transform="matrix(0.90699503,0,0,1.2511875,81.393935,2.2411115)"
       id="g1855">
      <g
         id="g1853" />
    </g>
    <g
       transform="matrix(0.90699503,0,0,1.2511875,81.393935,2.2411115)"
       style="display:inline;stroke-width:0.938721"
       id="g1857" />
    <g
       transform="matrix(0.90699503,0,0,1.2511875,81.393935,2.2411115)"
       id="g1861"
       style="display:inline">
      <g
         id="g1859" />
    </g>
    <g
       transform="matrix(0.90699503,0,0,1.2511875,81.393935,2.2411115)"
       style="stroke-width:0.938721"
       id="g1863" />
    <g
       transform="matrix(0.90699503,0,0,1.2511875,81.393935,2.2411115)"
       id="g1867">
      <g
         id="g1865" />
    </g>
    <g
       transform="matrix(0.90699503,0,0,1.2511875,81.393935,2.2411115)"
       style="display:inline;stroke-width:0.938721"
       id="g1869" />
    <g
       transform="matrix(0.90699503,0,0,1.2511875,81.393935,2.2411115)"
       id="g1873"
       style="display:inline">
      <g
         id="g1871" />
    </g>
    <g
       transform="matrix(-0.90699503,0,0,1.2511875,-78.748099,2.2411115)"
       style="stroke-width:0.938721"
       id="g1875" />
    <g
       transform="matrix(-0.90699503,0,0,1.2511875,-78.748099,2.2411115)"
       id="g1879">
      <g
         id="g1877" />
    </g>
    <g
       transform="matrix(-0.90699503,0,0,1.2511875,-78.748099,2.2411115)"
       style="display:inline;stroke-width:0.938721"
       id="g1881" />
    <g
       transform="matrix(-0.90699503,0,0,1.2511875,-78.748099,2.2411115)"
       id="g1885"
       style="display:inline">
      <g
         id="g1883" />
    </g>
    <g
       transform="matrix(0.90699503,0,0,1.2511875,81.393935,2.2411115)"
       style="stroke-width:0.938721"
       id="g1887" />
    <g
       transform="matrix(0.90699503,0,0,1.2511875,81.393935,2.2411115)"
       id="g1891">
      <g
         id="g1889" />
    </g>
    <g
       transform="matrix(0.90699503,0,0,1.2511875,81.393935,2.2411115)"
       style="display:inline;stroke-width:0.938721"
       id="g1893" />
    <g
       transform="matrix(0.90699503,0,0,1.2511875,81.393935,2.2411115)"
       id="g1897"
       style="display:inline">
      <g
         id="g1895" />
    </g>
    <g
       transform="matrix(-0.90699503,0,0,1.2511875,-78.748099,2.2411115)"
       style="stroke-width:0.938721"
       id="g1899" />
    <g
       transform="matrix(-0.90699503,0,0,1.2511875,-78.748099,2.2411115)"
       id="g1903">
      <g
         id="g1901" />
    </g>
    <g
       transform="matrix(-0.90699503,0,0,1.2511875,-78.748099,2.2411115)"
       style="display:inline;stroke-width:0.938721"
       id="g1905" />
    <g
       transform="matrix(-0.90699503,0,0,1.2511875,-78.748099,2.2411115)"
       id="g1909"
       style="display:inline">
      <g
         id="g1907" />
    </g>
    <g
       transform="matrix(-0.90699503,0,0,1.2511875,-78.748099,2.2411115)"
       style="stroke-width:0.938721"
       id="g3026" />
    <g
       transform="matrix(-0.90699503,0,0,1.2511875,-78.748099,2.2411115)"
       id="g3030">
      <g
         id="g3028" />
    </g>
    <g
       transform="matrix(-0.90699503,0,0,1.2511875,-78.748099,2.2411115)"
       style="display:inline;stroke-width:0.938721"
       id="g3032" />
    <g
       transform="matrix(-0.90699503,0,0,1.2511875,-78.748099,2.2411115)"
       id="g3036"
       style="display:inline">
      <g
         id="g3034" />
    </g>
    <g
       transform="matrix(0.90699503,0,0,1.2511875,81.393932,2.2411115)"
       style="stroke-width:0.938721"
       id="g3038" />
    <g
       transform="matrix(0.90699503,0,0,1.2511875,81.393932,2.2411115)"
       id="g3042">
      <g
         id="g3040" />
    </g>
    <g
       transform="matrix(0.90699503,0,0,1.2511875,81.393932,2.2411115)"
       style="display:inline;stroke-width:0.938721"
       id="g3044" />
    <g
       transform="matrix(0.90699503,0,0,1.2511875,81.393932,2.2411115)"
       id="g3048"
       style="display:inline">
      <g
         id="g3046" />
    </g>
    <g
       transform="matrix(-0.90699503,0,0,1.2511875,-78.748099,2.2411115)"
       style="stroke-width:0.938721"
       id="g3050" />
    <g
       transform="matrix(-0.90699503,0,0,1.2511875,-78.748099,2.2411115)"
       id="g3054">
      <g
         id="g3052" />
    </g>
    <g
       transform="matrix(-0.90699503,0,0,1.2511875,-78.748099,2.2411115)"
       style="display:inline;stroke-width:0.938721"
       id="g3056" />
    <g
       transform="matrix(-0.90699503,0,0,1.2511875,-78.748099,2.2411115)"
       id="g3060"
       style="display:inline">
      <g
         id="g3058" />
    </g>
    <g
       transform="matrix(0.90699503,0,0,1.2511875,81.393932,2.2411115)"
       style="stroke-width:0.938721"
       id="g3062" />
    <g
       transform="matrix(0.90699503,0,0,1.2511875,81.393932,2.2411115)"
       id="g3066">
      <g
         id="g3064" />
    </g>
    <g
       transform="matrix(0.90699503,0,0,1.2511875,81.393932,2.2411115)"
       style="display:inline;stroke-width:0.938721"
       id="g3068" />
    <g
       transform="matrix(0.90699503,0,0,1.2511875,81.393932,2.2411115)"
       id="g3072"
       style="display:inline">
      <g
         id="g3070" />
    </g>
    <g
       transform="matrix(0.90699503,0,0,1.2511875,81.393932,2.2411115)"
       style="stroke-width:0.938721"
       id="g3074" />
    <g
       transform="matrix(0.90699503,0,0,1.2511875,81.393932,2.2411115)"
       id="g3078">
      <g
         id="g3076" />
    </g>
    <g
       transform="matrix(0.90699503,0,0,1.2511875,81.393932,2.2411115)"
       style="display:inline;stroke-width:0.938721"
       id="g3080" />
    <g
       transform="matrix(0.90699503,0,0,1.2511875,81.393932,2.2411115)"
       id="g3084"
       style="display:inline">
      <g
         id="g3082" />
    </g>
    <g
       transform="matrix(-0.90699503,0,0,1.2511875,-78.748099,2.2411115)"
       style="stroke-width:0.938721"
       id="g3086" />
    <g
       transform="matrix(-0.90699503,0,0,1.2511875,-78.748099,2.2411115)"
       id="g3090">
      <g
         id="g3088" />
    </g>
    <g
       transform="matrix(-0.90699503,0,0,1.2511875,-78.748099,2.2411115)"
       style="display:inline;stroke-width:0.938721"
       id="g3092" />
    <g
       transform="matrix(-0.90699503,0,0,1.2511875,-78.748099,2.2411115)"
       id="g3096"
       style="display:inline">
      <g
         id="g3094" />
    </g>
    <g
       transform="matrix(0.90699503,0,0,1.2511875,81.393932,2.2411115)"
       style="stroke-width:0.938721"
       id="g3098" />
    <g
       transform="matrix(0.90699503,0,0,1.2511875,81.393932,2.2411115)"
       id="g3102">
      <g
         id="g3100" />
    </g>
    <g
       transform="matrix(0.90699503,0,0,1.2511875,81.393932,2.2411115)"
       style="display:inline;stroke-width:0.938721"
       id="g3104" />
    <g
       transform="matrix(0.90699503,0,0,1.2511875,81.393932,2.2411115)"
       id="g3108"
       style="display:inline">
      <g
         id="g3106" />
    </g>
    <g
       transform="matrix(-0.90699503,0,0,1.2511875,-78.748099,2.2411115)"
       style="stroke-width:0.938721"
       id="g3110" />
    <g
       transform="matrix(-0.90699503,0,0,1.2511875,-78.748099,2.2411115)"
       id="g3114">
      <g
         id="g3112" />
    </g>
    <g
       transform="matrix(-0.90699503,0,0,1.2511875,-78.748099,2.2411115)"
       style="display:inline;stroke-width:0.938721"
       id="g3116" />
    <g
       transform="matrix(-0.90699503,0,0,1.2511875,-78.748099,2.2411115)"
       id="g3120"
       style="display:inline">
      <g
         id="g3118" />
    </g>
    <g
       transform="matrix(0.90699503,0,0,1.2511875,81.393932,2.2411115)"
       style="stroke-width:0.938721"
       id="g3122" />
    <g
       transform="matrix(0.90699503,0,0,1.2511875,81.393932,2.2411115)"
       id="g3126">
      <g
         id="g3124" />
    </g>
    <g
       transform="matrix(0.90699503,0,0,1.2511875,81.393932,2.2411115)"
       style="display:inline;stroke-width:0.938721"
       id="g3128" />
    <g
       transform="matrix(0.90699503,0,0,1.2511875,81.393932,2.2411115)"
       id="g3132"
       style="display:inline">
      <g
         id="g3130" />
    </g>
    <g
       transform="matrix(-0.90699503,0,0,1.2511875,-78.748101,2.2411115)"
       style="stroke-width:0.938721"
       id="g3134" />
    <g
       transform="matrix(-0.90699503,0,0,1.2511875,-78.748101,2.2411115)"
       id="g3138">
      <g
         id="g3136" />
    </g>
    <g
       transform="matrix(-0.90699503,0,0,1.2511875,-78.748101,2.2411115)"
       style="display:inline;stroke-width:0.938721"
       id="g3140" />
    <g
       transform="matrix(-0.90699503,0,0,1.2511875,-78.748101,2.2411115)"
       id="g3144"
       style="display:inline">
      <g
         id="g3142" />
    </g>
    <g
       transform="matrix(0.90699503,0,0,1.2511875,81.393932,2.2411115)"
       style="stroke-width:0.938721"
       id="g3146" />
    <g
       transform="matrix(0.90699503,0,0,1.2511875,81.393932,2.2411115)"
       id="g3150">
      <g
         id="g3148" />
    </g>
    <g
       transform="matrix(0.90699503,0,0,1.2511875,81.393932,2.2411115)"
       style="display:inline;stroke-width:0.938721"
       id="g3152" />
    <g
       transform="matrix(0.90699503,0,0,1.2511875,81.393932,2.2411115)"
       id="g3156"
       style="display:inline">
      <g
         id="g3154" />
    </g>
    <g
       transform="matrix(-0.90699503,0,0,1.2511875,-78.748101,2.2411115)"
       style="stroke-width:0.938721"
       id="g3158" />
    <g
       transform="matrix(-0.90699503,0,0,1.2511875,-78.748101,2.2411115)"
       id="g3162">
      <g
         id="g3160" />
    </g>
    <g
       transform="matrix(-0.90699503,0,0,1.2511875,-78.748101,2.2411115)"
       style="display:inline;stroke-width:0.938721"
       id="g3164" />
    <g
       transform="matrix(-0.90699503,0,0,1.2511875,-78.748101,2.2411115)"
       id="g3168"
       style="display:inline">
      <g
         id="g3166" />
    </g>
    <g
       transform="matrix(-0.90699503,0,0,1.2511875,-78.748101,2.2411115)"
       style="stroke-width:0.938721"
       id="g3170" />
    <g
       transform="matrix(-0.90699503,0,0,1.2511875,-78.748101,2.2411115)"
       id="g3174">
      <g
         id="g3172" />
    </g>
    <g
       transform="matrix(-0.90699503,0,0,1.2511875,-78.748101,2.2411115)"
       style="display:inline;stroke-width:0.938721"
       id="g3176" />
    <g
       transform="matrix(-0.90699503,0,0,1.2511875,-78.748101,2.2411115)"
       id="g3180"
       style="display:inline">
      <g
         id="g3178" />
    </g>
    <g
       transform="matrix(0.90699503,0,0,1.2511875,81.393932,2.2411115)"
       style="stroke-width:0.938721"
       id="g3182" />
    <g
       transform="matrix(0.90699503,0,0,1.2511875,81.393932,2.2411115)"
       id="g3186">
      <g
         id="g3184" />
    </g>
    <g
       transform="matrix(0.90699503,0,0,1.2511875,81.393932,2.2411115)"
       style="display:inline;stroke-width:0.938721"
       id="g3188" />
    <g
       transform="matrix(0.90699503,0,0,1.2511875,81.393932,2.2411115)"
       id="g3192"
       style="display:inline">
      <g
         id="g3190" />
    </g>
    <g
       transform="matrix(-0.90699503,0,0,1.2511875,-78.748101,2.2411115)"
       style="stroke-width:0.938721"
       id="g3194" />
    <g
       transform="matrix(-0.90699503,0,0,1.2511875,-78.748101,2.2411115)"
       id="g3198">
      <g
         id="g3196" />
    </g>
    <g
       transform="matrix(-0.90699503,0,0,1.2511875,-78.748101,2.2411115)"
       style="display:inline;stroke-width:0.938721"
       id="g3200" />
    <g
       transform="matrix(-0.90699503,0,0,1.2511875,-78.748101,2.2411115)"
       id="g3204"
       style="display:inline">
      <g
         id="g3202" />
    </g>
    <g
       transform="matrix(0.90699503,0,0,1.2511875,81.393932,2.2411115)"
       style="stroke-width:0.938721"
       id="g3206" />
    <g
       transform="matrix(0.90699503,0,0,1.2511875,81.393932,2.2411115)"
       id="g3210">
      <g
         id="g3208" />
    </g>
    <g
       transform="matrix(0.90699503,0,0,1.2511875,81.393932,2.2411115)"
       style="display:inline;stroke-width:0.938721"
       id="g3212" />
    <g
       transform="matrix(0.90699503,0,0,1.2511875,81.393932,2.2411115)"
       id="g3216"
       style="display:inline">
      <g
         id="g3214" />
    </g>
    <path
       style="fill:none;stroke:#000000;stroke-width:10.5833;stroke-linecap:round;stroke-linejoin:round;stroke-miterlimit:4;stroke-dasharray:none;stroke-opacity:1"
       d="m 6.6145665,137.78167 27.3305895,11.89677 c 5.266126,18.88271 7.696583,39.34152 14.103238,45.29823"
       id="path5144"
       sodipodi:nodetypes="ccc" />
    <path
       style="fill:none;stroke:#000000;stroke-width:10.5833;stroke-linecap:round;stroke-linejoin:round;stroke-miterlimit:4;stroke-dasharray:none;stroke-opacity:1"
       d="m 6.6145665,118.17216 29.2598085,4.82305 c 8.44782,6.43274 23.308795,15.78373 31.387726,18.15869"
       id="path5146"
       sodipodi:nodetypes="ccc" />
    <path
       style="fill:none;stroke:#000000;stroke-width:10.5833;stroke-linecap:round;stroke-linejoin:round;stroke-miterlimit:4;stroke-dasharray:none;stroke-opacity:1"
       d="M 7.7536436,102.19004 37.702563,90.079953 C 46.81446,82.163247 52.670114,75.574441 57.119259,66.770712"
       id="path5148"
       sodipodi:nodetypes="ccc" />
    <path
       style="fill:none;stroke:#000000;stroke-width:5.29167;stroke-linecap:round;stroke-linejoin:miter;stroke-miterlimit:4;stroke-dasharray:none;stroke-opacity:1"
       d="M 7.0483139,76.525099 C 25.886414,65.011875 11.919839,61.916598 22.6569,47.669589"
       id="path5150"
       sodipodi:nodetypes="cc" />
    <path
       style="fill:#0b0000;fill-opacity:1;stroke:none;stroke-width:0.264583px;stroke-linecap:butt;stroke-linejoin:miter;stroke-opacity:1"
       d="m -3.9523809e-8,71.672664 v 0 C 1.9624276,71.013338 3.9516717,70.193312 5.072716,69.197432 c 0.5496607,2.206307 8.271345,9.220995 7.503973,11.771206 -0.229239,4.310225 -3.2146924,7.931397 -4.8230455,11.896844 4.8533025,11.467268 1.5114651,40.710938 0.3215367,51.224008 6.8504248,3.911 13.5152288,15.26197 13.3516528,16.36463 -0.679408,6.84122 -3.966742,19.4038 -7.493937,23.49861 C 10.405699,188.04753 4.0674623,194.44131 6.0476191e-8,194.81275"
       id="path9116"
       sodipodi:nodetypes="ccccccccc" />
    <g
       transform="matrix(-0.90699503,0,0,1.2511875,-81.393933,2.2411115)"
       style="stroke-width:0.938721"
       id="g9126" />
    <g
       transform="matrix(-0.90699503,0,0,1.2511875,-81.393933,2.2411115)"
       id="g9130">
      <g
         id="g9128" />
    </g>
    <g
       transform="matrix(-0.90699503,0,0,1.2511875,-81.393933,2.2411115)"
       style="display:inline;stroke-width:0.938721"
       id="g9132" />
    <g
       transform="matrix(-0.90699503,0,0,1.2511875,-81.393933,2.2411115)"
       id="g9136"
       style="display:inline">
      <g
         id="g9134" />
    </g>
    <g
       transform="matrix(0.90699503,0,0,1.2511875,78.748099,2.2411115)"
       style="stroke-width:0.938721"
       id="g9138" />
    <g
       transform="matrix(0.90699503,0,0,1.2511875,78.748099,2.2411115)"
       id="g9142">
      <g
         id="g9140" />
    </g>
    <g
       transform="matrix(0.90699503,0,0,1.2511875,78.748099,2.2411115)"
       style="display:inline;stroke-width:0.938721"
       id="g9144" />
    <g
       transform="matrix(0.90699503,0,0,1.2511875,78.748099,2.2411115)"
       id="g9148"
       style="display:inline">
      <g
         id="g9146" />
    </g>
    <g
       transform="matrix(-0.90699503,0,0,1.2511875,-81.393933,2.2411115)"
       style="stroke-width:0.938721"
       id="g9150" />
    <g
       transform="matrix(-0.90699503,0,0,1.2511875,-81.393933,2.2411115)"
       id="g9154">
      <g
         id="g9152" />
    </g>
    <g
       transform="matrix(-0.90699503,0,0,1.2511875,-81.393933,2.2411115)"
       style="display:inline;stroke-width:0.938721"
       id="g9156" />
    <g
       transform="matrix(-0.90699503,0,0,1.2511875,-81.393933,2.2411115)"
       id="g9160"
       style="display:inline">
      <g
         id="g9158" />
    </g>
    <g
       transform="matrix(0.90699503,0,0,1.2511875,78.748099,2.2411115)"
       style="stroke-width:0.938721"
       id="g9162" />
    <g
       transform="matrix(0.90699503,0,0,1.2511875,78.748099,2.2411115)"
       id="g9166">
      <g
         id="g9164" />
    </g>
    <g
       transform="matrix(0.90699503,0,0,1.2511875,78.748099,2.2411115)"
       style="display:inline;stroke-width:0.938721"
       id="g9168" />
    <g
       transform="matrix(0.90699503,0,0,1.2511875,78.748099,2.2411115)"
       id="g9172"
       style="display:inline">
      <g
         id="g9170" />
    </g>
    <g
       transform="matrix(0.90699503,0,0,1.2511875,78.748099,2.2411115)"
       style="stroke-width:0.938721"
       id="g9174" />
    <g
       transform="matrix(0.90699503,0,0,1.2511875,78.748099,2.2411115)"
       id="g9178">
      <g
         id="g9176" />
    </g>
    <g
       transform="matrix(0.90699503,0,0,1.2511875,78.748099,2.2411115)"
       style="display:inline;stroke-width:0.938721"
       id="g9180" />
    <g
       transform="matrix(0.90699503,0,0,1.2511875,78.748099,2.2411115)"
       id="g9184"
       style="display:inline">
      <g
         id="g9182" />
    </g>
    <g
       transform="matrix(-0.90699503,0,0,1.2511875,-81.393933,2.2411115)"
       style="stroke-width:0.938721"
       id="g9186" />
    <g
       transform="matrix(-0.90699503,0,0,1.2511875,-81.393933,2.2411115)"
       id="g9190">
      <g
         id="g9188" />
    </g>
    <g
       transform="matrix(-0.90699503,0,0,1.2511875,-81.393933,2.2411115)"
       style="display:inline;stroke-width:0.938721"
       id="g9192" />
    <g
       transform="matrix(-0.90699503,0,0,1.2511875,-81.393933,2.2411115)"
       id="g9196"
       style="display:inline">
      <g
         id="g9194" />
    </g>
    <g
       transform="matrix(0.90699503,0,0,1.2511875,78.748099,2.2411115)"
       style="stroke-width:0.938721"
       id="g9198" />
    <g
       transform="matrix(0.90699503,0,0,1.2511875,78.748099,2.2411115)"
       id="g9202">
      <g
         id="g9200" />
    </g>
    <g
       transform="matrix(0.90699503,0,0,1.2511875,78.748099,2.2411115)"
       style="display:inline;stroke-width:0.938721"
       id="g9204" />
    <g
       transform="matrix(0.90699503,0,0,1.2511875,78.748099,2.2411115)"
       id="g9208"
       style="display:inline">
      <g
         id="g9206" />
    </g>
    <g
       transform="matrix(-0.90699503,0,0,1.2511875,-81.393933,2.2411115)"
       style="stroke-width:0.938721"
       id="g9210" />
    <g
       transform="matrix(-0.90699503,0,0,1.2511875,-81.393933,2.2411115)"
       id="g9214">
      <g
         id="g9212" />
    </g>
    <g
       transform="matrix(-0.90699503,0,0,1.2511875,-81.393933,2.2411115)"
       style="display:inline;stroke-width:0.938721"
       id="g9216" />
    <g
       transform="matrix(-0.90699503,0,0,1.2511875,-81.393933,2.2411115)"
       id="g9220"
       style="display:inline">
      <g
         id="g9218" />
    </g>
    <g
       transform="matrix(0.90699503,0,0,1.2511875,78.748099,2.2411115)"
       style="stroke-width:0.938721"
       id="g9222" />
    <g
       transform="matrix(0.90699503,0,0,1.2511875,78.748099,2.2411115)"
       id="g9226">
      <g
         id="g9224" />
    </g>
    <g
       transform="matrix(0.90699503,0,0,1.2511875,78.748099,2.2411115)"
       style="display:inline;stroke-width:0.938721"
       id="g9228" />
    <g
       transform="matrix(0.90699503,0,0,1.2511875,78.748099,2.2411115)"
       id="g9232"
       style="display:inline">
      <g
         id="g9230" />
    </g>
    <g
       transform="matrix(-0.90699503,0,0,1.2511875,-81.393935,2.2411115)"
       style="stroke-width:0.938721"
       id="g9234" />
    <g
       transform="matrix(-0.90699503,0,0,1.2511875,-81.393935,2.2411115)"
       id="g9238">
      <g
         id="g9236" />
    </g>
    <g
       transform="matrix(-0.90699503,0,0,1.2511875,-81.393935,2.2411115)"
       style="display:inline;stroke-width:0.938721"
       id="g9240" />
    <g
       transform="matrix(-0.90699503,0,0,1.2511875,-81.393935,2.2411115)"
       id="g9244"
       style="display:inline">
      <g
         id="g9242" />
    </g>
    <g
       transform="matrix(0.90699503,0,0,1.2511875,78.748099,2.2411115)"
       style="stroke-width:0.938721"
       id="g9246" />
    <g
       transform="matrix(0.90699503,0,0,1.2511875,78.748099,2.2411115)"
       id="g9250">
      <g
         id="g9248" />
    </g>
    <g
       transform="matrix(0.90699503,0,0,1.2511875,78.748099,2.2411115)"
       style="display:inline;stroke-width:0.938721"
       id="g9252" />
    <g
       transform="matrix(0.90699503,0,0,1.2511875,78.748099,2.2411115)"
       id="g9256"
       style="display:inline">
      <g
         id="g9254" />
    </g>
    <g
       transform="matrix(-0.90699503,0,0,1.2511875,-81.393935,2.2411115)"
       style="stroke-width:0.938721"
       id="g9258" />
    <g
       transform="matrix(-0.90699503,0,0,1.2511875,-81.393935,2.2411115)"
       id="g9262">
      <g
         id="g9260" />
    </g>
    <g
       transform="matrix(-0.90699503,0,0,1.2511875,-81.393935,2.2411115)"
       style="display:inline;stroke-width:0.938721"
       id="g9264" />
    <g
       transform="matrix(-0.90699503,0,0,1.2511875,-81.393935,2.2411115)"
       id="g9268"
       style="display:inline">
      <g
         id="g9266" />
    </g>
    <g
       transform="matrix(-0.90699503,0,0,1.2511875,-81.393935,2.2411115)"
       style="stroke-width:0.938721"
       id="g9270" />
    <g
       transform="matrix(-0.90699503,0,0,1.2511875,-81.393935,2.2411115)"
       id="g9274">
      <g
         id="g9272" />
    </g>
    <g
       transform="matrix(-0.90699503,0,0,1.2511875,-81.393935,2.2411115)"
       style="display:inline;stroke-width:0.938721"
       id="g9276" />
    <g
       transform="matrix(-0.90699503,0,0,1.2511875,-81.393935,2.2411115)"
       id="g9280"
       style="display:inline">
      <g
         id="g9278" />
    </g>
    <g
       transform="matrix(0.90699503,0,0,1.2511875,78.748099,2.2411115)"
       style="stroke-width:0.938721"
       id="g9282" />
    <g
       transform="matrix(0.90699503,0,0,1.2511875,78.748099,2.2411115)"
       id="g9286">
      <g
         id="g9284" />
    </g>
    <g
       transform="matrix(0.90699503,0,0,1.2511875,78.748099,2.2411115)"
       style="display:inline;stroke-width:0.938721"
       id="g9288" />
    <g
       transform="matrix(0.90699503,0,0,1.2511875,78.748099,2.2411115)"
       id="g9292"
       style="display:inline">
      <g
         id="g9290" />
    </g>
    <g
       transform="matrix(-0.90699503,0,0,1.2511875,-81.393935,2.2411115)"
       style="stroke-width:0.938721"
       id="g9294" />
    <g
       transform="matrix(-0.90699503,0,0,1.2511875,-81.393935,2.2411115)"
       id="g9298">
      <g
         id="g9296" />
    </g>
    <g
       transform="matrix(-0.90699503,0,0,1.2511875,-81.393935,2.2411115)"
       style="display:inline;stroke-width:0.938721"
       id="g9300" />
    <g
       transform="matrix(-0.90699503,0,0,1.2511875,-81.393935,2.2411115)"
       id="g9304"
       style="display:inline">
      <g
         id="g9302" />
    </g>
    <g
       transform="matrix(0.90699503,0,0,1.2511875,78.748099,2.2411115)"
       style="stroke-width:0.938721"
       id="g9306" />
    <g
       transform="matrix(0.90699503,0,0,1.2511875,78.748099,2.2411115)"
       id="g9310">
      <g
         id="g9308" />
    </g>
    <g
       transform="matrix(0.90699503,0,0,1.2511875,78.748099,2.2411115)"
       style="display:inline;stroke-width:0.938721"
       id="g9312" />
    <g
       transform="matrix(0.90699503,0,0,1.2511875,78.748099,2.2411115)"
       id="g9316"
       style="display:inline">
      <g
         id="g9314" />
    </g>
    <g
       transform="matrix(0.90699503,0,0,1.2511875,78.748099,2.2411115)"
       style="stroke-width:0.938721"
       id="g9318" />
    <g
       transform="matrix(0.90699503,0,0,1.2511875,78.748099,2.2411115)"
       id="g9322">
      <g
         id="g9320" />
    </g>
    <g
       transform="matrix(0.90699503,0,0,1.2511875,78.748099,2.2411115)"
       style="display:inline;stroke-width:0.938721"
       id="g9324" />
    <g
       transform="matrix(0.90699503,0,0,1.2511875,78.748099,2.2411115)"
       id="g9328"
       style="display:inline">
      <g
         id="g9326" />
    </g>
    <g
       transform="matrix(-0.90699503,0,0,1.2511875,-81.393932,2.2411115)"
       style="stroke-width:0.938721"
       id="g9330" />
    <g
       transform="matrix(-0.90699503,0,0,1.2511875,-81.393932,2.2411115)"
       id="g9334">
      <g
         id="g9332" />
    </g>
    <g
       transform="matrix(-0.90699503,0,0,1.2511875,-81.393932,2.2411115)"
       style="display:inline;stroke-width:0.938721"
       id="g9336" />
    <g
       transform="matrix(-0.90699503,0,0,1.2511875,-81.393932,2.2411115)"
       id="g9340"
       style="display:inline">
      <g
         id="g9338" />
    </g>
    <g
       transform="matrix(0.90699503,0,0,1.2511875,78.748099,2.2411115)"
       style="stroke-width:0.938721"
       id="g9342" />
    <g
       transform="matrix(0.90699503,0,0,1.2511875,78.748099,2.2411115)"
       id="g9346">
      <g
         id="g9344" />
    </g>
    <g
       transform="matrix(0.90699503,0,0,1.2511875,78.748099,2.2411115)"
       style="display:inline;stroke-width:0.938721"
       id="g9348" />
    <g
       transform="matrix(0.90699503,0,0,1.2511875,78.748099,2.2411115)"
       id="g9352"
       style="display:inline">
      <g
         id="g9350" />
    </g>
    <g
       transform="matrix(-0.90699503,0,0,1.2511875,-81.393932,2.2411115)"
       style="stroke-width:0.938721"
       id="g9354" />
    <g
       transform="matrix(-0.90699503,0,0,1.2511875,-81.393932,2.2411115)"
       id="g9358">
      <g
         id="g9356" />
    </g>
    <g
       transform="matrix(-0.90699503,0,0,1.2511875,-81.393932,2.2411115)"
       style="display:inline;stroke-width:0.938721"
       id="g9360" />
    <g
       transform="matrix(-0.90699503,0,0,1.2511875,-81.393932,2.2411115)"
       id="g9364"
       style="display:inline">
      <g
         id="g9362" />
    </g>
    <g
       transform="matrix(-0.90699503,0,0,1.2511875,-81.393932,2.2411115)"
       style="stroke-width:0.938721"
       id="g9366" />
    <g
       transform="matrix(-0.90699503,0,0,1.2511875,-81.393932,2.2411115)"
       id="g9370">
      <g
         id="g9368" />
    </g>
    <g
       transform="matrix(-0.90699503,0,0,1.2511875,-81.393932,2.2411115)"
       style="display:inline;stroke-width:0.938721"
       id="g9372" />
    <g
       transform="matrix(-0.90699503,0,0,1.2511875,-81.393932,2.2411115)"
       id="g9376"
       style="display:inline">
      <g
         id="g9374" />
    </g>
    <g
       transform="matrix(0.90699503,0,0,1.2511875,78.748099,2.2411115)"
       style="stroke-width:0.938721"
       id="g9378" />
    <g
       transform="matrix(0.90699503,0,0,1.2511875,78.748099,2.2411115)"
       id="g9382">
      <g
         id="g9380" />
    </g>
    <g
       transform="matrix(0.90699503,0,0,1.2511875,78.748099,2.2411115)"
       style="display:inline;stroke-width:0.938721"
       id="g9384" />
    <g
       transform="matrix(0.90699503,0,0,1.2511875,78.748099,2.2411115)"
       id="g9388"
       style="display:inline">
      <g
         id="g9386" />
    </g>
    <g
       transform="matrix(-0.90699503,0,0,1.2511875,-81.393932,2.2411115)"
       style="stroke-width:0.938721"
       id="g9390" />
    <g
       transform="matrix(-0.90699503,0,0,1.2511875,-81.393932,2.2411115)"
       id="g9394">
      <g
         id="g9392" />
    </g>
    <g
       transform="matrix(-0.90699503,0,0,1.2511875,-81.393932,2.2411115)"
       style="display:inline;stroke-width:0.938721"
       id="g9396" />
    <g
       transform="matrix(-0.90699503,0,0,1.2511875,-81.393932,2.2411115)"
       id="g9400"
       style="display:inline">
      <g
         id="g9398" />
    </g>
    <g
       transform="matrix(0.90699503,0,0,1.2511875,78.748099,2.2411115)"
       style="stroke-width:0.938721"
       id="g9402" />
    <g
       transform="matrix(0.90699503,0,0,1.2511875,78.748099,2.2411115)"
       id="g9406">
      <g
         id="g9404" />
    </g>
    <g
       transform="matrix(0.90699503,0,0,1.2511875,78.748099,2.2411115)"
       style="display:inline;stroke-width:0.938721"
       id="g9408" />
    <g
       transform="matrix(0.90699503,0,0,1.2511875,78.748099,2.2411115)"
       id="g9412"
       style="display:inline">
      <g
         id="g9410" />
    </g>
    <g
       transform="matrix(-0.90699503,0,0,1.2511875,-81.393932,2.2411115)"
       style="stroke-width:0.938721"
       id="g9414" />
    <g
       transform="matrix(-0.90699503,0,0,1.2511875,-81.393932,2.2411115)"
       id="g9418">
      <g
         id="g9416" />
    </g>
    <g
       transform="matrix(-0.90699503,0,0,1.2511875,-81.393932,2.2411115)"
       style="display:inline;stroke-width:0.938721"
       id="g9420" />
    <g
       transform="matrix(-0.90699503,0,0,1.2511875,-81.393932,2.2411115)"
       id="g9424"
       style="display:inline">
      <g
         id="g9422" />
    </g>
    <g
       transform="matrix(0.90699503,0,0,1.2511875,78.748099,2.2411115)"
       style="stroke-width:0.938721"
       id="g9426" />
    <g
       transform="matrix(0.90699503,0,0,1.2511875,78.748099,2.2411115)"
       id="g9430">
      <g
         id="g9428" />
    </g>
    <g
       transform="matrix(0.90699503,0,0,1.2511875,78.748099,2.2411115)"
       style="display:inline;stroke-width:0.938721"
       id="g9432" />
    <g
       transform="matrix(0.90699503,0,0,1.2511875,78.748099,2.2411115)"
       id="g9436"
       style="display:inline">
      <g
         id="g9434" />
    </g>
    <g
       transform="matrix(-0.90699503,0,0,1.2511875,-81.393932,2.2411115)"
       style="stroke-width:0.938721"
       id="g9438" />
    <g
       transform="matrix(-0.90699503,0,0,1.2511875,-81.393932,2.2411115)"
       id="g9442">
      <g
         id="g9440" />
    </g>
    <g
       transform="matrix(-0.90699503,0,0,1.2511875,-81.393932,2.2411115)"
       style="display:inline;stroke-width:0.938721"
       id="g9444" />
    <g
       transform="matrix(-0.90699503,0,0,1.2511875,-81.393932,2.2411115)"
       id="g9448"
       style="display:inline">
      <g
         id="g9446" />
    </g>
    <g
       transform="matrix(0.90699503,0,0,1.2511875,78.748099,2.2411115)"
       style="stroke-width:0.938721"
       id="g9450" />
    <g
       transform="matrix(0.90699503,0,0,1.2511875,78.748099,2.2411115)"
       id="g9454">
      <g
         id="g9452" />
    </g>
    <g
       transform="matrix(0.90699503,0,0,1.2511875,78.748099,2.2411115)"
       style="display:inline;stroke-width:0.938721"
       id="g9456" />
    <g
       transform="matrix(0.90699503,0,0,1.2511875,78.748099,2.2411115)"
       id="g9460"
       style="display:inline">
      <g
         id="g9458" />
    </g>
    <g
       transform="matrix(0.90699503,0,0,1.2511875,78.748099,2.2411115)"
       style="stroke-width:0.938721"
       id="g9462" />
    <g
       transform="matrix(0.90699503,0,0,1.2511875,78.748099,2.2411115)"
       id="g9466">
      <g
         id="g9464" />
    </g>
    <g
       transform="matrix(0.90699503,0,0,1.2511875,78.748099,2.2411115)"
       style="display:inline;stroke-width:0.938721"
       id="g9468" />
    <g
       transform="matrix(0.90699503,0,0,1.2511875,78.748099,2.2411115)"
       id="g9472"
       style="display:inline">
      <g
         id="g9470" />
    </g>
    <g
       transform="matrix(-0.90699503,0,0,1.2511875,-81.393932,2.2411115)"
       style="stroke-width:0.938721"
       id="g9474" />
    <g
       transform="matrix(-0.90699503,0,0,1.2511875,-81.393932,2.2411115)"
       id="g9478">
      <g
         id="g9476" />
    </g>
    <g
       transform="matrix(-0.90699503,0,0,1.2511875,-81.393932,2.2411115)"
       style="display:inline;stroke-width:0.938721"
       id="g9480" />
    <g
       transform="matrix(-0.90699503,0,0,1.2511875,-81.393932,2.2411115)"
       id="g9484"
       style="display:inline">
      <g
         id="g9482" />
    </g>
    <g
       transform="matrix(0.90699503,0,0,1.2511875,78.748099,2.2411115)"
       style="stroke-width:0.938721"
       id="g9486" />
    <g
       transform="matrix(0.90699503,0,0,1.2511875,78.748099,2.2411115)"
       id="g9490">
      <g
         id="g9488" />
    </g>
    <g
       transform="matrix(0.90699503,0,0,1.2511875,78.748099,2.2411115)"
       style="display:inline;stroke-width:0.938721"
       id="g9492" />
    <g
       transform="matrix(0.90699503,0,0,1.2511875,78.748099,2.2411115)"
       id="g9496"
       style="display:inline">
      <g
         id="g9494" />
    </g>
    <g
       transform="matrix(-0.90699503,0,0,1.2511875,-81.393932,2.2411115)"
       style="stroke-width:0.938721"
       id="g9498" />
    <g
       transform="matrix(-0.90699503,0,0,1.2511875,-81.393932,2.2411115)"
       id="g9502">
      <g
         id="g9500" />
    </g>
    <g
       transform="matrix(-0.90699503,0,0,1.2511875,-81.393932,2.2411115)"
       style="display:inline;stroke-width:0.938721"
       id="g9504" />
    <g
       transform="matrix(-0.90699503,0,0,1.2511875,-81.393932,2.2411115)"
       id="g9508"
       style="display:inline">
      <g
         id="g9506" />
    </g>
    <path
       style="fill:none;stroke:#000000;stroke-width:10.5833;stroke-linecap:round;stroke-linejoin:round;stroke-miterlimit:4;stroke-dasharray:none;stroke-opacity:1"
       d="m -6.614567,137.7816 -27.330589,11.89684 c -5.266126,18.88271 -7.696583,39.34152 -14.103238,45.29823"
       id="path9512"
       sodipodi:nodetypes="ccc" />
    <path
       style="fill:none;stroke:#000000;stroke-width:10.5833;stroke-linecap:round;stroke-linejoin:round;stroke-miterlimit:4;stroke-dasharray:none;stroke-opacity:1"
       d="m -6.614567,118.17216 -29.259808,4.82305 c -8.44782,6.43274 -23.308795,15.78373 -31.387726,18.15869"
       id="path9514"
       sodipodi:nodetypes="ccc" />
    <path
       style="fill:none;stroke:#000000;stroke-width:10.5833;stroke-linecap:round;stroke-linejoin:round;stroke-miterlimit:4;stroke-dasharray:none;stroke-opacity:1"
       d="M -7.753644,102.19004 -37.702563,90.079953 C -46.81446,82.163247 -52.670114,75.574441 -57.119259,66.770712"
       id="path9516"
       sodipodi:nodetypes="ccc" />
    <path
       style="fill:none;stroke:#000000;stroke-width:5.29167;stroke-linecap:round;stroke-linejoin:miter;stroke-miterlimit:4;stroke-dasharray:none;stroke-opacity:1"
       d="M -7.048314,76.525099 C -25.886414,65.011875 -11.919839,61.916598 -22.6569,47.669589"
       id="path9518"
       sodipodi:nodetypes="cc" />
    <path
       style="fill:#0b0000;fill-opacity:1;stroke:none;stroke-width:0.264583px;stroke-linecap:butt;stroke-linejoin:miter;stroke-opacity:1"
       d="m 0,71.672664 v 0 c -1.962428,-0.659326 -3.951672,-1.479352 -5.072716,-2.475232 -0.549661,2.206307 -8.271345,9.220995 -7.503973,11.771206 0.229239,4.310225 3.214692,7.931397 4.823045,11.896844 -4.853302,11.467268 -1.511465,40.710938 -0.321536,51.224008 -6.850425,3.911 -13.515229,15.26197 -13.351653,16.36463 0.679408,6.84122 3.966742,19.4038 7.493937,23.49861 3.527197,4.0948 9.865434,10.48858 13.932896,10.86002"
       id="path9520"
       sodipodi:nodetypes="ccccccccc" />
  </g>
</svg>
