<?xml version="1.0" encoding="UTF-8" standalone="no"?>
<svg
   xmlns:dc="http://purl.org/dc/elements/1.1/"
   xmlns:cc="http://creativecommons.org/ns#"
   xmlns:rdf="http://www.w3.org/1999/02/22-rdf-syntax-ns#"
   xmlns:svg="http://www.w3.org/2000/svg"
   xmlns="http://www.w3.org/2000/svg"
   xmlns:sodipodi="http://sodipodi.sourceforge.net/DTD/sodipodi-0.dtd"
   xmlns:inkscape="http://www.inkscape.org/namespaces/inkscape"
   width="300"
   height="700"
   viewBox="0 0 79.374998 185.20834"
   version="1.1"
   id="svg8"
   inkscape:version="1.0.1 (c497b03c, 2020-09-10)"
   sodipodi:docname="ant-tile.svg"
   inkscape:export-filename="/Users/tass/bee.png"
   inkscape:export-xdpi="96"
   inkscape:export-ydpi="96">
  <defs
     id="defs2" />
  <sodipodi:namedview
     id="base"
     pagecolor="#ffffff"
     bordercolor="#666666"
     borderopacity="1.0"
     inkscape:pageopacity="0.0"
     inkscape:pageshadow="2"
     inkscape:zoom="1.5152178"
     inkscape:cx="-56.188101"
     inkscape:cy="349.04259"
     inkscape:document-units="px"
     inkscape:current-layer="g5306"
     showgrid="false"
     showguides="false"
     inkscape:guide-bbox="true"
     inkscape:lockguides="false"
     units="px"
     inkscape:window-width="1860"
     inkscape:window-height="1287"
     inkscape:window-x="0"
     inkscape:window-y="22"
     inkscape:window-maximized="0"
     inkscape:document-rotation="0">
    <sodipodi:guide
       position="105.83333,0"
       orientation="1,0"
       id="guide954"
       inkscape:locked="false"
       inkscape:label=""
       inkscape:color="rgb(0,0,255)" />
    <sodipodi:guide
       position="97.895834,0"
       orientation="1,0"
       id="guide4710"
       inkscape:locked="false"
       inkscape:label=""
       inkscape:color="rgb(0,0,255)" />
    <sodipodi:guide
       position="113.77083,0"
       orientation="1,0"
       id="guide4712"
       inkscape:locked="false"
       inkscape:label=""
       inkscape:color="rgb(0,0,255)" />
  </sodipodi:namedview>
  <metadata
     id="metadata5">
    <rdf:RDF>
      <cc:Work
         rdf:about="">
        <dc:format>image/svg+xml</dc:format>
        <dc:type
           rdf:resource="http://purl.org/dc/dcmitype/StillImage" />
        <dc:title></dc:title>
      </cc:Work>
    </rdf:RDF>
  </metadata>
  <g
     inkscape:label="bug"
     inkscape:groupmode="layer"
     id="g5306"
     transform="translate(0,-32.41665)"
     style="display:inline">
    <g
       transform="matrix(0.90699503,0,0,1.2511875,81.393933,2.2411115)"
       style="stroke-width:0.938721"
       id="g4518" />
    <g
       transform="matrix(0.90699503,0,0,1.2511875,81.393933,2.2411115)"
       id="g4522">
      <g
         id="g4520" />
    </g>
    <g
       transform="matrix(0.90699503,0,0,1.2511875,81.393933,2.2411115)"
       style="display:inline;stroke-width:0.938721"
       id="g4524" />
    <g
       transform="matrix(0.90699503,0,0,1.2511875,81.393933,2.2411115)"
       id="g4528"
       style="display:inline">
      <g
         id="g4526" />
    </g>
    <g
       transform="matrix(-0.90699503,0,0,1.2511875,-78.748099,2.2411115)"
       style="stroke-width:0.938721"
       id="g4530" />
    <g
       transform="matrix(-0.90699503,0,0,1.2511875,-78.748099,2.2411115)"
       id="g4534">
      <g
         id="g4532" />
    </g>
    <g
       transform="matrix(-0.90699503,0,0,1.2511875,-78.748099,2.2411115)"
       style="display:inline;stroke-width:0.938721"
       id="g4536" />
    <g
       transform="matrix(-0.90699503,0,0,1.2511875,-78.748099,2.2411115)"
       id="g4540"
       style="display:inline">
      <g
         id="g4538" />
    </g>
    <g
       transform="matrix(0.90699503,0,0,1.2511875,81.393933,2.2411115)"
       style="stroke-width:0.938721"
       id="g4542" />
    <g
       transform="matrix(0.90699503,0,0,1.2511875,81.393933,2.2411115)"
       id="g4546">
      <g
         id="g4544" />
    </g>
    <g
       transform="matrix(0.90699503,0,0,1.2511875,81.393933,2.2411115)"
       style="display:inline;stroke-width:0.938721"
       id="g4548" />
    <g
       transform="matrix(0.90699503,0,0,1.2511875,81.393933,2.2411115)"
       id="g4552"
       style="display:inline">
      <g
         id="g4550" />
    </g>
    <g
       transform="matrix(-0.90699503,0,0,1.2511875,-78.748099,2.2411115)"
       style="stroke-width:0.938721"
       id="g4554" />
    <g
       transform="matrix(-0.90699503,0,0,1.2511875,-78.748099,2.2411115)"
       id="g4558">
      <g
         id="g4556" />
    </g>
    <g
       transform="matrix(-0.90699503,0,0,1.2511875,-78.748099,2.2411115)"
       style="display:inline;stroke-width:0.938721"
       id="g4560" />
    <g
       transform="matrix(-0.90699503,0,0,1.2511875,-78.748099,2.2411115)"
       id="g4564"
       style="display:inline">
      <g
         id="g4562" />
    </g>
    <g
       transform="matrix(-0.90699503,0,0,1.2511875,-78.748099,2.2411115)"
       style="stroke-width:0.938721"
       id="g4566" />
    <g
       transform="matrix(-0.90699503,0,0,1.2511875,-78.748099,2.2411115)"
       id="g4570">
      <g
         id="g4568" />
    </g>
    <g
       transform="matrix(-0.90699503,0,0,1.2511875,-78.748099,2.2411115)"
       style="display:inline;stroke-width:0.938721"
       id="g4572" />
    <g
       transform="matrix(-0.90699503,0,0,1.2511875,-78.748099,2.2411115)"
       id="g4576"
       style="display:inline">
      <g
         id="g4574" />
    </g>
    <g
       transform="matrix(0.90699503,0,0,1.2511875,81.393933,2.2411115)"
       style="stroke-width:0.938721"
       id="g4578" />
    <g
       transform="matrix(0.90699503,0,0,1.2511875,81.393933,2.2411115)"
       id="g4582">
      <g
         id="g4580" />
    </g>
    <g
       transform="matrix(0.90699503,0,0,1.2511875,81.393933,2.2411115)"
       style="display:inline;stroke-width:0.938721"
       id="g4584" />
    <g
       transform="matrix(0.90699503,0,0,1.2511875,81.393933,2.2411115)"
       id="g4588"
       style="display:inline">
      <g
         id="g4586" />
    </g>
    <g
       transform="matrix(-0.90699503,0,0,1.2511875,-78.748099,2.2411115)"
       style="stroke-width:0.938721"
       id="g4590" />
    <g
       transform="matrix(-0.90699503,0,0,1.2511875,-78.748099,2.2411115)"
       id="g4594">
      <g
         id="g4592" />
    </g>
    <g
       transform="matrix(-0.90699503,0,0,1.2511875,-78.748099,2.2411115)"
       style="display:inline;stroke-width:0.938721"
       id="g4596" />
    <g
       transform="matrix(-0.90699503,0,0,1.2511875,-78.748099,2.2411115)"
       id="g4600"
       style="display:inline">
      <g
         id="g4598" />
    </g>
    <g
       transform="matrix(0.90699503,0,0,1.2511875,81.393933,2.2411115)"
       style="stroke-width:0.938721"
       id="g4602" />
    <g
       transform="matrix(0.90699503,0,0,1.2511875,81.393933,2.2411115)"
       id="g4606">
      <g
         id="g4604" />
    </g>
    <g
       transform="matrix(0.90699503,0,0,1.2511875,81.393933,2.2411115)"
       style="display:inline;stroke-width:0.938721"
       id="g4608" />
    <g
       transform="matrix(0.90699503,0,0,1.2511875,81.393933,2.2411115)"
       id="g4612"
       style="display:inline">
      <g
         id="g4610" />
    </g>
    <g
       transform="matrix(-0.90699503,0,0,1.2511875,-78.748099,2.2411115)"
       style="stroke-width:0.938721"
       id="g4614" />
    <g
       transform="matrix(-0.90699503,0,0,1.2511875,-78.748099,2.2411115)"
       id="g4618">
      <g
         id="g4616" />
    </g>
    <g
       transform="matrix(-0.90699503,0,0,1.2511875,-78.748099,2.2411115)"
       style="display:inline;stroke-width:0.938721"
       id="g4620" />
    <g
       transform="matrix(-0.90699503,0,0,1.2511875,-78.748099,2.2411115)"
       id="g4624"
       style="display:inline">
      <g
         id="g4622" />
    </g>
    <g
       transform="matrix(0.90699503,0,0,1.2511875,81.393935,2.2411115)"
       style="stroke-width:0.938721"
       id="g4626" />
    <g
       transform="matrix(0.90699503,0,0,1.2511875,81.393935,2.2411115)"
       id="g4630">
      <g
         id="g4628" />
    </g>
    <g
       transform="matrix(0.90699503,0,0,1.2511875,81.393935,2.2411115)"
       style="display:inline;stroke-width:0.938721"
       id="g4632" />
    <g
       transform="matrix(0.90699503,0,0,1.2511875,81.393935,2.2411115)"
       id="g4636"
       style="display:inline">
      <g
         id="g4634" />
    </g>
    <g
       transform="matrix(-0.90699503,0,0,1.2511875,-78.748099,2.2411115)"
       style="stroke-width:0.938721"
       id="g4638" />
    <g
       transform="matrix(-0.90699503,0,0,1.2511875,-78.748099,2.2411115)"
       id="g4642">
      <g
         id="g4640" />
    </g>
    <g
       transform="matrix(-0.90699503,0,0,1.2511875,-78.748099,2.2411115)"
       style="display:inline;stroke-width:0.938721"
       id="g4644" />
    <g
       transform="matrix(-0.90699503,0,0,1.2511875,-78.748099,2.2411115)"
       id="g4648"
       style="display:inline">
      <g
         id="g4646" />
    </g>
    <g
       transform="matrix(0.90699503,0,0,1.2511875,81.393935,2.2411115)"
       style="stroke-width:0.938721"
       id="g4650" />
    <g
       transform="matrix(0.90699503,0,0,1.2511875,81.393935,2.2411115)"
       id="g4654">
      <g
         id="g4652" />
    </g>
    <g
       transform="matrix(0.90699503,0,0,1.2511875,81.393935,2.2411115)"
       style="display:inline;stroke-width:0.938721"
       id="g4656" />
    <g
       transform="matrix(0.90699503,0,0,1.2511875,81.393935,2.2411115)"
       id="g4660"
       style="display:inline">
      <g
         id="g4658" />
    </g>
    <g
       transform="matrix(0.90699503,0,0,1.2511875,81.393935,2.2411115)"
       style="stroke-width:0.938721"
       id="g4662" />
    <g
       transform="matrix(0.90699503,0,0,1.2511875,81.393935,2.2411115)"
       id="g4666">
      <g
         id="g4664" />
    </g>
    <g
       transform="matrix(0.90699503,0,0,1.2511875,81.393935,2.2411115)"
       style="display:inline;stroke-width:0.938721"
       id="g4668" />
    <g
       transform="matrix(0.90699503,0,0,1.2511875,81.393935,2.2411115)"
       id="g4672"
       style="display:inline">
      <g
         id="g4670" />
    </g>
    <g
       transform="matrix(-0.90699503,0,0,1.2511875,-78.748099,2.2411115)"
       style="stroke-width:0.938721"
       id="g4674" />
    <g
       transform="matrix(-0.90699503,0,0,1.2511875,-78.748099,2.2411115)"
       id="g4678">
      <g
         id="g4676" />
    </g>
    <g
       transform="matrix(-0.90699503,0,0,1.2511875,-78.748099,2.2411115)"
       style="display:inline;stroke-width:0.938721"
       id="g4680" />
    <g
       transform="matrix(-0.90699503,0,0,1.2511875,-78.748099,2.2411115)"
       id="g4684"
       style="display:inline">
      <g
         id="g4682" />
    </g>
    <g
       transform="matrix(0.90699503,0,0,1.2511875,81.393935,2.2411115)"
       style="stroke-width:0.938721"
       id="g4686" />
    <g
       transform="matrix(0.90699503,0,0,1.2511875,81.393935,2.2411115)"
       id="g4690">
      <g
         id="g4688" />
    </g>
    <g
       transform="matrix(0.90699503,0,0,1.2511875,81.393935,2.2411115)"
       style="display:inline;stroke-width:0.938721"
       id="g4692" />
    <g
       transform="matrix(0.90699503,0,0,1.2511875,81.393935,2.2411115)"
       id="g4696"
       style="display:inline">
      <g
         id="g4694" />
    </g>
    <g
       transform="matrix(-0.90699503,0,0,1.2511875,-78.748099,2.2411115)"
       style="stroke-width:0.938721"
       id="g4698" />
    <g
       transform="matrix(-0.90699503,0,0,1.2511875,-78.748099,2.2411115)"
       id="g4702">
      <g
         id="g4700" />
    </g>
    <g
       transform="matrix(-0.90699503,0,0,1.2511875,-78.748099,2.2411115)"
       style="display:inline;stroke-width:0.938721"
       id="g4704" />
    <g
       transform="matrix(-0.90699503,0,0,1.2511875,-78.748099,2.2411115)"
       id="g4708"
       style="display:inline">
      <g
         id="g4706" />
    </g>
    <g
       transform="matrix(-0.90699503,0,0,1.2511875,-78.748099,2.2411115)"
       style="stroke-width:0.938721"
       id="g4710" />
    <g
       transform="matrix(-0.90699503,0,0,1.2511875,-78.748099,2.2411115)"
       id="g4714">
      <g
         id="g4712" />
    </g>
    <g
       transform="matrix(-0.90699503,0,0,1.2511875,-78.748099,2.2411115)"
       style="display:inline;stroke-width:0.938721"
       id="g4716" />
    <g
       transform="matrix(-0.90699503,0,0,1.2511875,-78.748099,2.2411115)"
       id="g4720"
       style="display:inline">
      <g
         id="g4718" />
    </g>
    <g
       transform="matrix(0.90699503,0,0,1.2511875,81.393932,2.2411115)"
       style="stroke-width:0.938721"
       id="g4722" />
    <g
       transform="matrix(0.90699503,0,0,1.2511875,81.393932,2.2411115)"
       id="g4726">
      <g
         id="g4724" />
    </g>
    <g
       transform="matrix(0.90699503,0,0,1.2511875,81.393932,2.2411115)"
       style="display:inline;stroke-width:0.938721"
       id="g4728" />
    <g
       transform="matrix(0.90699503,0,0,1.2511875,81.393932,2.2411115)"
       id="g4732"
       style="display:inline">
      <g
         id="g4730" />
    </g>
    <g
       transform="matrix(-0.90699503,0,0,1.2511875,-78.748099,2.2411115)"
       style="stroke-width:0.938721"
       id="g4734" />
    <g
       transform="matrix(-0.90699503,0,0,1.2511875,-78.748099,2.2411115)"
       id="g4738">
      <g
         id="g4736" />
    </g>
    <g
       transform="matrix(-0.90699503,0,0,1.2511875,-78.748099,2.2411115)"
       style="display:inline;stroke-width:0.938721"
       id="g4740" />
    <g
       transform="matrix(-0.90699503,0,0,1.2511875,-78.748099,2.2411115)"
       id="g4744"
       style="display:inline">
      <g
         id="g4742" />
    </g>
    <g
       transform="matrix(0.90699503,0,0,1.2511875,81.393932,2.2411115)"
       style="stroke-width:0.938721"
       id="g4746" />
    <g
       transform="matrix(0.90699503,0,0,1.2511875,81.393932,2.2411115)"
       id="g4750">
      <g
         id="g4748" />
    </g>
    <g
       transform="matrix(0.90699503,0,0,1.2511875,81.393932,2.2411115)"
       style="display:inline;stroke-width:0.938721"
       id="g4752" />
    <g
       transform="matrix(0.90699503,0,0,1.2511875,81.393932,2.2411115)"
       id="g4756"
       style="display:inline">
      <g
         id="g4754" />
    </g>
    <g
       transform="matrix(0.90699503,0,0,1.2511875,81.393932,2.2411115)"
       style="stroke-width:0.938721"
       id="g4758" />
    <g
       transform="matrix(0.90699503,0,0,1.2511875,81.393932,2.2411115)"
       id="g4762">
      <g
         id="g4760" />
    </g>
    <g
       transform="matrix(0.90699503,0,0,1.2511875,81.393932,2.2411115)"
       style="display:inline;stroke-width:0.938721"
       id="g4764" />
    <g
       transform="matrix(0.90699503,0,0,1.2511875,81.393932,2.2411115)"
       id="g4768"
       style="display:inline">
      <g
         id="g4766" />
    </g>
    <g
       transform="matrix(-0.90699503,0,0,1.2511875,-78.748099,2.2411115)"
       style="stroke-width:0.938721"
       id="g4770" />
    <g
       transform="matrix(-0.90699503,0,0,1.2511875,-78.748099,2.2411115)"
       id="g4774">
      <g
         id="g4772" />
    </g>
    <g
       transform="matrix(-0.90699503,0,0,1.2511875,-78.748099,2.2411115)"
       style="display:inline;stroke-width:0.938721"
       id="g4776" />
    <g
       transform="matrix(-0.90699503,0,0,1.2511875,-78.748099,2.2411115)"
       id="g4780"
       style="display:inline">
      <g
         id="g4778" />
    </g>
    <g
       transform="matrix(0.90699503,0,0,1.2511875,81.393932,2.2411115)"
       style="stroke-width:0.938721"
       id="g4782" />
    <g
       transform="matrix(0.90699503,0,0,1.2511875,81.393932,2.2411115)"
       id="g4786">
      <g
         id="g4784" />
    </g>
    <g
       transform="matrix(0.90699503,0,0,1.2511875,81.393932,2.2411115)"
       style="display:inline;stroke-width:0.938721"
       id="g4788" />
    <g
       transform="matrix(0.90699503,0,0,1.2511875,81.393932,2.2411115)"
       id="g4792"
       style="display:inline">
      <g
         id="g4790" />
    </g>
    <g
       transform="matrix(-0.90699503,0,0,1.2511875,-78.748099,2.2411115)"
       style="stroke-width:0.938721"
       id="g4794" />
    <g
       transform="matrix(-0.90699503,0,0,1.2511875,-78.748099,2.2411115)"
       id="g4798">
      <g
         id="g4796" />
    </g>
    <g
       transform="matrix(-0.90699503,0,0,1.2511875,-78.748099,2.2411115)"
       style="display:inline;stroke-width:0.938721"
       id="g4800" />
    <g
       transform="matrix(-0.90699503,0,0,1.2511875,-78.748099,2.2411115)"
       id="g4804"
       style="display:inline">
      <g
         id="g4802" />
    </g>
    <g
       transform="matrix(0.90699503,0,0,1.2511875,81.393932,2.2411115)"
       style="stroke-width:0.938721"
       id="g4806" />
    <g
       transform="matrix(0.90699503,0,0,1.2511875,81.393932,2.2411115)"
       id="g4810">
      <g
         id="g4808" />
    </g>
    <g
       transform="matrix(0.90699503,0,0,1.2511875,81.393932,2.2411115)"
       style="display:inline;stroke-width:0.938721"
       id="g4812" />
    <g
       transform="matrix(0.90699503,0,0,1.2511875,81.393932,2.2411115)"
       id="g4816"
       style="display:inline">
      <g
         id="g4814" />
    </g>
    <g
       transform="matrix(-0.90699503,0,0,1.2511875,-78.748101,2.2411115)"
       style="stroke-width:0.938721"
       id="g4818" />
    <g
       transform="matrix(-0.90699503,0,0,1.2511875,-78.748101,2.2411115)"
       id="g4822">
      <g
         id="g4820" />
    </g>
    <g
       transform="matrix(-0.90699503,0,0,1.2511875,-78.748101,2.2411115)"
       style="display:inline;stroke-width:0.938721"
       id="g4824" />
    <g
       transform="matrix(-0.90699503,0,0,1.2511875,-78.748101,2.2411115)"
       id="g4828"
       style="display:inline">
      <g
         id="g4826" />
    </g>
    <g
       transform="matrix(0.90699503,0,0,1.2511875,81.393932,2.2411115)"
       style="stroke-width:0.938721"
       id="g4830" />
    <g
       transform="matrix(0.90699503,0,0,1.2511875,81.393932,2.2411115)"
       id="g4834">
      <g
         id="g4832" />
    </g>
    <g
       transform="matrix(0.90699503,0,0,1.2511875,81.393932,2.2411115)"
       style="display:inline;stroke-width:0.938721"
       id="g4836" />
    <g
       transform="matrix(0.90699503,0,0,1.2511875,81.393932,2.2411115)"
       id="g4840"
       style="display:inline">
      <g
         id="g4838" />
    </g>
    <g
       transform="matrix(-0.90699503,0,0,1.2511875,-78.748101,2.2411115)"
       style="stroke-width:0.938721"
       id="g4842" />
    <g
       transform="matrix(-0.90699503,0,0,1.2511875,-78.748101,2.2411115)"
       id="g4846">
      <g
         id="g4844" />
    </g>
    <g
       transform="matrix(-0.90699503,0,0,1.2511875,-78.748101,2.2411115)"
       style="display:inline;stroke-width:0.938721"
       id="g4848" />
    <g
       transform="matrix(-0.90699503,0,0,1.2511875,-78.748101,2.2411115)"
       id="g4852"
       style="display:inline">
      <g
         id="g4850" />
    </g>
    <g
       transform="matrix(-0.90699503,0,0,1.2511875,-78.748101,2.2411115)"
       style="stroke-width:0.938721"
       id="g4854" />
    <g
       transform="matrix(-0.90699503,0,0,1.2511875,-78.748101,2.2411115)"
       id="g4858">
      <g
         id="g4856" />
    </g>
    <g
       transform="matrix(-0.90699503,0,0,1.2511875,-78.748101,2.2411115)"
       style="display:inline;stroke-width:0.938721"
       id="g4860" />
    <g
       transform="matrix(-0.90699503,0,0,1.2511875,-78.748101,2.2411115)"
       id="g4864"
       style="display:inline">
      <g
         id="g4862" />
    </g>
    <g
       transform="matrix(0.90699503,0,0,1.2511875,81.393932,2.2411115)"
       style="stroke-width:0.938721"
       id="g4866" />
    <g
       transform="matrix(0.90699503,0,0,1.2511875,81.393932,2.2411115)"
       id="g4870">
      <g
         id="g4868" />
    </g>
    <g
       transform="matrix(0.90699503,0,0,1.2511875,81.393932,2.2411115)"
       style="display:inline;stroke-width:0.938721"
       id="g4872" />
    <g
       transform="matrix(0.90699503,0,0,1.2511875,81.393932,2.2411115)"
       id="g4876"
       style="display:inline">
      <g
         id="g4874" />
    </g>
    <g
       transform="matrix(-0.90699503,0,0,1.2511875,-78.748101,2.2411115)"
       style="stroke-width:0.938721"
       id="g4878" />
    <g
       transform="matrix(-0.90699503,0,0,1.2511875,-78.748101,2.2411115)"
       id="g4882">
      <g
         id="g4880" />
    </g>
    <g
       transform="matrix(-0.90699503,0,0,1.2511875,-78.748101,2.2411115)"
       style="display:inline;stroke-width:0.938721"
       id="g4884" />
    <g
       transform="matrix(-0.90699503,0,0,1.2511875,-78.748101,2.2411115)"
       id="g4888"
       style="display:inline">
      <g
         id="g4886" />
    </g>
    <g
       transform="matrix(0.90699503,0,0,1.2511875,81.393932,2.2411115)"
       style="stroke-width:0.938721"
       id="g4890" />
    <g
       transform="matrix(0.90699503,0,0,1.2511875,81.393932,2.2411115)"
       id="g4894">
      <g
         id="g4892" />
    </g>
    <g
       transform="matrix(0.90699503,0,0,1.2511875,81.393932,2.2411115)"
       style="display:inline;stroke-width:0.938721"
       id="g4896" />
    <g
       transform="matrix(0.90699503,0,0,1.2511875,81.393932,2.2411115)"
       id="g4900"
       style="display:inline">
      <g
         id="g4898" />
    </g>
    <path
       style="fill:none;stroke:#000000;stroke-width:10.5833;stroke-linecap:round;stroke-linejoin:round;stroke-miterlimit:4;stroke-dasharray:none;stroke-opacity:1"
       d="m 6.6145665,137.78167 27.3305895,11.89677 c 5.266126,18.88271 7.696583,39.34152 14.103238,45.29823"
       id="path4902"
       sodipodi:nodetypes="ccc" />
    <path
       style="fill:none;stroke:#000000;stroke-width:10.5833;stroke-linecap:round;stroke-linejoin:round;stroke-miterlimit:4;stroke-dasharray:none;stroke-opacity:1"
       d="m 7.313036,117.99754 29.259808,4.82305 c 8.492458,6.46845 25.371515,17.43391 31.387726,18.15869"
       id="path4904"
       sodipodi:nodetypes="ccc" />
    <path
       style="fill:none;stroke:#000000;stroke-width:10.5833;stroke-linecap:round;stroke-linejoin:round;stroke-miterlimit:4;stroke-dasharray:none;stroke-opacity:1"
       d="M 7.7536436,102.19004 37.702563,90.079953 C 46.81446,75.533114 52.670114,68.701726 57.119259,66.770712"
       id="path4906"
       sodipodi:nodetypes="ccc" />
    <path
       style="fill:none;stroke:#000000;stroke-width:5.29167;stroke-linecap:round;stroke-linejoin:miter;stroke-miterlimit:4;stroke-dasharray:none;stroke-opacity:1"
       d="M 7.0483139,76.525099 C 25.886414,65.011875 11.919839,61.916598 22.6569,47.669589"
       id="path4908"
       sodipodi:nodetypes="cc" />
    <path
       style="fill:#060000;fill-opacity:1;fill-rule:nonzero;stroke:none;stroke-width:0.264583;stroke-linecap:butt;stroke-linejoin:miter;stroke-miterlimit:4;stroke-dasharray:none;stroke-opacity:1"
       d="m 0,71.574984 c 1.9624276,-0.659326 3.9516717,-1.381672 5.072716,-2.377552 0.5496607,2.206307 8.271345,9.220995 7.503973,11.771206 -0.229239,4.310225 -3.2146924,7.931397 -4.8230455,11.896844 4.8533025,11.467268 1.5114651,40.710938 0.3215367,51.224008 4.9296338,6.52425 9.4990298,16.39778 9.3354538,23.52394 -0.679408,6.84122 -3.792125,15.91145 -7.31932,20.00626 C 6.564117,191.71449 4.0674622,195.48901 0,195.86045 Z"
       id="path4910"
       sodipodi:nodetypes="ccccccccc" />
    <g
       transform="matrix(-0.90699503,0,0,1.2511875,-81.393933,2.2411115)"
       style="stroke-width:0.938721"
       id="g4912" />
    <g
       transform="matrix(-0.90699503,0,0,1.2511875,-81.393933,2.2411115)"
       id="g4916">
      <g
         id="g4914" />
    </g>
    <g
       transform="matrix(-0.90699503,0,0,1.2511875,-81.393933,2.2411115)"
       style="display:inline;stroke-width:0.938721"
       id="g4918" />
    <g
       transform="matrix(-0.90699503,0,0,1.2511875,-81.393933,2.2411115)"
       id="g4922"
       style="display:inline">
      <g
         id="g4920" />
    </g>
    <g
       transform="matrix(0.90699503,0,0,1.2511875,78.748099,2.2411115)"
       style="stroke-width:0.938721"
       id="g4924" />
    <g
       transform="matrix(0.90699503,0,0,1.2511875,78.748099,2.2411115)"
       id="g4928">
      <g
         id="g4926" />
    </g>
    <g
       transform="matrix(0.90699503,0,0,1.2511875,78.748099,2.2411115)"
       style="display:inline;stroke-width:0.938721"
       id="g4930" />
    <g
       transform="matrix(0.90699503,0,0,1.2511875,78.748099,2.2411115)"
       id="g4934"
       style="display:inline">
      <g
         id="g4932" />
    </g>
    <g
       transform="matrix(-0.90699503,0,0,1.2511875,-81.393933,2.2411115)"
       style="stroke-width:0.938721"
       id="g4936" />
    <g
       transform="matrix(-0.90699503,0,0,1.2511875,-81.393933,2.2411115)"
       id="g4940">
      <g
         id="g4938" />
    </g>
    <g
       transform="matrix(-0.90699503,0,0,1.2511875,-81.393933,2.2411115)"
       style="display:inline;stroke-width:0.938721"
       id="g4942" />
    <g
       transform="matrix(-0.90699503,0,0,1.2511875,-81.393933,2.2411115)"
       id="g4946"
       style="display:inline">
      <g
         id="g4944" />
    </g>
    <g
       transform="matrix(0.90699503,0,0,1.2511875,78.748099,2.2411115)"
       style="stroke-width:0.938721"
       id="g4948" />
    <g
       transform="matrix(0.90699503,0,0,1.2511875,78.748099,2.2411115)"
       id="g4952">
      <g
         id="g4950" />
    </g>
    <g
       transform="matrix(0.90699503,0,0,1.2511875,78.748099,2.2411115)"
       style="display:inline;stroke-width:0.938721"
       id="g4954" />
    <g
       transform="matrix(0.90699503,0,0,1.2511875,78.748099,2.2411115)"
       id="g4958"
       style="display:inline">
      <g
         id="g4956" />
    </g>
    <g
       transform="matrix(0.90699503,0,0,1.2511875,78.748099,2.2411115)"
       style="stroke-width:0.938721"
       id="g4960" />
    <g
       transform="matrix(0.90699503,0,0,1.2511875,78.748099,2.2411115)"
       id="g4964">
      <g
         id="g4962" />
    </g>
    <g
       transform="matrix(0.90699503,0,0,1.2511875,78.748099,2.2411115)"
       style="display:inline;stroke-width:0.938721"
       id="g4966" />
    <g
       transform="matrix(0.90699503,0,0,1.2511875,78.748099,2.2411115)"
       id="g4970"
       style="display:inline">
      <g
         id="g4968" />
    </g>
    <g
       transform="matrix(-0.90699503,0,0,1.2511875,-81.393933,2.2411115)"
       style="stroke-width:0.938721"
       id="g4972" />
    <g
       transform="matrix(-0.90699503,0,0,1.2511875,-81.393933,2.2411115)"
       id="g4976">
      <g
         id="g4974" />
    </g>
    <g
       transform="matrix(-0.90699503,0,0,1.2511875,-81.393933,2.2411115)"
       style="display:inline;stroke-width:0.938721"
       id="g4978" />
    <g
       transform="matrix(-0.90699503,0,0,1.2511875,-81.393933,2.2411115)"
       id="g4982"
       style="display:inline">
      <g
         id="g4980" />
    </g>
    <g
       transform="matrix(0.90699503,0,0,1.2511875,78.748099,2.2411115)"
       style="stroke-width:0.938721"
       id="g4984" />
    <g
       transform="matrix(0.90699503,0,0,1.2511875,78.748099,2.2411115)"
       id="g4988">
      <g
         id="g4986" />
    </g>
    <g
       transform="matrix(0.90699503,0,0,1.2511875,78.748099,2.2411115)"
       style="display:inline;stroke-width:0.938721"
       id="g4990" />
    <g
       transform="matrix(0.90699503,0,0,1.2511875,78.748099,2.2411115)"
       id="g4994"
       style="display:inline">
      <g
         id="g4992" />
    </g>
    <g
       transform="matrix(-0.90699503,0,0,1.2511875,-81.393933,2.2411115)"
       style="stroke-width:0.938721"
       id="g4996" />
    <g
       transform="matrix(-0.90699503,0,0,1.2511875,-81.393933,2.2411115)"
       id="g5000">
      <g
         id="g4998" />
    </g>
    <g
       transform="matrix(-0.90699503,0,0,1.2511875,-81.393933,2.2411115)"
       style="display:inline;stroke-width:0.938721"
       id="g5002" />
    <g
       transform="matrix(-0.90699503,0,0,1.2511875,-81.393933,2.2411115)"
       id="g5006"
       style="display:inline">
      <g
         id="g5004" />
    </g>
    <g
       transform="matrix(0.90699503,0,0,1.2511875,78.748099,2.2411115)"
       style="stroke-width:0.938721"
       id="g5008" />
    <g
       transform="matrix(0.90699503,0,0,1.2511875,78.748099,2.2411115)"
       id="g5012">
      <g
         id="g5010" />
    </g>
    <g
       transform="matrix(0.90699503,0,0,1.2511875,78.748099,2.2411115)"
       style="display:inline;stroke-width:0.938721"
       id="g5014" />
    <g
       transform="matrix(0.90699503,0,0,1.2511875,78.748099,2.2411115)"
       id="g5018"
       style="display:inline">
      <g
         id="g5016" />
    </g>
    <g
       transform="matrix(-0.90699503,0,0,1.2511875,-81.393935,2.2411115)"
       style="stroke-width:0.938721"
       id="g5020" />
    <g
       transform="matrix(-0.90699503,0,0,1.2511875,-81.393935,2.2411115)"
       id="g5024">
      <g
         id="g5022" />
    </g>
    <g
       transform="matrix(-0.90699503,0,0,1.2511875,-81.393935,2.2411115)"
       style="display:inline;stroke-width:0.938721"
       id="g5026" />
    <g
       transform="matrix(-0.90699503,0,0,1.2511875,-81.393935,2.2411115)"
       id="g5030"
       style="display:inline">
      <g
         id="g5028" />
    </g>
    <g
       transform="matrix(0.90699503,0,0,1.2511875,78.748099,2.2411115)"
       style="stroke-width:0.938721"
       id="g5032" />
    <g
       transform="matrix(0.90699503,0,0,1.2511875,78.748099,2.2411115)"
       id="g5036">
      <g
         id="g5034" />
    </g>
    <g
       transform="matrix(0.90699503,0,0,1.2511875,78.748099,2.2411115)"
       style="display:inline;stroke-width:0.938721"
       id="g5038" />
    <g
       transform="matrix(0.90699503,0,0,1.2511875,78.748099,2.2411115)"
       id="g5042"
       style="display:inline">
      <g
         id="g5040" />
    </g>
    <g
       transform="matrix(-0.90699503,0,0,1.2511875,-81.393935,2.2411115)"
       style="stroke-width:0.938721"
       id="g5044" />
    <g
       transform="matrix(-0.90699503,0,0,1.2511875,-81.393935,2.2411115)"
       id="g5048">
      <g
         id="g5046" />
    </g>
    <g
       transform="matrix(-0.90699503,0,0,1.2511875,-81.393935,2.2411115)"
       style="display:inline;stroke-width:0.938721"
       id="g5050" />
    <g
       transform="matrix(-0.90699503,0,0,1.2511875,-81.393935,2.2411115)"
       id="g5054"
       style="display:inline">
      <g
         id="g5052" />
    </g>
    <g
       transform="matrix(-0.90699503,0,0,1.2511875,-81.393935,2.2411115)"
       style="stroke-width:0.938721"
       id="g5056" />
    <g
       transform="matrix(-0.90699503,0,0,1.2511875,-81.393935,2.2411115)"
       id="g5060">
      <g
         id="g5058" />
    </g>
    <g
       transform="matrix(-0.90699503,0,0,1.2511875,-81.393935,2.2411115)"
       style="display:inline;stroke-width:0.938721"
       id="g5062" />
    <g
       transform="matrix(-0.90699503,0,0,1.2511875,-81.393935,2.2411115)"
       id="g5066"
       style="display:inline">
      <g
         id="g5064" />
    </g>
    <g
       transform="matrix(0.90699503,0,0,1.2511875,78.748099,2.2411115)"
       style="stroke-width:0.938721"
       id="g5068" />
    <g
       transform="matrix(0.90699503,0,0,1.2511875,78.748099,2.2411115)"
       id="g5072">
      <g
         id="g5070" />
    </g>
    <g
       transform="matrix(0.90699503,0,0,1.2511875,78.748099,2.2411115)"
       style="display:inline;stroke-width:0.938721"
       id="g5074" />
    <g
       transform="matrix(0.90699503,0,0,1.2511875,78.748099,2.2411115)"
       id="g5078"
       style="display:inline">
      <g
         id="g5076" />
    </g>
    <g
       transform="matrix(-0.90699503,0,0,1.2511875,-81.393935,2.2411115)"
       style="stroke-width:0.938721"
       id="g5080" />
    <g
       transform="matrix(-0.90699503,0,0,1.2511875,-81.393935,2.2411115)"
       id="g5084">
      <g
         id="g5082" />
    </g>
    <g
       transform="matrix(-0.90699503,0,0,1.2511875,-81.393935,2.2411115)"
       style="display:inline;stroke-width:0.938721"
       id="g5086" />
    <g
       transform="matrix(-0.90699503,0,0,1.2511875,-81.393935,2.2411115)"
       id="g5090"
       style="display:inline">
      <g
         id="g5088" />
    </g>
    <g
       transform="matrix(0.90699503,0,0,1.2511875,78.748099,2.2411115)"
       style="stroke-width:0.938721"
       id="g5092" />
    <g
       transform="matrix(0.90699503,0,0,1.2511875,78.748099,2.2411115)"
       id="g5096">
      <g
         id="g5094" />
    </g>
    <g
       transform="matrix(0.90699503,0,0,1.2511875,78.748099,2.2411115)"
       style="display:inline;stroke-width:0.938721"
       id="g5098" />
    <g
       transform="matrix(0.90699503,0,0,1.2511875,78.748099,2.2411115)"
       id="g5102"
       style="display:inline">
      <g
         id="g5100" />
    </g>
    <g
       transform="matrix(0.90699503,0,0,1.2511875,78.748099,2.2411115)"
       style="stroke-width:0.938721"
       id="g5104" />
    <g
       transform="matrix(0.90699503,0,0,1.2511875,78.748099,2.2411115)"
       id="g5108">
      <g
         id="g5106" />
    </g>
    <g
       transform="matrix(0.90699503,0,0,1.2511875,78.748099,2.2411115)"
       style="display:inline;stroke-width:0.938721"
       id="g5110" />
    <g
       transform="matrix(0.90699503,0,0,1.2511875,78.748099,2.2411115)"
       id="g5114"
       style="display:inline">
      <g
         id="g5112" />
    </g>
    <g
       transform="matrix(-0.90699503,0,0,1.2511875,-81.393932,2.2411115)"
       style="stroke-width:0.938721"
       id="g5116" />
    <g
       transform="matrix(-0.90699503,0,0,1.2511875,-81.393932,2.2411115)"
       id="g5120">
      <g
         id="g5118" />
    </g>
    <g
       transform="matrix(-0.90699503,0,0,1.2511875,-81.393932,2.2411115)"
       style="display:inline;stroke-width:0.938721"
       id="g5122" />
    <g
       transform="matrix(-0.90699503,0,0,1.2511875,-81.393932,2.2411115)"
       id="g5126"
       style="display:inline">
      <g
         id="g5124" />
    </g>
    <g
       transform="matrix(0.90699503,0,0,1.2511875,78.748099,2.2411115)"
       style="stroke-width:0.938721"
       id="g5128" />
    <g
       transform="matrix(0.90699503,0,0,1.2511875,78.748099,2.2411115)"
       id="g5132">
      <g
         id="g5130" />
    </g>
    <g
       transform="matrix(0.90699503,0,0,1.2511875,78.748099,2.2411115)"
       style="display:inline;stroke-width:0.938721"
       id="g5134" />
    <g
       transform="matrix(0.90699503,0,0,1.2511875,78.748099,2.2411115)"
       id="g5138"
       style="display:inline">
      <g
         id="g5136" />
    </g>
    <g
       transform="matrix(-0.90699503,0,0,1.2511875,-81.393932,2.2411115)"
       style="stroke-width:0.938721"
       id="g5140" />
    <g
       transform="matrix(-0.90699503,0,0,1.2511875,-81.393932,2.2411115)"
       id="g5144">
      <g
         id="g5142" />
    </g>
    <g
       transform="matrix(-0.90699503,0,0,1.2511875,-81.393932,2.2411115)"
       style="display:inline;stroke-width:0.938721"
       id="g5146" />
    <g
       transform="matrix(-0.90699503,0,0,1.2511875,-81.393932,2.2411115)"
       id="g5150"
       style="display:inline">
      <g
         id="g5148" />
    </g>
    <g
       transform="matrix(-0.90699503,0,0,1.2511875,-81.393932,2.2411115)"
       style="stroke-width:0.938721"
       id="g5152" />
    <g
       transform="matrix(-0.90699503,0,0,1.2511875,-81.393932,2.2411115)"
       id="g5156">
      <g
         id="g5154" />
    </g>
    <g
       transform="matrix(-0.90699503,0,0,1.2511875,-81.393932,2.2411115)"
       style="display:inline;stroke-width:0.938721"
       id="g5158" />
    <g
       transform="matrix(-0.90699503,0,0,1.2511875,-81.393932,2.2411115)"
       id="g5162"
       style="display:inline">
      <g
         id="g5160" />
    </g>
    <g
       transform="matrix(0.90699503,0,0,1.2511875,78.748099,2.2411115)"
       style="stroke-width:0.938721"
       id="g5164" />
    <g
       transform="matrix(0.90699503,0,0,1.2511875,78.748099,2.2411115)"
       id="g5168">
      <g
         id="g5166" />
    </g>
    <g
       transform="matrix(0.90699503,0,0,1.2511875,78.748099,2.2411115)"
       style="display:inline;stroke-width:0.938721"
       id="g5170" />
    <g
       transform="matrix(0.90699503,0,0,1.2511875,78.748099,2.2411115)"
       id="g5174"
       style="display:inline">
      <g
         id="g5172" />
    </g>
    <g
       transform="matrix(-0.90699503,0,0,1.2511875,-81.393932,2.2411115)"
       style="stroke-width:0.938721"
       id="g5176" />
    <g
       transform="matrix(-0.90699503,0,0,1.2511875,-81.393932,2.2411115)"
       id="g5180">
      <g
         id="g5178" />
    </g>
    <g
       transform="matrix(-0.90699503,0,0,1.2511875,-81.393932,2.2411115)"
       style="display:inline;stroke-width:0.938721"
       id="g5182" />
    <g
       transform="matrix(-0.90699503,0,0,1.2511875,-81.393932,2.2411115)"
       id="g5186"
       style="display:inline">
      <g
         id="g5184" />
    </g>
    <g
       transform="matrix(0.90699503,0,0,1.2511875,78.748099,2.2411115)"
       style="stroke-width:0.938721"
       id="g5188" />
    <g
       transform="matrix(0.90699503,0,0,1.2511875,78.748099,2.2411115)"
       id="g5192">
      <g
         id="g5190" />
    </g>
    <g
       transform="matrix(0.90699503,0,0,1.2511875,78.748099,2.2411115)"
       style="display:inline;stroke-width:0.938721"
       id="g5194" />
    <g
       transform="matrix(0.90699503,0,0,1.2511875,78.748099,2.2411115)"
       id="g5198"
       style="display:inline">
      <g
         id="g5196" />
    </g>
    <g
       transform="matrix(-0.90699503,0,0,1.2511875,-81.393932,2.2411115)"
       style="stroke-width:0.938721"
       id="g5200" />
    <g
       transform="matrix(-0.90699503,0,0,1.2511875,-81.393932,2.2411115)"
       id="g5204">
      <g
         id="g5202" />
    </g>
    <g
       transform="matrix(-0.90699503,0,0,1.2511875,-81.393932,2.2411115)"
       style="display:inline;stroke-width:0.938721"
       id="g5206" />
    <g
       transform="matrix(-0.90699503,0,0,1.2511875,-81.393932,2.2411115)"
       id="g5210"
       style="display:inline">
      <g
         id="g5208" />
    </g>
    <g
       transform="matrix(0.90699503,0,0,1.2511875,78.748099,2.2411115)"
       style="stroke-width:0.938721"
       id="g5212" />
    <g
       transform="matrix(0.90699503,0,0,1.2511875,78.748099,2.2411115)"
       id="g5216">
      <g
         id="g5214" />
    </g>
    <g
       transform="matrix(0.90699503,0,0,1.2511875,78.748099,2.2411115)"
       style="display:inline;stroke-width:0.938721"
       id="g5218" />
    <g
       transform="matrix(0.90699503,0,0,1.2511875,78.748099,2.2411115)"
       id="g5222"
       style="display:inline">
      <g
         id="g5220" />
    </g>
    <g
       transform="matrix(-0.90699503,0,0,1.2511875,-81.393932,2.2411115)"
       style="stroke-width:0.938721"
       id="g5224" />
    <g
       transform="matrix(-0.90699503,0,0,1.2511875,-81.393932,2.2411115)"
       id="g5228">
      <g
         id="g5226" />
    </g>
    <g
       transform="matrix(-0.90699503,0,0,1.2511875,-81.393932,2.2411115)"
       style="display:inline;stroke-width:0.938721"
       id="g5230" />
    <g
       transform="matrix(-0.90699503,0,0,1.2511875,-81.393932,2.2411115)"
       id="g5234"
       style="display:inline">
      <g
         id="g5232" />
    </g>
    <g
       transform="matrix(0.90699503,0,0,1.2511875,78.748099,2.2411115)"
       style="stroke-width:0.938721"
       id="g5236" />
    <g
       transform="matrix(0.90699503,0,0,1.2511875,78.748099,2.2411115)"
       id="g5240">
      <g
         id="g5238" />
    </g>
    <g
       transform="matrix(0.90699503,0,0,1.2511875,78.748099,2.2411115)"
       style="display:inline;stroke-width:0.938721"
       id="g5242" />
    <g
       transform="matrix(0.90699503,0,0,1.2511875,78.748099,2.2411115)"
       id="g5246"
       style="display:inline">
      <g
         id="g5244" />
    </g>
    <g
       transform="matrix(0.90699503,0,0,1.2511875,78.748099,2.2411115)"
       style="stroke-width:0.938721"
       id="g5248" />
    <g
       transform="matrix(0.90699503,0,0,1.2511875,78.748099,2.2411115)"
       id="g5252">
      <g
         id="g5250" />
    </g>
    <g
       transform="matrix(0.90699503,0,0,1.2511875,78.748099,2.2411115)"
       style="display:inline;stroke-width:0.938721"
       id="g5254" />
    <g
       transform="matrix(0.90699503,0,0,1.2511875,78.748099,2.2411115)"
       id="g5258"
       style="display:inline">
      <g
         id="g5256" />
    </g>
    <g
       transform="matrix(-0.90699503,0,0,1.2511875,-81.393932,2.2411115)"
       style="stroke-width:0.938721"
       id="g5260" />
    <g
       transform="matrix(-0.90699503,0,0,1.2511875,-81.393932,2.2411115)"
       id="g5264">
      <g
         id="g5262" />
    </g>
    <g
       transform="matrix(-0.90699503,0,0,1.2511875,-81.393932,2.2411115)"
       style="display:inline;stroke-width:0.938721"
       id="g5266" />
    <g
       transform="matrix(-0.90699503,0,0,1.2511875,-81.393932,2.2411115)"
       id="g5270"
       style="display:inline">
      <g
         id="g5268" />
    </g>
    <g
       transform="matrix(0.90699503,0,0,1.2511875,78.748099,2.2411115)"
       style="stroke-width:0.938721"
       id="g5272" />
    <g
       transform="matrix(0.90699503,0,0,1.2511875,78.748099,2.2411115)"
       id="g5276">
      <g
         id="g5274" />
    </g>
    <g
       transform="matrix(0.90699503,0,0,1.2511875,78.748099,2.2411115)"
       style="display:inline;stroke-width:0.938721"
       id="g5278" />
    <g
       transform="matrix(0.90699503,0,0,1.2511875,78.748099,2.2411115)"
       id="g5282"
       style="display:inline">
      <g
         id="g5280" />
    </g>
    <g
       transform="matrix(-0.90699503,0,0,1.2511875,-81.393932,2.2411115)"
       style="stroke-width:0.938721"
       id="g5284" />
    <g
       transform="matrix(-0.90699503,0,0,1.2511875,-81.393932,2.2411115)"
       id="g5288">
      <g
         id="g5286" />
    </g>
    <g
       transform="matrix(-0.90699503,0,0,1.2511875,-81.393932,2.2411115)"
       style="display:inline;stroke-width:0.938721"
       id="g5290" />
    <g
       transform="matrix(-0.90699503,0,0,1.2511875,-81.393932,2.2411115)"
       id="g5294"
       style="display:inline">
      <g
         id="g5292" />
    </g>
    <path
       style="fill:none;stroke:#000000;stroke-width:5.29167;stroke-linecap:round;stroke-linejoin:miter;stroke-miterlimit:4;stroke-dasharray:none;stroke-opacity:1"
       d="M -7.048314,76.525099 C -25.886414,65.011875 -11.919839,61.916598 -22.6569,47.669589"
       id="path5302"
       sodipodi:nodetypes="cc" />
    <path
       style="fill:none;stroke:#000000;stroke-width:10.5833;stroke-linecap:round;stroke-linejoin:round;stroke-miterlimit:4;stroke-dasharray:none;stroke-opacity:1"
       d="m -6.614567,137.78167 -27.330589,11.89677 c -5.266126,18.88271 -7.696583,39.34152 -14.103238,45.29823"
       id="path3296"
       sodipodi:nodetypes="ccc" />
    <path
       style="fill:none;stroke:#000000;stroke-width:10.5833;stroke-linecap:round;stroke-linejoin:round;stroke-miterlimit:4;stroke-dasharray:none;stroke-opacity:1"
       d="m -7.313036,117.99754 -29.259808,4.82305 c -8.492458,6.46845 -25.371515,17.43391 -31.387726,18.15869"
       id="path3298"
       sodipodi:nodetypes="ccc" />
    <path
       style="fill:none;stroke:#000000;stroke-width:10.5833;stroke-linecap:round;stroke-linejoin:round;stroke-miterlimit:4;stroke-dasharray:none;stroke-opacity:1"
       d="M -7.753644,102.19004 -37.702563,90.079953 C -46.81446,75.533114 -52.670114,68.701726 -57.119259,66.770712"
       id="path3300"
       sodipodi:nodetypes="ccc" />
    <path
       style="fill:#060000;fill-opacity:1;fill-rule:nonzero;stroke:none;stroke-width:0.264583;stroke-linecap:butt;stroke-linejoin:miter;stroke-miterlimit:4;stroke-dasharray:none;stroke-opacity:1"
       d="m 0,71.574984 c -1.962428,-0.659326 -3.951672,-1.381672 -5.072716,-2.377552 -0.549661,2.206307 -8.271345,9.220995 -7.503973,11.771206 0.229239,4.310225 3.214692,7.931397 4.823045,11.896844 -4.853302,11.467268 -1.511465,40.710938 -0.321536,51.224008 -4.929634,6.52425 -9.49903,16.39778 -9.335454,23.52394 0.679408,6.84122 3.792125,15.91145 7.31932,20.00626 3.527197,4.0948 6.023852,7.86932 10.091314,8.24076 z"
       id="path3302"
       sodipodi:nodetypes="ccccccccc" />
  </g>
</svg>
