<?xml version="1.0" encoding="UTF-8" standalone="no"?>
<svg
   xmlns:dc="http://purl.org/dc/elements/1.1/"
   xmlns:cc="http://creativecommons.org/ns#"
   xmlns:rdf="http://www.w3.org/1999/02/22-rdf-syntax-ns#"
   xmlns:svg="http://www.w3.org/2000/svg"
   xmlns="http://www.w3.org/2000/svg"
   xmlns:sodipodi="http://sodipodi.sourceforge.net/DTD/sodipodi-0.dtd"
   xmlns:inkscape="http://www.inkscape.org/namespaces/inkscape"
   width="1000"
   height="1000"
   viewBox="0 0 264.58333 264.58334"
   version="1.1"
   id="svg8"
   inkscape:version="1.0.1 (c497b03c, 2020-09-10)"
   sodipodi:docname="bee.svg"
   inkscape:export-filename="/Users/tass/bee.png"
   inkscape:export-xdpi="96"
   inkscape:export-ydpi="96">
  <defs
     id="defs2" />
  <sodipodi:namedview
     id="base"
     pagecolor="#ffffff"
     bordercolor="#666666"
     borderopacity="1.0"
     inkscape:pageopacity="0.0"
     inkscape:pageshadow="2"
     inkscape:zoom="1.5162318"
     inkscape:cx="530.6004"
     inkscape:cy="333.18895"
     inkscape:document-units="px"
     inkscape:current-layer="g1085"
     showgrid="false"
     showguides="false"
     inkscape:guide-bbox="true"
     inkscape:lockguides="false"
     units="px"
     inkscape:window-width="2560"
     inkscape:window-height="1396"
     inkscape:window-x="0"
     inkscape:window-y="22"
     inkscape:window-maximized="1"
     inkscape:document-rotation="0">
    <sodipodi:guide
       position="105.83333,0"
       orientation="1,0"
       id="guide954"
       inkscape:locked="false"
       inkscape:label=""
       inkscape:color="rgb(0,0,255)" />
    <sodipodi:guide
       position="97.895834,0"
       orientation="1,0"
       id="guide4710"
       inkscape:locked="false"
       inkscape:label=""
       inkscape:color="rgb(0,0,255)" />
    <sodipodi:guide
       position="113.77083,0"
       orientation="1,0"
       id="guide4712"
       inkscape:locked="false"
       inkscape:label=""
       inkscape:color="rgb(0,0,255)" />
  </sodipodi:namedview>
  <metadata
     id="metadata5">
    <rdf:RDF>
      <cc:Work
         rdf:about="">
        <dc:format>image/svg+xml</dc:format>
        <dc:type
           rdf:resource="http://purl.org/dc/dcmitype/StillImage" />
        <dc:title></dc:title>
      </cc:Work>
    </rdf:RDF>
  </metadata>
  <g
     inkscape:label="Bee Cutout"
     inkscape:groupmode="layer"
     id="g1085"
     transform="translate(0,-32.41665)"
     style="display:inline">
    <path
       id="path1053"
       style="fill:#ff0000;fill-opacity:1;stroke:none;stroke-width:0.186385"
       d="m 105.41016,49.355469 c -6.658453,0.08164 -12.956432,4.778878 -14.93303,11.138677 -1.878197,5.694615 -0.28873,12.391717 4.068169,16.541864 4.149797,4.073854 10.579241,5.68054 16.125571,3.856178 5.64041,-1.747857 10.13352,-6.788747 11.07034,-12.641252 1.01316,-5.752161 -1.32326,-12.004343 -6.02996,-15.515529 -2.91528,-2.251036 -6.61313,-3.493826 -10.30109,-3.379938 z" />
    <path
       id="path1055"
       style="fill:#ff0000;fill-opacity:1;stroke:none;stroke-width:0.22203"
       d="m 104.88672,73.191406 c -5.439602,0.360528 -10.264555,3.818646 -13.301929,8.2075 -4.678827,6.627813 -6.34447,15.026798 -5.717432,23.026784 0.579585,7.08136 3.084377,14.23397 8.068742,19.42575 3.487409,3.61479 8.578759,5.97737 13.662539,5.29245 5.09669,-0.63043 9.53425,-3.91401 12.42399,-8.04972 4.47007,-6.25086 6.18654,-14.1409 5.86795,-21.73523 -0.33246,-7.16553 -2.6164,-14.438186 -7.3527,-19.928732 -3.2166,-3.674765 -7.88737,-6.363551 -12.87225,-6.26165 -0.26008,-0.0079 -0.51927,0.01129 -0.77891,0.02285 z" />
    <path
       id="path1057"
       clip-path="none"
       style="fill:#ff0000;fill-opacity:1;stroke:none;stroke-width:0.226712"
       d="m 105.50781,112.36719 c -3.94738,0.33184 -7.218755,2.90564 -9.979568,5.54273 -3.989791,3.94647 -7.341405,8.73945 -8.839276,14.20017 -0.45943,2.01611 -0.444644,4.09609 -0.40381,6.15163 6.836557,-3.16929 14.271904,-5.22141 21.822574,-4.68496 5.38891,0.28399 10.64368,1.78772 15.56679,3.94931 0.5707,0.23749 1.1414,0.47498 1.7122,0.71221 0.16255,-3.40126 -0.12476,-6.92392 -1.66385,-10.01584 -2.45344,-5.49497 -6.5006,-10.27423 -11.484,-13.63979 -2.00377,-1.28873 -4.31143,-2.26026 -6.73106,-2.21546 z m -0.38476,27.48047 c -8.211346,0.12544 -16.239017,2.71991 -23.375003,6.69336 -1.04048,4.55099 -1.715102,9.21125 -1.769531,13.8789 0.219956,1.1542 1.666154,1.51254 2.618318,1.04144 11.607253,-3.1259 23.798056,-3.94247 35.718896,-2.21026 4.5758,0.63322 9.08179,1.71693 13.5163,2.9364 -0.13719,-5.25587 -0.66164,-10.51732 -1.89258,-15.63672 -7.55417,-4.20865 -16.11329,-6.86606 -24.8164,-6.70312 z m -24.982425,28.22851 c 0.574848,5.1139 1.571539,10.19543 3.267578,15.0625 14.319535,3.54169 29.486387,3.67159 43.838627,0.23257 0.53188,-0.13498 1.22513,-0.0916 1.22175,-0.80925 1.43296,-4.38081 2.51018,-8.90699 2.87517,-13.5073 -0.0243,-1.15198 -1.4656,-1.54687 -2.35449,-1.0799 -13.1796,3.56096 -27.21357,4.08819 -40.603565,1.33062 -2.808055,-0.55739 -5.580686,-1.27401 -8.346633,-2.00853 0.03386,0.25976 0.06771,0.51953 0.101563,0.77929 z m 44.130855,22.31641 c -7.42259,1.34763 -14.93573,2.13964 -22.47877,1.74883 -5.234435,-0.19826 -10.428958,-1.09944 -15.622788,-1.94219 3.133775,4.20857 6.289049,8.69997 10.996829,11.28076 4.435989,2.57928 10.056669,3.16698 14.839109,1.19971 4.7611,-1.84379 8.4846,-5.58842 11.4072,-9.67257 0.72704,-0.94367 1.4542,-1.88724 2.18069,-2.83134 -0.44076,0.0723 -0.88151,0.14453 -1.32227,0.2168 z" />
    <g
       transform="matrix(0.90699503,0,0,1.2511875,82.716849,-1.7481335)"
       style="stroke-width:0.938721"
       id="g1059" />
    <g
       transform="matrix(0.90699503,0,0,1.2511875,82.716849,-1.7481335)"
       id="g1063">
      <g
         id="g1061" />
    </g>
    <path
       id="path1065"
       style="fill:#ff0000;fill-opacity:1;stroke:none;stroke-width:0.264583px;stroke-linecap:butt;stroke-linejoin:miter;stroke-opacity:1"
       d="m 90.652344,81.490234 c -4.620314,0.439555 -8.984372,2.154757 -13.326554,3.686607 -12.582752,4.706426 -24.688952,10.660603 -36.204664,17.572249 -7.709558,4.70183 -15.207387,9.94087 -21.429731,16.53735 -2.893967,3.16165 -5.51107,6.78997 -6.588965,10.99696 -0.800667,3.31732 -0.152151,7.04625 2.126927,9.6556 2.98985,3.66707 7.599908,5.48249 12.077657,6.56913 5.228057,1.22567 10.700432,1.50225 16.014625,0.70895 7.498079,-1.31135 14.356955,-4.89034 20.811943,-8.78384 10.902302,-6.70152 20.721509,-15.07956 29.449977,-24.41619 3.85401,-4.21233 7.580051,-8.60663 10.469451,-13.54886 1.73977,-3.071631 3.11506,-6.614189 2.63662,-10.201499 -0.45986,-2.889731 -2.52482,-5.361459 -5.1603,-6.564571 -3.34652,-1.713647 -7.171404,-2.127385 -10.876986,-2.211886 z" />
    <path
       id="path1067"
       style="fill:#ff0000;fill-opacity:1;stroke:none;stroke-width:0.264583px;stroke-linecap:butt;stroke-linejoin:miter;stroke-opacity:1"
       d="m 119.78711,81.511719 c -4.22025,0.25195 -8.71346,0.99621 -12.03458,3.823511 -2.51322,2.187592 -3.35947,5.858311 -2.51205,9.02035 1.08391,4.891318 4.13092,9.02187 7.13881,12.9114 6.61533,8.37517 14.412,15.76542 22.73852,22.4168 7.38748,5.83362 15.34845,11.04447 24.02121,14.75982 4.87671,2.05101 10.13111,3.37646 15.45158,3.2097 5.86089,-0.0577 11.84646,-1.0586 17.07832,-3.80408 3.37509,-1.80893 6.43931,-4.82503 7.11624,-8.73049 0.66887,-3.58735 -0.60683,-7.21333 -2.47436,-10.24096 -2.96843,-4.89892 -7.27931,-8.79565 -11.66175,-12.40573 -8.51591,-6.85896 -18.04727,-12.3261 -27.73892,-17.331112 -9.10954,-4.641658 -18.50222,-8.777459 -28.22967,-11.945054 -2.8817,-0.866442 -5.849,-1.815791 -8.89335,-1.684155 z" />
    <path
       sodipodi:nodetypes="ccc"
       inkscape:connector-curvature="0"
       id="path1069"
       d="m 120.41372,85.686465 20.11042,-20.277641 23.49497,-4.965495"
       style="fill:none;stroke:#ff0000;stroke-width:13.2292;stroke-linecap:round;stroke-linejoin:miter;stroke-miterlimit:4;stroke-dasharray:none;stroke-opacity:1" />
    <path
       sodipodi:nodetypes="ccc"
       inkscape:connector-curvature="0"
       id="path1071"
       d="m 115.66493,112.58856 23.89351,30.37702 9.11241,48.80435"
       style="fill:none;stroke:#ff0000;stroke-width:13.2292;stroke-linecap:round;stroke-linejoin:miter;stroke-miterlimit:4;stroke-dasharray:none;stroke-opacity:1" />
    <path
       sodipodi:nodetypes="ccc"
       inkscape:connector-curvature="0"
       id="path1073"
       d="M 177.17138,86.044565 153.72325,83.438417 124.49591,95.422065"
       style="fill:none;stroke:#ff0000;stroke-width:13.2292;stroke-linecap:round;stroke-linejoin:miter;stroke-miterlimit:4;stroke-dasharray:none;stroke-opacity:1" />
    <path
       style="fill:none;stroke:#ff0000;stroke-width:7.9375;stroke-linecap:round;stroke-linejoin:miter;stroke-miterlimit:4;stroke-dasharray:none;stroke-opacity:1"
       d="m 125.07652,36.989161 c -13.36305,8.138562 -9.57575,10.238932 -13.98512,17.386906"
       id="path1075"
       inkscape:connector-curvature="0"
       sodipodi:nodetypes="cc" />
    <path
       sodipodi:nodetypes="ccc"
       inkscape:connector-curvature="0"
       id="path1077"
       d="M 91.413034,85.686465 71.302614,65.408824 47.807643,60.443329"
       style="fill:none;stroke:#ff0000;stroke-width:13.2292;stroke-linecap:round;stroke-linejoin:miter;stroke-miterlimit:4;stroke-dasharray:none;stroke-opacity:1" />
    <path
       sodipodi:nodetypes="ccc"
       inkscape:connector-curvature="0"
       id="path1079"
       d="m 96.161824,112.58856 -23.89351,30.37702 -9.112411,48.80435"
       style="fill:none;stroke:#ff0000;stroke-width:13.2292;stroke-linecap:round;stroke-linejoin:miter;stroke-miterlimit:4;stroke-dasharray:none;stroke-opacity:1" />
    <path
       sodipodi:nodetypes="ccc"
       inkscape:connector-curvature="0"
       id="path1081"
       d="m 34.655373,86.044565 23.44813,-2.606148 29.227341,11.983648"
       style="fill:none;stroke:#ff0000;stroke-width:13.2292;stroke-linecap:round;stroke-linejoin:miter;stroke-miterlimit:4;stroke-dasharray:none;stroke-opacity:1" />
    <path
       style="fill:none;stroke:#ff0000;stroke-width:7.9375;stroke-linecap:round;stroke-linejoin:miter;stroke-miterlimit:4;stroke-dasharray:none;stroke-opacity:1"
       d="m 86.750234,36.989161 c 13.363046,8.138562 9.57575,10.238932 13.985116,17.386906"
       id="path1083"
       inkscape:connector-curvature="0"
       sodipodi:nodetypes="cc" />
  </g>
  <g
     inkscape:label="Bee"
     inkscape:groupmode="layer"
     id="layer1"
     transform="translate(0,-32.41665)"
     style="display:inline">
    <path
       id="path10"
       style="stroke-width:0.186385"
       d="M 120.38543,65.489571 A 14.552083,14.552083 0 0 1 105.83334,80.041654 14.552083,14.552083 0 0 1 91.28126,65.489571 14.552083,14.552083 0 0 1 105.83334,50.937488 14.552083,14.552083 0 0 1 120.38543,65.489571 Z" />
    <path
       id="path12"
       style="stroke-width:0.22203"
       d="m 124.35418,101.20832 a 18.520834,26.458334 0 0 1 -18.52084,26.45833 18.520834,26.458334 0 0 1 -18.52083,-26.45833 18.520834,26.458334 0 0 1 18.52083,-26.458333 18.520834,26.458334 0 0 1 18.52084,26.458333 z" />
    <path
       style="stroke-width:0.856863"
       clip-path="none"
       d="m 400,310.13986 c -24.9703,0.0711 -65.79297,49.26985 -65.79297,77.78397 43.88337,-18.52144 87.76701,-18.5123 131.65039,0.0273 0,-31.59925 -40.86221,-77.76288 -65.85742,-77.81127 z m 0,103.87967 c -28.00192,0 -56.00393,7.55046 -84.00586,22.64063 -3.17108,13.87176 -5.08912,28.45122 -5.69141,43.26172 59.82822,-15.97705 119.65615,-15.96962 179.48438,0.0234 -0.60429,-14.80273 -2.52297,-29.37413 -5.69336,-43.23828 C 456.0624,421.58514 428.03134,414.01953 400,414.01953 Z m 88.09961,106.47461 c -58.70503,15.39781 -117.41022,15.40463 -176.11523,0.0215 1.85499,14.83542 5.04814,29.11668 9.4707,42.35743 52.39386,12.25204 104.78777,12.2449 157.18164,-0.0215 4.41984,-13.2415 7.61035,-27.52273 9.46289,-42.35742 z m -32.07617,86.88867 c -37.29567,6.22071 -74.59106,6.22832 -111.88672,0.0254 C 360.02064,628.45817 379.70679,639.94348 400,640 c 20.34996,-0.003 40.09854,-11.50122 56.02344,-32.61719 z"
       id="path14"
       sodipodi:nodetypes="ccccsccccscccccccccc"
       transform="matrix(0.26458333,0,0,0.26458333,0,32.41665)" />
    <g
       transform="matrix(0.90699503,0,0,1.2511875,82.716849,-1.7481335)"
       style="stroke-width:0.938721"
       id="g4730" />
    <g
       transform="matrix(0.90699503,0,0,1.2511875,82.716849,-1.7481335)"
       id="g952">
      <g
         id="g950" />
    </g>
    <path
       style="fill:#000000;fill-opacity:1;stroke:none;stroke-width:0.264583px;stroke-linecap:butt;stroke-linejoin:miter;stroke-opacity:1"
       d="M 91.116907,83.070287 C 83.13428,82.849432 38.163315,101.57331 20.928845,120.28077 3.6943754,138.98823 23.896341,147.0915 40.53736,145.97681 57.178378,144.86212 84.355309,124.22222 98.95535,105.22969 113.5554,86.237199 99.099534,83.291142 91.116907,83.070287 Z"
       id="path20"
       inkscape:connector-curvature="0"
       sodipodi:nodetypes="zzzzz" />
    <path
       sodipodi:nodetypes="zzzzz"
       inkscape:connector-curvature="0"
       id="path4752"
       d="m 120.61832,83.070287 c 7.98262,-0.220855 52.9536,18.503023 70.18811,37.210483 17.23447,18.70746 -2.9675,26.81073 -19.60856,25.69604 -16.64102,-1.11469 -43.81796,-21.75459 -58.418,-40.74712 -14.599994,-18.992491 -0.14418,-21.938548 7.83845,-22.159403 z"
       style="fill:#000000;fill-opacity:1;stroke:none;stroke-width:0.264583px;stroke-linecap:butt;stroke-linejoin:miter;stroke-opacity:1" />
    <path
       sodipodi:nodetypes="ccc"
       inkscape:connector-curvature="0"
       id="path4754"
       d="m 120.41372,85.686465 20.11042,-20.277641 23.49497,-4.965495"
       style="fill:none;stroke:#000000;stroke-width:10.5833;stroke-linecap:round;stroke-linejoin:miter;stroke-miterlimit:4;stroke-dasharray:none;stroke-opacity:1" />
    <path
       sodipodi:nodetypes="ccc"
       inkscape:connector-curvature="0"
       id="path4756"
       d="m 115.66493,112.58856 23.89351,30.37702 9.11241,48.80435"
       style="fill:none;stroke:#000000;stroke-width:10.5833;stroke-linecap:round;stroke-linejoin:miter;stroke-miterlimit:4;stroke-dasharray:none;stroke-opacity:1" />
    <path
       sodipodi:nodetypes="ccc"
       inkscape:connector-curvature="0"
       id="path4758"
       d="M 177.17138,86.044565 153.72325,83.438417 124.49591,95.422065"
       style="fill:none;stroke:#000000;stroke-width:10.5833;stroke-linecap:round;stroke-linejoin:miter;stroke-miterlimit:4;stroke-dasharray:none;stroke-opacity:1" />
    <path
       style="fill:none;stroke:#000000;stroke-width:5.29167;stroke-linecap:round;stroke-linejoin:miter;stroke-miterlimit:4;stroke-dasharray:none;stroke-opacity:1"
       d="m 125.07652,36.989161 c -13.36305,8.138562 -9.57575,10.238932 -13.98512,17.386906"
       id="path4760"
       inkscape:connector-curvature="0"
       sodipodi:nodetypes="cc" />
    <path
       sodipodi:nodetypes="ccc"
       inkscape:connector-curvature="0"
       id="path1043"
       d="M 91.413034,85.686465 71.302614,65.408824 47.807643,60.443329"
       style="fill:none;stroke:#000000;stroke-width:10.5833;stroke-linecap:round;stroke-linejoin:miter;stroke-miterlimit:4;stroke-dasharray:none;stroke-opacity:1" />
    <path
       sodipodi:nodetypes="ccc"
       inkscape:connector-curvature="0"
       id="path1045"
       d="m 96.161824,112.58856 -23.89351,30.37702 -9.112411,48.80435"
       style="fill:none;stroke:#000000;stroke-width:10.5833;stroke-linecap:round;stroke-linejoin:miter;stroke-miterlimit:4;stroke-dasharray:none;stroke-opacity:1" />
    <path
       sodipodi:nodetypes="ccc"
       inkscape:connector-curvature="0"
       id="path1047"
       d="m 34.655373,86.044565 23.44813,-2.606148 29.227341,11.983648"
       style="fill:none;stroke:#000000;stroke-width:10.5833;stroke-linecap:round;stroke-linejoin:miter;stroke-miterlimit:4;stroke-dasharray:none;stroke-opacity:1" />
    <path
       style="fill:none;stroke:#000000;stroke-width:5.29167;stroke-linecap:round;stroke-linejoin:miter;stroke-miterlimit:4;stroke-dasharray:none;stroke-opacity:1"
       d="m 86.750234,36.989161 c 13.363046,8.138562 9.57575,10.238932 13.985116,17.386906"
       id="path1049"
       inkscape:connector-curvature="0"
       sodipodi:nodetypes="cc" />
  </g>
</svg>
