<?xml version="1.0" encoding="UTF-8" standalone="no"?>
<svg
   xmlns:dc="http://purl.org/dc/elements/1.1/"
   xmlns:cc="http://creativecommons.org/ns#"
   xmlns:rdf="http://www.w3.org/1999/02/22-rdf-syntax-ns#"
   xmlns:svg="http://www.w3.org/2000/svg"
   xmlns="http://www.w3.org/2000/svg"
   xmlns:sodipodi="http://sodipodi.sourceforge.net/DTD/sodipodi-0.dtd"
   xmlns:inkscape="http://www.inkscape.org/namespaces/inkscape"
   width="1000"
   height="1000"
   viewBox="0 0 264.58333 264.58334"
   version="1.1"
   id="svg8"
   inkscape:version="1.0.1 (c497b03c, 2020-09-10)"
   sodipodi:docname="bee-inner.svg"
   inkscape:export-filename="/Users/tass/bee.png"
   inkscape:export-xdpi="96"
   inkscape:export-ydpi="96">
  <defs
     id="defs2" />
  <sodipodi:namedview
     id="base"
     pagecolor="#ffffff"
     bordercolor="#666666"
     borderopacity="1.0"
     inkscape:pageopacity="0.0"
     inkscape:pageshadow="2"
     inkscape:zoom="1.5162318"
     inkscape:cx="530.6004"
     inkscape:cy="333.18895"
     inkscape:document-units="px"
     inkscape:current-layer="layer1"
     showgrid="false"
     showguides="false"
     inkscape:guide-bbox="true"
     inkscape:lockguides="false"
     units="px"
     inkscape:window-width="2560"
     inkscape:window-height="1396"
     inkscape:window-x="0"
     inkscape:window-y="22"
     inkscape:window-maximized="1"
     inkscape:document-rotation="0">
    <sodipodi:guide
       position="105.83333,0"
       orientation="1,0"
       id="guide954"
       inkscape:locked="false"
       inkscape:label=""
       inkscape:color="rgb(0,0,255)" />
    <sodipodi:guide
       position="97.895834,0"
       orientation="1,0"
       id="guide4710"
       inkscape:locked="false"
       inkscape:label=""
       inkscape:color="rgb(0,0,255)" />
    <sodipodi:guide
       position="113.77083,0"
       orientation="1,0"
       id="guide4712"
       inkscape:locked="false"
       inkscape:label=""
       inkscape:color="rgb(0,0,255)" />
  </sodipodi:namedview>
  <metadata
     id="metadata5">
    <rdf:RDF>
      <cc:Work
         rdf:about="">
        <dc:format>image/svg+xml</dc:format>
        <dc:type
           rdf:resource="http://purl.org/dc/dcmitype/StillImage" />
        <dc:title></dc:title>
      </cc:Work>
    </rdf:RDF>
  </metadata>
  <g
     inkscape:label="Bee"
     inkscape:groupmode="layer"
     id="layer1"
     transform="translate(0,-32.41665)"
     style="display:inline">
    <path
       id="path10"
       style="stroke-width:0.186385"
       d="M 120.38543,65.489571 A 14.552083,14.552083 0 0 1 105.83334,80.041654 14.552083,14.552083 0 0 1 91.28126,65.489571 14.552083,14.552083 0 0 1 105.83334,50.937488 14.552083,14.552083 0 0 1 120.38543,65.489571 Z" />
    <path
       id="path12"
       style="stroke-width:0.22203"
       d="m 124.35418,101.20832 a 18.520834,26.458334 0 0 1 -18.52084,26.45833 18.520834,26.458334 0 0 1 -18.52083,-26.45833 18.520834,26.458334 0 0 1 18.52083,-26.458333 18.520834,26.458334 0 0 1 18.52084,26.458333 z" />
    <path
       style="stroke-width:0.856863"
       clip-path="none"
       d="m 400,310.13986 c -24.9703,0.0711 -65.79297,49.26985 -65.79297,77.78397 43.88337,-18.52144 87.76701,-18.5123 131.65039,0.0273 0,-31.59925 -40.86221,-77.76288 -65.85742,-77.81127 z m 0,103.87967 c -28.00192,0 -56.00393,7.55046 -84.00586,22.64063 -3.17108,13.87176 -5.08912,28.45122 -5.69141,43.26172 59.82822,-15.97705 119.65615,-15.96962 179.48438,0.0234 -0.60429,-14.80273 -2.52297,-29.37413 -5.69336,-43.23828 C 456.0624,421.58514 428.03134,414.01953 400,414.01953 Z m 88.09961,106.47461 c -58.70503,15.39781 -117.41022,15.40463 -176.11523,0.0215 1.85499,14.83542 5.04814,29.11668 9.4707,42.35743 52.39386,12.25204 104.78777,12.2449 157.18164,-0.0215 4.41984,-13.2415 7.61035,-27.52273 9.46289,-42.35742 z m -32.07617,86.88867 c -37.29567,6.22071 -74.59106,6.22832 -111.88672,0.0254 C 360.02064,628.45817 379.70679,639.94348 400,640 c 20.34996,-0.003 40.09854,-11.50122 56.02344,-32.61719 z"
       id="path14"
       sodipodi:nodetypes="ccccsccccscccccccccc"
       transform="matrix(0.26458333,0,0,0.26458333,0,32.41665)" />
    <g
       transform="matrix(0.90699503,0,0,1.2511875,82.716849,-1.7481335)"
       style="stroke-width:0.938721"
       id="g4730" />
    <g
       transform="matrix(0.90699503,0,0,1.2511875,82.716849,-1.7481335)"
       id="g952">
      <g
         id="g950" />
    </g>
    <path
       style="fill:#000000;fill-opacity:1;stroke:none;stroke-width:0.264583px;stroke-linecap:butt;stroke-linejoin:miter;stroke-opacity:1"
       d="M 91.116907,83.070287 C 83.13428,82.849432 38.163315,101.57331 20.928845,120.28077 3.6943754,138.98823 23.896341,147.0915 40.53736,145.97681 57.178378,144.86212 84.355309,124.22222 98.95535,105.22969 113.5554,86.237199 99.099534,83.291142 91.116907,83.070287 Z"
       id="path20"
       inkscape:connector-curvature="0"
       sodipodi:nodetypes="zzzzz" />
    <path
       sodipodi:nodetypes="zzzzz"
       inkscape:connector-curvature="0"
       id="path4752"
       d="m 120.61832,83.070287 c 7.98262,-0.220855 52.9536,18.503023 70.18811,37.210483 17.23447,18.70746 -2.9675,26.81073 -19.60856,25.69604 -16.64102,-1.11469 -43.81796,-21.75459 -58.418,-40.74712 -14.599994,-18.992491 -0.14418,-21.938548 7.83845,-22.159403 z"
       style="fill:#000000;fill-opacity:1;stroke:none;stroke-width:0.264583px;stroke-linecap:butt;stroke-linejoin:miter;stroke-opacity:1" />
    <path
       sodipodi:nodetypes="ccc"
       inkscape:connector-curvature="0"
       id="path4754"
       d="m 120.41372,85.686465 20.11042,-20.277641 23.49497,-4.965495"
       style="fill:none;stroke:#000000;stroke-width:10.5833;stroke-linecap:round;stroke-linejoin:miter;stroke-miterlimit:4;stroke-dasharray:none;stroke-opacity:1" />
    <path
       sodipodi:nodetypes="ccc"
       inkscape:connector-curvature="0"
       id="path4756"
       d="m 115.66493,112.58856 23.89351,30.37702 9.11241,48.80435"
       style="fill:none;stroke:#000000;stroke-width:10.5833;stroke-linecap:round;stroke-linejoin:miter;stroke-miterlimit:4;stroke-dasharray:none;stroke-opacity:1" />
    <path
       sodipodi:nodetypes="ccc"
       inkscape:connector-curvature="0"
       id="path4758"
       d="M 177.17138,86.044565 153.72325,83.438417 124.49591,95.422065"
       style="fill:none;stroke:#000000;stroke-width:10.5833;stroke-linecap:round;stroke-linejoin:miter;stroke-miterlimit:4;stroke-dasharray:none;stroke-opacity:1" />
    <path
       style="fill:none;stroke:#000000;stroke-width:5.29167;stroke-linecap:round;stroke-linejoin:miter;stroke-miterlimit:4;stroke-dasharray:none;stroke-opacity:1"
       d="m 125.07652,36.989161 c -13.36305,8.138562 -9.57575,10.238932 -13.98512,17.386906"
       id="path4760"
       inkscape:connector-curvature="0"
       sodipodi:nodetypes="cc" />
    <path
       sodipodi:nodetypes="ccc"
       inkscape:connector-curvature="0"
       id="path1043"
       d="M 91.413034,85.686465 71.302614,65.408824 47.807643,60.443329"
       style="fill:none;stroke:#000000;stroke-width:10.5833;stroke-linecap:round;stroke-linejoin:miter;stroke-miterlimit:4;stroke-dasharray:none;stroke-opacity:1" />
    <path
       sodipodi:nodetypes="ccc"
       inkscape:connector-curvature="0"
       id="path1045"
       d="m 96.161824,112.58856 -23.89351,30.37702 -9.112411,48.80435"
       style="fill:none;stroke:#000000;stroke-width:10.5833;stroke-linecap:round;stroke-linejoin:miter;stroke-miterlimit:4;stroke-dasharray:none;stroke-opacity:1" />
    <path
       sodipodi:nodetypes="ccc"
       inkscape:connector-curvature="0"
       id="path1047"
       d="m 34.655373,86.044565 23.44813,-2.606148 29.227341,11.983648"
       style="fill:none;stroke:#000000;stroke-width:10.5833;stroke-linecap:round;stroke-linejoin:miter;stroke-miterlimit:4;stroke-dasharray:none;stroke-opacity:1" />
    <path
       style="fill:none;stroke:#000000;stroke-width:5.29167;stroke-linecap:round;stroke-linejoin:miter;stroke-miterlimit:4;stroke-dasharray:none;stroke-opacity:1"
       d="m 86.750234,36.989161 c 13.363046,8.138562 9.57575,10.238932 13.985116,17.386906"
       id="path1049"
       inkscape:connector-curvature="0"
       sodipodi:nodetypes="cc" />
  </g>
</svg>
