<?xml version="1.0" encoding="UTF-8" standalone="no"?>
<svg
   xmlns:dc="http://purl.org/dc/elements/1.1/"
   xmlns:cc="http://creativecommons.org/ns#"
   xmlns:rdf="http://www.w3.org/1999/02/22-rdf-syntax-ns#"
   xmlns:svg="http://www.w3.org/2000/svg"
   xmlns="http://www.w3.org/2000/svg"
   xmlns:sodipodi="http://sodipodi.sourceforge.net/DTD/sodipodi-0.dtd"
   xmlns:inkscape="http://www.inkscape.org/namespaces/inkscape"
   width="300"
   height="700"
   viewBox="0 0 79.374999 185.20834"
   version="1.1"
   id="svg8"
   inkscape:version="1.0.1 (c497b03c, 2020-09-10)"
   sodipodi:docname="beetle-tile.svg"
   inkscape:export-filename="/Users/tass/bee.png"
   inkscape:export-xdpi="96"
   inkscape:export-ydpi="96">
  <defs
     id="defs2" />
  <sodipodi:namedview
     id="base"
     pagecolor="#ffffff"
     bordercolor="#666666"
     borderopacity="1.0"
     inkscape:pageopacity="0.0"
     inkscape:pageshadow="2"
     inkscape:zoom="0.69927601"
     inkscape:cx="481.0779"
     inkscape:cy="464.16024"
     inkscape:document-units="px"
     inkscape:current-layer="layer1"
     showgrid="false"
     showguides="false"
     inkscape:guide-bbox="true"
     inkscape:lockguides="false"
     units="px"
     inkscape:window-width="1860"
     inkscape:window-height="1287"
     inkscape:window-x="0"
     inkscape:window-y="22"
     inkscape:window-maximized="0"
     inkscape:document-rotation="0">
    <sodipodi:guide
       position="105.83333,0"
       orientation="1,0"
       id="guide954"
       inkscape:locked="false"
       inkscape:label=""
       inkscape:color="rgb(0,0,255)" />
    <sodipodi:guide
       position="97.895834,0"
       orientation="1,0"
       id="guide4710"
       inkscape:locked="false"
       inkscape:label=""
       inkscape:color="rgb(0,0,255)" />
    <sodipodi:guide
       position="113.77083,0"
       orientation="1,0"
       id="guide4712"
       inkscape:locked="false"
       inkscape:label=""
       inkscape:color="rgb(0,0,255)" />
  </sodipodi:namedview>
  <metadata
     id="metadata5">
    <rdf:RDF>
      <cc:Work
         rdf:about="">
        <dc:format>image/svg+xml</dc:format>
        <dc:type
           rdf:resource="http://purl.org/dc/dcmitype/StillImage" />
        <dc:title></dc:title>
      </cc:Work>
    </rdf:RDF>
  </metadata>
  <g
     inkscape:label="tile"
     inkscape:groupmode="layer"
     id="g1085"
     transform="translate(0,-32.41665)"
     style="display:inline">
    <g
       transform="matrix(0.90699641,0,0,1.2511449,82.716975,12.277335)"
       style="stroke-width:0.938721"
       id="g1059" />
    <g
       transform="matrix(0.90699641,0,0,1.2511449,82.716975,12.277335)"
       id="g1063">
      <g
         id="g1061" />
    </g>
    <path
       id="path874"
       style="fill:#ff0000;fill-opacity:1;stroke-width:13.5278"
       d="m -0.8176953,78.085095 c -7.5643216,0.179994 -15.3339437,2.159926 -21.3641827,6.899765 -3.667805,2.9199 -6.48217,7.34975 -6.389009,12.159586 0.0893,4.909834 3.079734,9.359684 6.96223,12.179584 5.826459,4.39985 13.2235601,6.21979 20.4262611,6.45978 7.5879415,0.20999 15.3969539,-1.48995 21.7835329,-5.7098 3.878856,-2.61992 7.174091,-6.59978 7.848442,-11.349618 C 29.02784,94.584533 27.434678,90.334678 24.603493,87.31478 20.488317,82.724937 14.565028,80.215022 8.639309,78.955065 5.5341543,78.305087 2.3529095,78.045096 -0.8176953,78.085095 Z" />
    <path
       id="path880"
       style="fill:#ff0000;fill-opacity:1;stroke:none;stroke-width:0.264579px;stroke-linecap:butt;stroke-linejoin:miter;stroke-opacity:1"
       d="m -33.063834,123.80353 c -2.057563,0.27999 -4.460367,0.69998 -5.652349,2.60992 -1.538942,2.38991 -1.575482,5.33981 -1.816723,8.07972 -0.39335,7.51974 0.218511,15.04949 0.395251,22.56923 0.1787,5.04983 0.22402,10.09966 0.17928,15.14949 1.910553,9.64967 7.222061,18.32937 13.857271,25.46913 6.34993,6.86976 14.282272,12.20958 22.9259851,15.75946 0.0116,-24.20917 -0.0504,-48.41835 0.0579,-72.62753 0.2603504,-1.72994 0.674241,-3.81987 2.37871362,-4.69984 1.45575221,-0.62997 3.13269468,-0.70997 4.51259678,-1.48994 0.7392612,-0.56999 0.4958708,-1.89994 -0.4634907,-2.05993 -4.09785616,-1.47995 -8.4395428,-2.00994 -12.6583192,-3.0099 -6.3451796,-1.35996 -12.7191896,-2.59991 -19.0307186,-4.09986 -1.500772,-0.61998 -2.936895,-1.77994 -4.685417,-1.64995 z" />
    <path
       id="path882"
       style="fill:#ff0000;fill-opacity:1;stroke:none;stroke-width:0.264579px;stroke-linecap:butt;stroke-linejoin:miter;stroke-opacity:1"
       d="m -27.913436,103.15424 c -2.900365,0.28999 -5.042748,2.63991 -6.41005,5.02983 -3.573276,6.18979 -3.115855,14.23951 0.548601,20.27931 0.46462,1.00996 1.508372,1.61994 2.593714,1.66994 7.836021,1.70994 15.639183,3.57988 23.5023152,5.15982 3.265575,0.22 6.53112,0.42999 9.7967149,0.64998 0,-10.08966 0,-20.17931 0,-30.26897 -10.0094852,-0.84997 -20.0186701,-1.74994 -30.0312951,-2.51991 z" />
    <path
       style="fill:none;stroke:#ff0000;stroke-width:13.229;stroke-linecap:round;stroke-linejoin:miter;stroke-miterlimit:4;stroke-dasharray:none;stroke-opacity:1"
       d="M -29.93744,115.56381 -51.903793,105.55416 -59.979665,75.835171"
       id="path886"
       sodipodi:nodetypes="ccc" />
    <path
       style="fill:none;stroke:#ff0000;stroke-width:13.229;stroke-linecap:round;stroke-linejoin:miter;stroke-miterlimit:4;stroke-dasharray:none;stroke-opacity:1"
       d="m -22.397378,135.79313 -29.321755,5.46981 -18.997469,31.00894"
       id="path888"
       sodipodi:nodetypes="ccc" />
    <path
       style="fill:none;stroke:#ff0000;stroke-width:13.229;stroke-linecap:round;stroke-linejoin:miter;stroke-miterlimit:4;stroke-dasharray:none;stroke-opacity:1"
       d="m -26.135554,163.19219 -21.707173,14.6495 -2.660994,29.84899"
       id="path890"
       sodipodi:nodetypes="ccc" />
    <path
       id="path863"
       style="fill:#ff0000;fill-opacity:1;stroke:none;stroke-width:0.264579px;stroke-linecap:butt;stroke-linejoin:miter;stroke-opacity:1"
       d="m 32.574936,123.81353 c -2.111874,0.11 -3.674676,1.88994 -5.781369,2.02993 -9.303404,2.06993 -18.6696287,3.85987 -27.9572029,5.9998 -0.9732215,0.20999 -2.2166833,0.84997 -2.0466331,2.02993 0.2109203,1.29996 1.6876726,1.63995 2.78515429,1.82994 1.1176717,0.23999 2.22943331,0.83997 2.65019401,1.95993 1.3960921,2.73991 0.8340113,5.9098 0.9494214,8.8597 0,22.29924 0,44.59848 0,66.90772 14.0694413,-5.6698 26.1065903,-16.42944 32.9222103,-30.01898 1.831553,-3.74987 3.346275,-7.72973 3.903546,-11.87959 -0.396061,-12.44958 1.019261,-24.87915 0.527601,-37.31873 -0.165281,-2.8399 -0.449451,-5.8798 -2.118924,-8.27972 -1.316472,-1.50995 -3.439265,-1.88993 -5.332418,-2.11993 -0.16712,0 -0.33455,0 -0.50158,0 z" />
    <path
       id="path865"
       style="fill:#ff0000;fill-opacity:1;stroke:none;stroke-width:0.264579px;stroke-linecap:butt;stroke-linejoin:miter;stroke-opacity:1"
       d="m 27.346418,103.14424 c -9.820995,0.83997 -19.6418604,1.68994 -29.4629353,2.52991 0,10.08966 0,20.18931 0,30.27897 4.0168761,-0.40999 8.0949023,-0.27999 12.0776984,-1.07996 7.6728119,-1.70994 15.3446229,-3.42989 23.0180549,-5.13983 4.107646,-5.9098 5.114168,-14.06952 1.863473,-20.58929 -1.276142,-2.62991 -3.361705,-5.18983 -6.3166,-5.9198 -0.38906,-0.1 -0.784831,-0.1 -1.179691,-0.1 z" />
    <path
       style="fill:none;stroke:#ff0000;stroke-width:13.229;stroke-linecap:round;stroke-linejoin:miter;stroke-miterlimit:4;stroke-dasharray:none;stroke-opacity:1"
       d="M 29.937472,115.56381 51.903825,105.55416 59.979697,75.835171"
       id="path869"
       sodipodi:nodetypes="ccc" />
    <path
       style="fill:none;stroke:#ff0000;stroke-width:13.229;stroke-linecap:round;stroke-linejoin:miter;stroke-miterlimit:4;stroke-dasharray:none;stroke-opacity:1"
       d="m 22.39741,135.79313 29.321755,5.46981 18.997479,31.00894"
       id="path871"
       sodipodi:nodetypes="ccc" />
    <path
       style="fill:none;stroke:#ff0000;stroke-width:13.229;stroke-linecap:round;stroke-linejoin:miter;stroke-miterlimit:4;stroke-dasharray:none;stroke-opacity:1"
       d="m 26.135586,163.19219 21.707173,14.6495 2.661004,29.84899"
       id="path873"
       sodipodi:nodetypes="ccc" />
    <path
       id="path1234"
       style="display:inline;fill:#ff0000;fill-opacity:1;stroke:none;stroke-width:0.264579px;stroke-linecap:butt;stroke-linejoin:miter;stroke-opacity:1"
       d="m 15.94991,33.326619 c -0.965391,0.169994 -1.056081,1.419951 -0.584311,2.119928 0.501851,1.519948 1.554603,3.189891 0.816732,4.819835 -0.708771,0.999966 -2.096964,1.029965 -3.126035,1.549948 -0.925432,0.169994 -0.742221,0.489983 -0.0224,0.87997 1.047291,0.85997 2.679834,1.45995 2.876024,2.979898 -0.0382,1.46995 -1.241972,2.509915 -2.137743,3.52988 3.235705,2.039931 6.4747,4.68984 7.596572,8.50971 0.949741,3.179892 0.952701,6.629775 0.12995,9.839665 -1.581543,5.389817 -5.294498,9.799667 -8.963354,13.919526 -0.970441,1.069964 -1.957853,2.119928 -2.9370045,3.189892 4.9174475,3.399884 9.8361455,6.799768 14.7539325,10.199652 4.883227,-3.959865 7.583732,-10.019658 8.607003,-16.109451 1.350192,-7.719737 0.885261,-15.719465 -1.017151,-23.309206 -1.883463,-6.919765 -5.794899,-13.189551 -10.880197,-18.21938 -1.376962,-1.399952 -2.808674,-2.799905 -4.488967,-3.82987 -0.19893,-0.1 -0.41297,-0.1 -0.623051,-0.1 z" />
    <path
       id="path1236"
       style="display:inline;fill:#ff0000;fill-opacity:1;stroke:none;stroke-width:0.264579px;stroke-linecap:butt;stroke-linejoin:miter;stroke-opacity:1"
       d="m -15.251307,32.466648 c -0.779721,0.339988 -1.424282,0.999966 -2.150803,1.45995 -2.741965,2.109928 -5.088208,4.689841 -7.279512,7.35975 -3.831555,4.799836 -6.58599,10.469643 -7.805511,16.499438 -1.351482,6.349784 -1.587303,12.949559 -0.737992,19.38934 0.824172,5.879799 2.910465,11.849596 7.180071,16.119451 0.539581,0.549981 1.112712,1.059964 1.682403,1.569946 4.921877,-3.399884 9.842865,-6.799768 14.7637023,-10.199652 -4.0538763,-4.369852 -8.3515923,-8.879698 -10.8535363,-14.289514 -0.899981,-1.879936 -1.464742,-3.879868 -1.594653,-6.009795 -0.12884,-2.329921 0.0214,-4.629842 0.745272,-6.879766 1.072101,-3.339886 3.781435,-5.809802 6.64139,-7.679738 0.42777,-0.319989 1.274112,-0.59998 0.46776,-1.059964 -0.913271,-0.969967 -2.104963,-2.279923 -1.552542,-3.709874 0.767461,-1.299956 2.281154,-1.859937 3.348365,-2.859903 0.0904,-0.27999 -0.921921,-0.389986 -1.262612,-0.599979 -1.020661,-0.359988 -2.551324,-0.59998 -2.730174,-1.899935 -0.23703,-2.009932 1.038552,-3.749873 1.484072,-5.639808 0.230451,-0.509983 0.576591,-1.269957 -0.0859,-1.619945 -0.0866,0 -0.17318,0 -0.25977,0 z" />
  </g>
  <g
     inkscape:label="bug"
     inkscape:groupmode="layer"
     id="layer1"
     transform="translate(0,-32.41665)"
     style="display:inline">
    <g
       transform="matrix(0.90699503,0,0,1.2511875,-181.8665,12.269943)"
       style="stroke-width:0.938721"
       id="g4730" />
    <g
       transform="matrix(0.90699503,0,0,1.2511875,-181.8665,12.269943)"
       id="g952">
      <g
         id="g950" />
    </g>
    <g
       transform="matrix(0.90699503,0,0,1.2511875,-181.8665,12.269943)"
       style="display:inline;stroke-width:0.938721"
       id="g875" />
    <g
       transform="matrix(0.90699503,0,0,1.2511875,-181.8665,12.269943)"
       id="g879"
       style="display:inline">
      <g
         id="g877" />
    </g>
    <ellipse
       style="display:inline;fill:#000000;fill-opacity:1;stroke-width:13.528"
       id="ellipse881"
       cx="-4.2378451e-06"
       cy="96.945854"
       rx="26.458334"
       ry="16.752094" />
    <path
       style="display:inline;fill:#000000;fill-opacity:1;stroke:none;stroke-width:0.264583px;stroke-linecap:butt;stroke-linejoin:miter;stroke-opacity:1"
       d="M -1.7743705e-5,133.68502 -27.689068,127.8591 c -4.71554,-1.14087 -3.17376,-3.00599 -8.38809,-1.1541 -4.65742,2.39808 -1.20718,26.46447 -1.81077,45.07787 2.74365,14.65109 15.77391,30.85675 32.5962303,38.39012 l 1e-5,-69.11365 c 0.51182,-4.71184 2.37758,-6.98658 5.291669956295,-7.37432 z"
       id="path883"
       sodipodi:nodetypes="ccccccc" />
    <path
       style="display:inline;fill:#000000;fill-opacity:1;stroke:none;stroke-width:0.264583px;stroke-linecap:butt;stroke-linejoin:miter;stroke-opacity:1"
       d="M -1.7743705e-5,107.61796 -27.255418,105.27882 c -4.30998,-0.67824 -11.55021,11.13576 -4.40237,22.58028 l 23.7202703,5.30242 7.937499956295,0.5235 z"
       id="path885"
       sodipodi:nodetypes="cccccc" />
    <path
       style="display:inline;fill:none;stroke:#000000;stroke-width:10.5833;stroke-linecap:round;stroke-linejoin:miter;stroke-miterlimit:4;stroke-dasharray:none;stroke-opacity:1"
       d="m -29.937428,115.56404 -21.96632,-10.01406 -8.07586,-29.719145"
       id="path889"
       sodipodi:nodetypes="ccc" />
    <path
       style="display:inline;fill:none;stroke:#000000;stroke-width:10.5833;stroke-linecap:round;stroke-linejoin:miter;stroke-miterlimit:4;stroke-dasharray:none;stroke-opacity:1"
       d="m -22.397378,135.79665 -29.32171,5.47182 -18.99744,31.01127"
       id="path891"
       sodipodi:nodetypes="ccc" />
    <path
       style="display:inline;fill:none;stroke:#000000;stroke-width:10.5833;stroke-linecap:round;stroke-linejoin:miter;stroke-miterlimit:4;stroke-dasharray:none;stroke-opacity:1"
       d="m -26.135548,163.19937 -21.70714,14.64883 -2.66099,29.84214"
       id="path893"
       sodipodi:nodetypes="ccc" />
    <path
       style="display:inline;fill:#000000;fill-opacity:1;stroke:none;stroke-width:0.264583px;stroke-linecap:butt;stroke-linejoin:miter;stroke-opacity:1"
       d="M -1.7743705e-5,133.68502 27.689032,127.8591 c 4.71554,-1.14087 3.17376,-3.00599 8.38809,-1.1541 4.65742,2.39808 1.20718,26.46447 1.81077,45.07787 -2.74365,14.65109 -15.77391,30.85675 -32.5962297,38.39012 l -10e-6,-69.11365 c -0.51182,-4.71184 -2.37758,-6.98658 -5.291670043705,-7.37432 z"
       id="path895"
       sodipodi:nodetypes="ccccccc" />
    <path
       style="display:inline;fill:#000000;fill-opacity:1;stroke:none;stroke-width:0.264583px;stroke-linecap:butt;stroke-linejoin:miter;stroke-opacity:1"
       d="M -1.7743705e-5,107.61796 27.255382,105.27882 c 4.30998,-0.67824 11.55021,11.13576 4.40237,22.58028 l -23.7202697,5.30242 -7.937500043705,0.5235 z"
       id="path897"
       sodipodi:nodetypes="cccccc" />
    <path
       style="display:inline;fill:#000000;fill-opacity:1;stroke:none;stroke-width:0.264583px;stroke-linecap:butt;stroke-linejoin:miter;stroke-opacity:1"
       d="m 24.222092,92.844156 c 7.91557,-7.028212 8.82521,-20.793518 7.31175,-31.449252 -1.38154,-9.726911 -5.3807,-17.699264 -14.40412,-25.714089 0,0 2.83363,5.459354 -1.54711,6.894777 3.95511,2.734325 0.57204,6.33741 0.57204,6.33741 6.77603,4.584123 7.69676,9.680818 7.49298,15.379851 -0.27672,7.738867 -7.12276,15.264525 -11.64058,20.104641 z"
       id="path899"
       sodipodi:nodetypes="cacccacc" />
    <path
       style="display:inline;fill:none;stroke:#000000;stroke-width:10.5833;stroke-linecap:round;stroke-linejoin:miter;stroke-miterlimit:4;stroke-dasharray:none;stroke-opacity:1"
       d="m 29.937392,115.56404 21.96632,-10.01406 8.07586,-29.719145"
       id="path901"
       sodipodi:nodetypes="ccc" />
    <path
       style="display:inline;fill:none;stroke:#000000;stroke-width:10.5833;stroke-linecap:round;stroke-linejoin:miter;stroke-miterlimit:4;stroke-dasharray:none;stroke-opacity:1"
       d="m 22.397342,135.79665 29.32171,5.47182 18.99745,31.01127"
       id="path903"
       sodipodi:nodetypes="ccc" />
    <path
       style="display:inline;fill:none;stroke:#000000;stroke-width:10.5833;stroke-linecap:round;stroke-linejoin:miter;stroke-miterlimit:4;stroke-dasharray:none;stroke-opacity:1"
       d="m 26.135512,163.19937 21.70714,14.64883 2.661,29.84214"
       id="path905"
       sodipodi:nodetypes="ccc" />
    <path
       style="display:inline;fill:#000000;fill-opacity:1;stroke:none;stroke-width:0.264583px;stroke-linecap:butt;stroke-linejoin:miter;stroke-opacity:1"
       d="m -24.222128,92.844156 c -7.91557,-7.028212 -8.82521,-20.793518 -7.31175,-31.449252 1.38154,-9.726911 5.3807,-17.699264 14.40412,-25.714089 0,0 -2.83363,5.459541 1.54711,6.894964 -3.95511,2.734325 -0.57204,6.337223 -0.57204,6.337223 -6.77603,4.584123 -7.69676,9.680818 -7.49298,15.379851 0.27672,7.738867 7.12276,15.264525 11.64058,20.104641 z"
       id="path1150"
       sodipodi:nodetypes="cacccacc" />
  </g>
</svg>
