<?xml version="1.0" encoding="UTF-8" standalone="no"?>
<svg
   xmlns:dc="http://purl.org/dc/elements/1.1/"
   xmlns:cc="http://creativecommons.org/ns#"
   xmlns:rdf="http://www.w3.org/1999/02/22-rdf-syntax-ns#"
   xmlns:svg="http://www.w3.org/2000/svg"
   xmlns="http://www.w3.org/2000/svg"
   xmlns:sodipodi="http://sodipodi.sourceforge.net/DTD/sodipodi-0.dtd"
   xmlns:inkscape="http://www.inkscape.org/namespaces/inkscape"
   width="1000"
   height="1000"
   viewBox="0 0 264.58333 264.58334"
   version="1.1"
   id="svg8"
   inkscape:version="1.0.1 (c497b03c, 2020-09-10)"
   sodipodi:docname="beetle-tile.svg"
   inkscape:export-filename="/Users/tass/bee.png"
   inkscape:export-xdpi="96"
   inkscape:export-ydpi="96">
  <defs
     id="defs2" />
  <sodipodi:namedview
     id="base"
     pagecolor="#ffffff"
     bordercolor="#666666"
     borderopacity="1.0"
     inkscape:pageopacity="0.0"
     inkscape:pageshadow="2"
     inkscape:zoom="1.4679718"
     inkscape:cx="739.8309"
     inkscape:cy="352.80313"
     inkscape:document-units="px"
     inkscape:current-layer="g1085"
     showgrid="false"
     showguides="false"
     inkscape:guide-bbox="true"
     inkscape:lockguides="false"
     units="px"
     inkscape:window-width="2560"
     inkscape:window-height="1396"
     inkscape:window-x="0"
     inkscape:window-y="22"
     inkscape:window-maximized="1"
     inkscape:document-rotation="0">
    <sodipodi:guide
       position="105.83333,0"
       orientation="1,0"
       id="guide954"
       inkscape:locked="false"
       inkscape:label=""
       inkscape:color="rgb(0,0,255)" />
    <sodipodi:guide
       position="97.895834,0"
       orientation="1,0"
       id="guide4710"
       inkscape:locked="false"
       inkscape:label=""
       inkscape:color="rgb(0,0,255)" />
    <sodipodi:guide
       position="113.77083,0"
       orientation="1,0"
       id="guide4712"
       inkscape:locked="false"
       inkscape:label=""
       inkscape:color="rgb(0,0,255)" />
  </sodipodi:namedview>
  <metadata
     id="metadata5">
    <rdf:RDF>
      <cc:Work
         rdf:about="">
        <dc:format>image/svg+xml</dc:format>
        <dc:type
           rdf:resource="http://purl.org/dc/dcmitype/StillImage" />
        <dc:title />
      </cc:Work>
    </rdf:RDF>
  </metadata>
  <g
     inkscape:label="tile"
     inkscape:groupmode="layer"
     id="g1085"
     transform="translate(0,-32.41665)"
     style="display:inline">
    <g
       transform="matrix(0.90699503,0,0,1.2511875,82.716849,-1.7481335)"
       style="stroke-width:0.938721"
       id="g1059" />
    <g
       transform="matrix(0.90699503,0,0,1.2511875,82.716849,-1.7481335)"
       id="g1063">
      <g
         id="g1061" />
    </g>
    <path
       id="path874"
       style="fill:#ff0000;fill-opacity:1;stroke-width:13.528"
       d="m 263.76562,64.070312 c -7.56431,0.176434 -15.33392,2.160868 -21.36415,6.895779 -3.6678,2.919035 -6.48216,7.35165 -6.389,12.161216 0.0893,4.908763 3.07973,9.360778 6.96222,12.181162 5.82645,4.402789 13.22354,6.217511 20.42623,6.456511 7.58793,0.21136 15.39693,-1.48742 21.7835,-5.706846 3.87885,-2.624621 7.17408,-6.601804 7.84843,-11.354752 0.57826,-4.141254 -1.0149,-8.390559 -3.84608,-11.409836 -4.11517,-4.585442 -10.03845,-7.099486 -15.96416,-8.354671 -3.10515,-0.654157 -6.28639,-0.913136 -9.45699,-0.868563 z" />
    <path
       id="path880"
       style="fill:#ff0000;fill-opacity:1;stroke:none;stroke-width:0.26458300000000001px;stroke-linecap:butt;stroke-linejoin:miter;stroke-opacity:1"
       d="m 231.51953,109.78711 c -2.05756,0.28426 -4.46036,0.69991 -5.65234,2.61328 -1.53894,2.38753 -1.57548,5.34094 -1.81672,8.07822 -0.39335,7.52181 0.21851,15.04666 0.39525,22.56646 0.1787,5.04751 0.22402,10.10218 0.17928,15.15024 1.91055,9.65144 7.22205,18.33061 13.85725,25.47032 6.34992,6.87204 14.28225,12.2159 22.92595,15.76601 0.0116,-24.21032 -0.0504,-48.4237 0.0579,-72.63208 0.26035,-1.7356 0.67424,-3.81991 2.37871,-4.70577 1.45575,-0.62805 3.13269,-0.7029 4.51259,-1.48832 0.73926,-0.57047 0.49587,-1.89681 -0.46349,-2.06211 -4.09785,-1.4789 -8.43953,-2.00518 -12.6583,-3.00614 -6.34517,-1.35565 -12.71917,-2.60261 -19.03069,-4.09805 -1.50077,-0.61976 -2.93689,-1.77797 -4.68541,-1.65206 z" />
    <path
       id="path882"
       style="fill:#ff0000;fill-opacity:1;stroke:none;stroke-width:0.26458300000000001px;stroke-linecap:butt;stroke-linejoin:miter;stroke-opacity:1"
       d="m 236.66992,89.132812 c -2.90036,0.294978 -5.04274,2.640496 -6.41004,5.036059 -3.57327,6.186679 -3.11585,14.238889 0.5486,20.278899 0.46462,1.00421 1.50837,1.61618 2.59371,1.66634 7.83601,1.71658 15.63916,3.58266 23.50228,5.16202 3.26557,0.21583 6.53111,0.43223 9.7967,0.6477 0,-10.08985 0,-20.17969 0,-30.269533 -10.00947,-0.844256 -20.01864,-1.751069 -30.03125,-2.521485 z" />
    <path
       id="path884"
       style="fill:#ff0000;fill-opacity:1;stroke:none;stroke-width:0.26458300000000001px;stroke-linecap:butt;stroke-linejoin:miter;stroke-opacity:1"
       d="m 250.21094,14.445312 c -2.68072,1.85564 -5.37065,3.763731 -7.50063,6.263163 -6.40073,6.850921 -10.33335,15.819151 -11.56757,25.077314 -1.00161,6.946656 -1.05449,14.098618 0.41384,20.983315 1.17606,5.215278 3.58431,10.341611 7.6766,13.890925 0.35913,0.586657 1.214,0.925867 1.72602,0.32606 4.94191,-3.418005 9.88446,-6.835074 14.82596,-10.253667 -4.39577,-4.775273 -9.04946,-9.600453 -11.54823,-15.698497 -1.04687,-2.558543 -1.4042,-5.348322 -1.24307,-8.097561 0.0961,-4.379107 1.66572,-8.938183 5.12664,-11.789296 1.08602,-0.941745 2.31145,-1.701144 3.49669,-2.508396 -0.89665,-1.11462 -2.34101,-2.080409 -2.38672,-3.642578 0.23811,-1.159037 1.39538,-1.583318 2.27356,-2.273774 0.41311,-0.433526 1.34447,-0.654416 1.20094,-1.394022 -0.31898,-0.725017 -1.27764,-0.70697 -1.91322,-1.021462 -0.71543,-0.257318 -1.61582,-0.372707 -2.02222,-1.152539 -0.37051,-1.90514 0.90004,-3.570824 1.33131,-5.352928 0.47893,-1.435033 0.95812,-2.869979 1.43627,-4.305275 -0.44206,0.316406 -0.88412,0.632812 -1.32617,0.949218 z" />
    <path
       style="fill:none;stroke:#ff0000;stroke-width:13.22916675;stroke-linecap:round;stroke-linejoin:miter;stroke-miterlimit:4;stroke-dasharray:none;stroke-opacity:1"
       d="M 234.64592,101.54596 212.6796,91.5319 204.60374,61.812758"
       id="path886"
       sodipodi:nodetypes="ccc" />
    <path
       style="fill:none;stroke:#ff0000;stroke-width:13.22916675;stroke-linecap:round;stroke-linejoin:miter;stroke-miterlimit:4;stroke-dasharray:none;stroke-opacity:1"
       d="m 242.18597,121.77857 -29.32171,5.47182 -21.64329,31.01127"
       id="path888"
       sodipodi:nodetypes="ccc" />
    <path
       style="fill:none;stroke:#ff0000;stroke-width:13.22916675;stroke-linecap:round;stroke-linejoin:miter;stroke-miterlimit:4;stroke-dasharray:none;stroke-opacity:1"
       d="m 238.4478,149.18129 -21.70714,14.64883 -5.30683,29.84214"
       id="path890"
       sodipodi:nodetypes="ccc" />
    <path
       id="path863"
       style="fill:#ff0000;fill-opacity:1;stroke:none;stroke-width:0.26458300000000001px;stroke-linecap:butt;stroke-linejoin:miter;stroke-opacity:1"
       d="m 297.1582,109.79492 c -2.11187,0.11334 -3.67467,1.89365 -5.78136,2.03673 -9.30339,2.06816 -18.6696,3.85726 -27.95716,5.99088 -0.97322,0.21138 -2.21668,0.85021 -2.04663,2.03099 0.21092,1.30708 1.68767,1.63873 2.78515,1.83789 1.11767,0.23193 2.22943,0.83926 2.65019,1.95964 1.39609,2.73801 0.83401,5.90203 0.94942,8.85286 0,22.30338 0,44.60677 0,66.91015 14.06942,-5.66235 26.10655,-16.4277 32.92216,-30.01441 1.83155,-3.75324 3.34627,-7.72946 3.90354,-11.88439 -0.39606,-12.44485 1.01926,-24.87547 0.5276,-37.3182 -0.16528,-2.84047 -0.44945,-5.8768 -2.11892,-8.27714 -1.31647,-1.5157 -3.43926,-1.88963 -5.33241,-2.119 -0.16712,-1.3e-4 -0.33455,-0.0114 -0.50158,-0.006 z" />
    <path
       id="path865"
       style="fill:#ff0000;fill-opacity:1;stroke:none;stroke-width:0.26458300000000001px;stroke-linecap:butt;stroke-linejoin:miter;stroke-opacity:1"
       d="m 291.92969,89.125 c -9.82098,0.84291 -19.64183,1.68734 -29.46289,2.529297 0,10.095703 0,20.191403 0,30.287113 4.01687,-0.41325 8.09489,-0.28417 12.07768,-1.08431 7.6728,-1.71352 15.3446,-3.43157 23.01802,-5.14226 4.10764,-5.91022 5.11416,-14.06418 1.86347,-20.585888 -1.27614,-2.631826 -3.3617,-5.188669 -6.31659,-5.921921 -0.38906,-0.07034 -0.78483,-0.09625 -1.17969,-0.08203 z" />
    <path
       id="path867"
       style="fill:#ff0000;fill-opacity:1;stroke:none;stroke-width:0.26458300000000001px;stroke-linecap:butt;stroke-linejoin:miter;stroke-opacity:1"
       d="m 278.13281,15.097656 c 0.71681,2.232524 1.58049,4.417467 2.28683,6.650043 0.19286,0.774729 0.10214,1.856379 -0.80558,2.115037 -0.81763,0.456373 -2.10335,0.378246 -2.52422,1.354061 -0.33548,0.955364 0.61675,1.671302 1.36131,2.043773 0.7975,0.521111 1.90016,1.379771 1.37507,2.463922 -0.49005,1.168837 -1.49711,1.996195 -2.28716,2.955196 2.4824,1.420244 4.76894,3.280915 6.27309,5.672742 2.13601,3.431366 2.57338,7.62892 2.30504,11.58507 -0.12585,1.557621 -0.44845,3.319333 -1.08144,4.847279 -2.4849,6.208434 -7.20555,11.115976 -11.64903,15.953502 5.19395,3.591232 10.38831,7.181875 15.58203,10.773438 5.06301,-3.980851 7.92814,-10.170305 8.96814,-16.418216 1.45568,-8.408787 0.88832,-17.101078 -1.1194,-25.369771 -2.28714,-8.629749 -7.07973,-16.682359 -13.94893,-22.437759 -1.68126,-1.326449 -3.48979,-2.476651 -5.25333,-3.688317 0.17253,0.5 0.34506,1 0.51758,1.5 z" />
    <path
       style="fill:none;stroke:#ff0000;stroke-width:13.22916675;stroke-linecap:round;stroke-linejoin:miter;stroke-miterlimit:4;stroke-dasharray:none;stroke-opacity:1"
       d="M 294.52074,101.54596 316.48706,91.5319 324.56292,61.812758"
       id="path869"
       sodipodi:nodetypes="ccc" />
    <path
       style="fill:none;stroke:#ff0000;stroke-width:13.22916675;stroke-linecap:round;stroke-linejoin:miter;stroke-miterlimit:4;stroke-dasharray:none;stroke-opacity:1"
       d="m 286.98069,121.77857 29.32171,5.47182 21.64329,31.01127"
       id="path871"
       sodipodi:nodetypes="ccc" />
    <path
       style="fill:none;stroke:#ff0000;stroke-width:13.22916675;stroke-linecap:round;stroke-linejoin:miter;stroke-miterlimit:4;stroke-dasharray:none;stroke-opacity:1"
       d="m 290.71886,149.18129 21.70714,14.64883 5.30683,29.84214"
       id="path873"
       sodipodi:nodetypes="ccc" />
  </g>
  <g
     inkscape:label="bug"
     inkscape:groupmode="layer"
     id="layer1"
     transform="translate(0,-32.41665)"
     style="display:inline">
    <g
       transform="matrix(0.90699503,0,0,1.2511875,82.716849,-1.7481335)"
       style="stroke-width:0.938721"
       id="g4730" />
    <g
       transform="matrix(0.90699503,0,0,1.2511875,82.716849,-1.7481335)"
       id="g952">
      <g
         id="g950" />
    </g>
    <g
       transform="matrix(0.90699503,0,0,1.2511875,82.716849,-1.7481335)"
       style="display:inline;stroke-width:0.938721"
       id="g875" />
    <g
       transform="matrix(0.90699503,0,0,1.2511875,82.716849,-1.7481335)"
       id="g879"
       style="display:inline">
      <g
         id="g877" />
    </g>
    <ellipse
       style="display:inline;fill:#000000;fill-opacity:1;stroke-width:13.528"
       id="ellipse881"
       cx="264.58334"
       cy="82.92778"
       rx="26.458334"
       ry="16.752094" />
    <path
       style="display:inline;fill:#000000;fill-opacity:1;stroke:none;stroke-width:0.264583px;stroke-linecap:butt;stroke-linejoin:miter;stroke-opacity:1"
       d="m 264.58333,119.66694 -27.68905,-5.82592 c -4.71554,-1.14087 -3.17376,-3.00599 -8.38809,-1.1541 -4.65742,2.39808 -1.20718,26.46447 -1.81077,45.07787 2.74365,14.65109 15.77391,30.85675 32.59623,38.39012 l 10e-6,-69.11365 c 0.51182,-4.71184 2.37758,-6.98658 5.29167,-7.37432 z"
       id="path883"
       sodipodi:nodetypes="ccccccc" />
    <path
       style="display:inline;fill:#000000;fill-opacity:1;stroke:none;stroke-width:0.264583px;stroke-linecap:butt;stroke-linejoin:miter;stroke-opacity:1"
       d="m 264.58333,93.599883 -27.2554,-2.339139 c -4.30998,-0.678242 -11.55021,11.135756 -4.40237,22.580276 l 23.72027,5.30242 7.9375,0.5235 z"
       id="path885"
       sodipodi:nodetypes="cccccc" />
    <path
       style="display:inline;fill:#000000;fill-opacity:1;stroke:none;stroke-width:0.264583px;stroke-linecap:butt;stroke-linejoin:miter;stroke-opacity:1"
       d="m 240.36122,78.826079 c -7.91557,-7.028212 -8.60828,-20.764952 -7.31175,-31.449252 1.27725,-10.525511 5.3807,-20.345027 14.40412,-28.359852 0,0 -2.83363,5.459354 1.54711,6.894777 -3.95511,2.734325 -0.57204,6.33741 -0.57204,6.33741 -6.77603,4.584123 -7.9185,11.532558 -7.49298,18.025614 0.50639,7.727238 7.12276,15.264525 11.64058,20.104641 z"
       id="path887"
       sodipodi:nodetypes="cacccacc" />
    <path
       style="display:inline;fill:none;stroke:#000000;stroke-width:10.5833;stroke-linecap:round;stroke-linejoin:miter;stroke-miterlimit:4;stroke-dasharray:none;stroke-opacity:1"
       d="M 234.64592,101.54596 212.6796,91.5319 204.60374,61.812758"
       id="path889"
       sodipodi:nodetypes="ccc" />
    <path
       style="display:inline;fill:none;stroke:#000000;stroke-width:10.5833;stroke-linecap:round;stroke-linejoin:miter;stroke-miterlimit:4;stroke-dasharray:none;stroke-opacity:1"
       d="m 242.18597,121.77857 -29.32171,5.47182 -21.64329,31.01127"
       id="path891"
       sodipodi:nodetypes="ccc" />
    <path
       style="display:inline;fill:none;stroke:#000000;stroke-width:10.5833;stroke-linecap:round;stroke-linejoin:miter;stroke-miterlimit:4;stroke-dasharray:none;stroke-opacity:1"
       d="m 238.4478,149.18129 -21.70714,14.64883 -5.30683,29.84214"
       id="path893"
       sodipodi:nodetypes="ccc" />
    <path
       style="display:inline;fill:#000000;fill-opacity:1;stroke:none;stroke-width:0.264583px;stroke-linecap:butt;stroke-linejoin:miter;stroke-opacity:1"
       d="m 264.58333,119.66694 27.68905,-5.82592 c 4.71554,-1.14087 3.17376,-3.00599 8.38809,-1.1541 4.65742,2.39808 1.20718,26.46447 1.81077,45.07787 -2.74365,14.65109 -15.77391,30.85675 -32.59623,38.39012 l -10e-6,-69.11365 c -0.51182,-4.71184 -2.37758,-6.98658 -5.29167,-7.37432 z"
       id="path895"
       sodipodi:nodetypes="ccccccc" />
    <path
       style="display:inline;fill:#000000;fill-opacity:1;stroke:none;stroke-width:0.264583px;stroke-linecap:butt;stroke-linejoin:miter;stroke-opacity:1"
       d="m 264.58333,93.599883 27.2554,-2.339139 c 4.30998,-0.678242 11.55021,11.135756 4.40237,22.580276 l -23.72027,5.30242 -7.9375,0.5235 z"
       id="path897"
       sodipodi:nodetypes="cccccc" />
    <path
       style="display:inline;fill:#000000;fill-opacity:1;stroke:none;stroke-width:0.264583px;stroke-linecap:butt;stroke-linejoin:miter;stroke-opacity:1"
       d="m 288.80544,78.826079 c 7.91557,-7.028212 8.60828,-20.764952 7.31175,-31.449252 -1.27725,-10.525511 -5.3807,-20.345027 -14.40412,-28.359852 0,0 2.83363,5.459354 -1.54711,6.894777 3.95511,2.734325 0.57204,6.33741 0.57204,6.33741 6.77603,4.584123 7.9185,11.532558 7.49298,18.025614 -0.50639,7.727238 -7.12276,15.264525 -11.64058,20.104641 z"
       id="path899"
       sodipodi:nodetypes="cacccacc" />
    <path
       style="display:inline;fill:none;stroke:#000000;stroke-width:10.5833;stroke-linecap:round;stroke-linejoin:miter;stroke-miterlimit:4;stroke-dasharray:none;stroke-opacity:1"
       d="M 294.52074,101.54596 316.48706,91.5319 324.56292,61.812758"
       id="path901"
       sodipodi:nodetypes="ccc" />
    <path
       style="display:inline;fill:none;stroke:#000000;stroke-width:10.5833;stroke-linecap:round;stroke-linejoin:miter;stroke-miterlimit:4;stroke-dasharray:none;stroke-opacity:1"
       d="m 286.98069,121.77857 29.32171,5.47182 21.64329,31.01127"
       id="path903"
       sodipodi:nodetypes="ccc" />
    <path
       style="display:inline;fill:none;stroke:#000000;stroke-width:10.5833;stroke-linecap:round;stroke-linejoin:miter;stroke-miterlimit:4;stroke-dasharray:none;stroke-opacity:1"
       d="m 290.71886,149.18129 21.70714,14.64883 5.30683,29.84214"
       id="path905"
       sodipodi:nodetypes="ccc" />
  </g>
</svg>
