<?xml version="1.0" encoding="UTF-8" standalone="no"?>
<svg
   xmlns:dc="http://purl.org/dc/elements/1.1/"
   xmlns:cc="http://creativecommons.org/ns#"
   xmlns:rdf="http://www.w3.org/1999/02/22-rdf-syntax-ns#"
   xmlns:svg="http://www.w3.org/2000/svg"
   xmlns="http://www.w3.org/2000/svg"
   xmlns:sodipodi="http://sodipodi.sourceforge.net/DTD/sodipodi-0.dtd"
   xmlns:inkscape="http://www.inkscape.org/namespaces/inkscape"
   width="1000"
   height="1000"
   viewBox="0 0 264.58333 264.58334"
   version="1.1"
   id="svg8"
   inkscape:version="1.0.1 (c497b03c, 2020-09-10)"
   sodipodi:docname="beetle.svg"
   inkscape:export-filename="/Users/tass/bee.png"
   inkscape:export-xdpi="96"
   inkscape:export-ydpi="96">
  <defs
     id="defs2" />
  <sodipodi:namedview
     id="base"
     pagecolor="#ffffff"
     bordercolor="#666666"
     borderopacity="1.0"
     inkscape:pageopacity="0.0"
     inkscape:pageshadow="2"
     inkscape:zoom="1.4679718"
     inkscape:cx="739.8309"
     inkscape:cy="352.80313"
     inkscape:document-units="px"
     inkscape:current-layer="layer1"
     showgrid="false"
     showguides="false"
     inkscape:guide-bbox="true"
     inkscape:lockguides="false"
     units="px"
     inkscape:window-width="2560"
     inkscape:window-height="1396"
     inkscape:window-x="0"
     inkscape:window-y="22"
     inkscape:window-maximized="1"
     inkscape:document-rotation="0">
    <sodipodi:guide
       position="105.83333,0"
       orientation="1,0"
       id="guide954"
       inkscape:locked="false"
       inkscape:label=""
       inkscape:color="rgb(0,0,255)" />
    <sodipodi:guide
       position="97.895834,0"
       orientation="1,0"
       id="guide4710"
       inkscape:locked="false"
       inkscape:label=""
       inkscape:color="rgb(0,0,255)" />
    <sodipodi:guide
       position="113.77083,0"
       orientation="1,0"
       id="guide4712"
       inkscape:locked="false"
       inkscape:label=""
       inkscape:color="rgb(0,0,255)" />
  </sodipodi:namedview>
  <metadata
     id="metadata5">
    <rdf:RDF>
      <cc:Work
         rdf:about="">
        <dc:format>image/svg+xml</dc:format>
        <dc:type
           rdf:resource="http://purl.org/dc/dcmitype/StillImage" />
        <dc:title></dc:title>
      </cc:Work>
    </rdf:RDF>
  </metadata>
  <g
     inkscape:label="bug"
     inkscape:groupmode="layer"
     id="layer1"
     transform="translate(0,-32.41665)"
     style="display:inline">
    <g
       transform="matrix(0.90699503,0,0,1.2511875,82.716849,-1.7481335)"
       style="stroke-width:0.938721"
       id="g4730" />
    <g
       transform="matrix(0.90699503,0,0,1.2511875,82.716849,-1.7481335)"
       id="g952">
      <g
         id="g950" />
    </g>
    <g
       transform="matrix(0.90699503,0,0,1.2511875,82.716849,-1.7481335)"
       style="display:inline;stroke-width:0.938721"
       id="g875" />
    <g
       transform="matrix(0.90699503,0,0,1.2511875,82.716849,-1.7481335)"
       id="g879"
       style="display:inline">
      <g
         id="g877" />
    </g>
    <ellipse
       style="display:inline;fill:#000000;fill-opacity:1;stroke-width:13.528"
       id="ellipse881"
       cx="264.58334"
       cy="82.92778"
       rx="26.458334"
       ry="16.752094" />
    <path
       style="display:inline;fill:#000000;fill-opacity:1;stroke:none;stroke-width:0.264583px;stroke-linecap:butt;stroke-linejoin:miter;stroke-opacity:1"
       d="m 264.58333,119.66694 -27.68905,-5.82592 c -4.71554,-1.14087 -3.17376,-3.00599 -8.38809,-1.1541 -4.65742,2.39808 -1.20718,26.46447 -1.81077,45.07787 2.74365,14.65109 15.77391,30.85675 32.59623,38.39012 l 10e-6,-69.11365 c 0.51182,-4.71184 2.37758,-6.98658 5.29167,-7.37432 z"
       id="path883"
       sodipodi:nodetypes="ccccccc" />
    <path
       style="display:inline;fill:#000000;fill-opacity:1;stroke:none;stroke-width:0.264583px;stroke-linecap:butt;stroke-linejoin:miter;stroke-opacity:1"
       d="m 264.58333,93.599883 -27.2554,-2.339139 c -4.30998,-0.678242 -11.55021,11.135756 -4.40237,22.580276 l 23.72027,5.30242 7.9375,0.5235 z"
       id="path885"
       sodipodi:nodetypes="cccccc" />
    <path
       style="display:inline;fill:#000000;fill-opacity:1;stroke:none;stroke-width:0.264583px;stroke-linecap:butt;stroke-linejoin:miter;stroke-opacity:1"
       d="m 240.36122,78.826079 c -7.91557,-7.028212 -8.60828,-20.764952 -7.31175,-31.449252 1.27725,-10.525511 5.3807,-20.345027 14.40412,-28.359852 0,0 -2.83363,5.459354 1.54711,6.894777 -3.95511,2.734325 -0.57204,6.33741 -0.57204,6.33741 -6.77603,4.584123 -7.9185,11.532558 -7.49298,18.025614 0.50639,7.727238 7.12276,15.264525 11.64058,20.104641 z"
       id="path887"
       sodipodi:nodetypes="cacccacc" />
    <path
       style="display:inline;fill:none;stroke:#000000;stroke-width:10.5833;stroke-linecap:round;stroke-linejoin:miter;stroke-miterlimit:4;stroke-dasharray:none;stroke-opacity:1"
       d="M 234.64592,101.54596 212.6796,91.5319 204.60374,61.812758"
       id="path889"
       sodipodi:nodetypes="ccc" />
    <path
       style="display:inline;fill:none;stroke:#000000;stroke-width:10.5833;stroke-linecap:round;stroke-linejoin:miter;stroke-miterlimit:4;stroke-dasharray:none;stroke-opacity:1"
       d="m 242.18597,121.77857 -29.32171,5.47182 -21.64329,31.01127"
       id="path891"
       sodipodi:nodetypes="ccc" />
    <path
       style="display:inline;fill:none;stroke:#000000;stroke-width:10.5833;stroke-linecap:round;stroke-linejoin:miter;stroke-miterlimit:4;stroke-dasharray:none;stroke-opacity:1"
       d="m 238.4478,149.18129 -21.70714,14.64883 -5.30683,29.84214"
       id="path893"
       sodipodi:nodetypes="ccc" />
    <path
       style="display:inline;fill:#000000;fill-opacity:1;stroke:none;stroke-width:0.264583px;stroke-linecap:butt;stroke-linejoin:miter;stroke-opacity:1"
       d="m 264.58333,119.66694 27.68905,-5.82592 c 4.71554,-1.14087 3.17376,-3.00599 8.38809,-1.1541 4.65742,2.39808 1.20718,26.46447 1.81077,45.07787 -2.74365,14.65109 -15.77391,30.85675 -32.59623,38.39012 l -10e-6,-69.11365 c -0.51182,-4.71184 -2.37758,-6.98658 -5.29167,-7.37432 z"
       id="path895"
       sodipodi:nodetypes="ccccccc" />
    <path
       style="display:inline;fill:#000000;fill-opacity:1;stroke:none;stroke-width:0.264583px;stroke-linecap:butt;stroke-linejoin:miter;stroke-opacity:1"
       d="m 264.58333,93.599883 27.2554,-2.339139 c 4.30998,-0.678242 11.55021,11.135756 4.40237,22.580276 l -23.72027,5.30242 -7.9375,0.5235 z"
       id="path897"
       sodipodi:nodetypes="cccccc" />
    <path
       style="display:inline;fill:#000000;fill-opacity:1;stroke:none;stroke-width:0.264583px;stroke-linecap:butt;stroke-linejoin:miter;stroke-opacity:1"
       d="m 288.80544,78.826079 c 7.91557,-7.028212 8.60828,-20.764952 7.31175,-31.449252 -1.27725,-10.525511 -5.3807,-20.345027 -14.40412,-28.359852 0,0 2.83363,5.459354 -1.54711,6.894777 3.95511,2.734325 0.57204,6.33741 0.57204,6.33741 6.77603,4.584123 7.9185,11.532558 7.49298,18.025614 -0.50639,7.727238 -7.12276,15.264525 -11.64058,20.104641 z"
       id="path899"
       sodipodi:nodetypes="cacccacc" />
    <path
       style="display:inline;fill:none;stroke:#000000;stroke-width:10.5833;stroke-linecap:round;stroke-linejoin:miter;stroke-miterlimit:4;stroke-dasharray:none;stroke-opacity:1"
       d="M 294.52074,101.54596 316.48706,91.5319 324.56292,61.812758"
       id="path901"
       sodipodi:nodetypes="ccc" />
    <path
       style="display:inline;fill:none;stroke:#000000;stroke-width:10.5833;stroke-linecap:round;stroke-linejoin:miter;stroke-miterlimit:4;stroke-dasharray:none;stroke-opacity:1"
       d="m 286.98069,121.77857 29.32171,5.47182 21.64329,31.01127"
       id="path903"
       sodipodi:nodetypes="ccc" />
    <path
       style="display:inline;fill:none;stroke:#000000;stroke-width:10.5833;stroke-linecap:round;stroke-linejoin:miter;stroke-miterlimit:4;stroke-dasharray:none;stroke-opacity:1"
       d="m 290.71886,149.18129 21.70714,14.64883 5.30683,29.84214"
       id="path905"
       sodipodi:nodetypes="ccc" />
  </g>
</svg>
