<?xml version="1.0" encoding="UTF-8" standalone="no"?>
<svg
   xmlns:dc="http://purl.org/dc/elements/1.1/"
   xmlns:cc="http://creativecommons.org/ns#"
   xmlns:rdf="http://www.w3.org/1999/02/22-rdf-syntax-ns#"
   xmlns:svg="http://www.w3.org/2000/svg"
   xmlns="http://www.w3.org/2000/svg"
   xmlns:sodipodi="http://sodipodi.sourceforge.net/DTD/sodipodi-0.dtd"
   xmlns:inkscape="http://www.inkscape.org/namespaces/inkscape"
   width="1000"
   height="1000"
   viewBox="0 0 264.58333 264.58334"
   version="1.1"
   id="svg8"
   inkscape:version="1.0.1 (c497b03c, 2020-09-10)"
   sodipodi:docname="beetle-tile.svg"
   inkscape:export-filename="/Users/tass/bee.png"
   inkscape:export-xdpi="96"
   inkscape:export-ydpi="96">
  <defs
     id="defs2" />
  <sodipodi:namedview
     id="base"
     pagecolor="#ffffff"
     bordercolor="#666666"
     borderopacity="1.0"
     inkscape:pageopacity="0.0"
     inkscape:pageshadow="2"
     inkscape:zoom="1.4679718"
     inkscape:cx="916.91934"
     inkscape:cy="310.56525"
     inkscape:document-units="px"
     inkscape:current-layer="layer1"
     showgrid="false"
     showguides="false"
     inkscape:guide-bbox="true"
     inkscape:lockguides="false"
     units="px"
     inkscape:window-width="1860"
     inkscape:window-height="1287"
     inkscape:window-x="0"
     inkscape:window-y="22"
     inkscape:window-maximized="0"
     inkscape:document-rotation="0">
    <sodipodi:guide
       position="105.83333,0"
       orientation="1,0"
       id="guide954"
       inkscape:locked="false"
       inkscape:label=""
       inkscape:color="rgb(0,0,255)" />
    <sodipodi:guide
       position="97.895834,0"
       orientation="1,0"
       id="guide4710"
       inkscape:locked="false"
       inkscape:label=""
       inkscape:color="rgb(0,0,255)" />
    <sodipodi:guide
       position="113.77083,0"
       orientation="1,0"
       id="guide4712"
       inkscape:locked="false"
       inkscape:label=""
       inkscape:color="rgb(0,0,255)" />
  </sodipodi:namedview>
  <metadata
     id="metadata5">
    <rdf:RDF>
      <cc:Work
         rdf:about="">
        <dc:format>image/svg+xml</dc:format>
        <dc:type
           rdf:resource="http://purl.org/dc/dcmitype/StillImage" />
        <dc:title />
      </cc:Work>
    </rdf:RDF>
  </metadata>
  <g
     inkscape:label="tile"
     inkscape:groupmode="layer"
     id="g1085"
     transform="translate(0,-32.41665)"
     style="display:inline">
    <g
       transform="matrix(0.90699503,0,0,1.2511875,82.716849,-1.7481335)"
       style="stroke-width:0.938721"
       id="g1059" />
    <g
       transform="matrix(0.90699503,0,0,1.2511875,82.716849,-1.7481335)"
       id="g1063">
      <g
         id="g1061" />
    </g>
    <path
       id="path874"
       style="fill:#ff0000;fill-opacity:1;stroke-width:13.528"
       d="m 263.76562,64.070312 c -7.56431,0.176434 -15.33392,2.160868 -21.36415,6.895779 -3.6678,2.919035 -6.48216,7.35165 -6.389,12.161216 0.0893,4.908763 3.07973,9.360778 6.96222,12.181162 5.82645,4.402789 13.22354,6.217511 20.42623,6.456511 7.58793,0.21136 15.39693,-1.48742 21.7835,-5.706846 3.87885,-2.624621 7.17408,-6.601804 7.84843,-11.354752 0.57826,-4.141254 -1.0149,-8.390559 -3.84608,-11.409836 -4.11517,-4.585442 -10.03845,-7.099486 -15.96416,-8.354671 -3.10515,-0.654157 -6.28639,-0.913136 -9.45699,-0.868563 z" />
    <path
       id="path880"
       style="fill:#ff0000;fill-opacity:1;stroke:none;stroke-width:0.264583px;stroke-linecap:butt;stroke-linejoin:miter;stroke-opacity:1"
       d="m 231.51953,109.78711 c -2.05756,0.28426 -4.46036,0.69991 -5.65234,2.61328 -1.53894,2.38753 -1.57548,5.34094 -1.81672,8.07822 -0.39335,7.52181 0.21851,15.04666 0.39525,22.56646 0.1787,5.04751 0.22402,10.10218 0.17928,15.15024 1.91055,9.65144 7.22205,18.33061 13.85725,25.47032 6.34992,6.87204 14.28225,12.2159 22.92595,15.76601 0.0116,-24.21032 -0.0504,-48.4237 0.0579,-72.63208 0.26035,-1.7356 0.67424,-3.81991 2.37871,-4.70577 1.45575,-0.62805 3.13269,-0.7029 4.51259,-1.48832 0.73926,-0.57047 0.49587,-1.89681 -0.46349,-2.06211 -4.09785,-1.4789 -8.43953,-2.00518 -12.6583,-3.00614 -6.34517,-1.35565 -12.71917,-2.60261 -19.03069,-4.09805 -1.50077,-0.61976 -2.93689,-1.77797 -4.68541,-1.65206 z" />
    <path
       id="path882"
       style="fill:#ff0000;fill-opacity:1;stroke:none;stroke-width:0.264583px;stroke-linecap:butt;stroke-linejoin:miter;stroke-opacity:1"
       d="m 236.66992,89.132812 c -2.90036,0.294978 -5.04274,2.640496 -6.41004,5.036059 -3.57327,6.186679 -3.11585,14.238889 0.5486,20.278899 0.46462,1.00421 1.50837,1.61618 2.59371,1.66634 7.83601,1.71658 15.63916,3.58266 23.50228,5.16202 3.26557,0.21583 6.53111,0.43223 9.7967,0.6477 0,-10.08985 0,-20.17969 0,-30.269533 -10.00947,-0.844256 -20.01864,-1.751069 -30.03125,-2.521485 z" />
    <path
       style="fill:none;stroke:#ff0000;stroke-width:13.2292;stroke-linecap:round;stroke-linejoin:miter;stroke-miterlimit:4;stroke-dasharray:none;stroke-opacity:1"
       d="M 234.64592,101.54596 212.6796,91.5319 204.60374,61.812758"
       id="path886"
       sodipodi:nodetypes="ccc" />
    <path
       style="fill:none;stroke:#ff0000;stroke-width:13.2292;stroke-linecap:round;stroke-linejoin:miter;stroke-miterlimit:4;stroke-dasharray:none;stroke-opacity:1"
       d="m 242.18597,121.77857 -29.32171,5.47182 -18.99744,31.01127"
       id="path888"
       sodipodi:nodetypes="ccc" />
    <path
       style="fill:none;stroke:#ff0000;stroke-width:13.2292;stroke-linecap:round;stroke-linejoin:miter;stroke-miterlimit:4;stroke-dasharray:none;stroke-opacity:1"
       d="m 238.4478,149.18129 -21.70714,14.64883 -2.66099,29.84214"
       id="path890"
       sodipodi:nodetypes="ccc" />
    <path
       id="path863"
       style="fill:#ff0000;fill-opacity:1;stroke:none;stroke-width:0.264583px;stroke-linecap:butt;stroke-linejoin:miter;stroke-opacity:1"
       d="m 297.1582,109.79492 c -2.11187,0.11334 -3.67467,1.89365 -5.78136,2.03673 -9.30339,2.06816 -18.6696,3.85726 -27.95716,5.99088 -0.97322,0.21138 -2.21668,0.85021 -2.04663,2.03099 0.21092,1.30708 1.68767,1.63873 2.78515,1.83789 1.11767,0.23193 2.22943,0.83926 2.65019,1.95964 1.39609,2.73801 0.83401,5.90203 0.94942,8.85286 0,22.30338 0,44.60677 0,66.91015 14.06942,-5.66235 26.10655,-16.4277 32.92216,-30.01441 1.83155,-3.75324 3.34627,-7.72946 3.90354,-11.88439 -0.39606,-12.44485 1.01926,-24.87547 0.5276,-37.3182 -0.16528,-2.84047 -0.44945,-5.8768 -2.11892,-8.27714 -1.31647,-1.5157 -3.43926,-1.88963 -5.33241,-2.119 -0.16712,-1.3e-4 -0.33455,-0.0114 -0.50158,-0.006 z" />
    <path
       id="path865"
       style="fill:#ff0000;fill-opacity:1;stroke:none;stroke-width:0.264583px;stroke-linecap:butt;stroke-linejoin:miter;stroke-opacity:1"
       d="m 291.92969,89.125 c -9.82098,0.84291 -19.64183,1.68734 -29.46289,2.529297 0,10.095703 0,20.191403 0,30.287113 4.01687,-0.41325 8.09489,-0.28417 12.07768,-1.08431 7.6728,-1.71352 15.3446,-3.43157 23.01802,-5.14226 4.10764,-5.91022 5.11416,-14.06418 1.86347,-20.585888 -1.27614,-2.631826 -3.3617,-5.188669 -6.31659,-5.921921 -0.38906,-0.07034 -0.78483,-0.09625 -1.17969,-0.08203 z" />
    <path
       style="fill:none;stroke:#ff0000;stroke-width:13.2292;stroke-linecap:round;stroke-linejoin:miter;stroke-miterlimit:4;stroke-dasharray:none;stroke-opacity:1"
       d="M 294.52074,101.54596 316.48706,91.5319 324.56292,61.812758"
       id="path869"
       sodipodi:nodetypes="ccc" />
    <path
       style="fill:none;stroke:#ff0000;stroke-width:13.2292;stroke-linecap:round;stroke-linejoin:miter;stroke-miterlimit:4;stroke-dasharray:none;stroke-opacity:1"
       d="m 286.98069,121.77857 29.32171,5.47182 18.99745,31.01127"
       id="path871"
       sodipodi:nodetypes="ccc" />
    <path
       style="fill:none;stroke:#ff0000;stroke-width:13.2292;stroke-linecap:round;stroke-linejoin:miter;stroke-miterlimit:4;stroke-dasharray:none;stroke-opacity:1"
       d="m 290.71886,149.18129 21.70714,14.64883 2.661,29.84214"
       id="path873"
       sodipodi:nodetypes="ccc" />
    <path
       id="path1234"
       style="display:inline;fill:#ff0000;fill-opacity:1;stroke:none;stroke-width:0.26458300000000001px;stroke-linecap:butt;stroke-linejoin:miter;stroke-opacity:1"
       d="m 280.5332,19.302734 c -0.96539,0.172419 -1.05608,1.428293 -0.58431,2.119456 0.50185,1.528422 1.5546,3.196466 0.81673,4.825857 -0.70877,1.000538 -2.09696,1.027287 -3.12603,1.544987 -0.92543,0.176887 -0.74222,0.493941 -0.0224,0.878841 1.04729,0.869357 2.67983,1.466004 2.87602,2.988667 -0.0382,1.46351 -1.24197,2.508171 -2.13774,3.530864 3.2357,2.037386 6.47469,4.689516 7.59656,8.501415 0.94974,3.179442 0.9527,6.637154 0.12995,9.842228 -1.58154,5.395837 -5.29449,9.797967 -8.96334,13.920764 -0.97044,1.070102 -1.95785,2.12465 -2.937,3.186765 4.91744,3.401812 9.83613,6.801801 14.75391,10.203125 4.88322,-3.954058 7.58372,-10.018156 8.60699,-16.106703 1.35019,-7.721745 0.88526,-15.719818 -1.01715,-23.307359 -1.88346,-6.921866 -5.79489,-13.199283 -10.88018,-18.225864 -1.37696,-1.401186 -2.80867,-2.801947 -4.48896,-3.826871 -0.19893,-0.07325 -0.41297,-0.10099 -0.62305,-0.07617 z" />
    <path
       id="path1236"
       style="display:inline;fill:#ff0000;fill-opacity:1;stroke:none;stroke-width:0.26458300000000001px;stroke-linecap:butt;stroke-linejoin:miter;stroke-opacity:1"
       d="m 249.33203,18.447266 c -0.77972,0.340343 -1.42428,0.994879 -2.1508,1.456479 -2.74196,2.110595 -5.0882,4.693821 -7.2795,7.358966 -3.83155,4.7999 -6.58598,10.469847 -7.8055,16.499414 -1.35148,6.35437 -1.5873,12.95089 -0.73799,19.390173 0.82417,5.879633 2.91046,11.849734 7.18006,16.126598 0.53958,0.546732 1.11271,1.0579 1.6824,1.572666 4.92187,-3.402068 9.84285,-6.80542 14.76368,-10.208984 -4.05387,-4.36997 -8.35158,-8.877232 -10.85352,-14.28125 -0.89998,-1.881237 -1.46474,-3.888927 -1.59465,-6.018142 -0.12884,-2.331295 0.0214,-4.629217 0.74527,-6.871485 1.0721,-3.347141 3.78143,-5.811841 6.64138,-7.68335 0.42777,-0.324142 1.27411,-0.601786 0.46776,-1.059835 -0.91327,-0.96882 -2.10496,-2.277411 -1.55254,-3.712293 0.76746,-1.298281 2.28115,-1.854731 3.34836,-2.863051 0.0904,-0.28052 -0.92192,-0.384638 -1.26261,-0.598484 -1.02066,-0.362726 -2.55132,-0.598222 -2.73017,-1.899883 -0.23703,-2.00851 1.03855,-3.747697 1.48407,-5.635274 0.23045,-0.516058 0.57659,-1.272959 -0.0859,-1.621093 -0.0866,0.01628 -0.17318,0.03255 -0.25977,0.04883 z" />
  </g>
  <g
     inkscape:label="bug"
     inkscape:groupmode="layer"
     id="layer1"
     transform="translate(0,-32.41665)"
     style="display:inline">
    <g
       transform="matrix(0.90699503,0,0,1.2511875,82.716849,-1.7481335)"
       style="stroke-width:0.938721"
       id="g4730" />
    <g
       transform="matrix(0.90699503,0,0,1.2511875,82.716849,-1.7481335)"
       id="g952">
      <g
         id="g950" />
    </g>
    <g
       transform="matrix(0.90699503,0,0,1.2511875,82.716849,-1.7481335)"
       style="display:inline;stroke-width:0.938721"
       id="g875" />
    <g
       transform="matrix(0.90699503,0,0,1.2511875,82.716849,-1.7481335)"
       id="g879"
       style="display:inline">
      <g
         id="g877" />
    </g>
    <ellipse
       style="display:inline;fill:#000000;fill-opacity:1;stroke-width:13.528"
       id="ellipse881"
       cx="264.58334"
       cy="82.92778"
       rx="26.458334"
       ry="16.752094" />
    <path
       style="display:inline;fill:#000000;fill-opacity:1;stroke:none;stroke-width:0.264583px;stroke-linecap:butt;stroke-linejoin:miter;stroke-opacity:1"
       d="m 264.58333,119.66694 -27.68905,-5.82592 c -4.71554,-1.14087 -3.17376,-3.00599 -8.38809,-1.1541 -4.65742,2.39808 -1.20718,26.46447 -1.81077,45.07787 2.74365,14.65109 15.77391,30.85675 32.59623,38.39012 l 10e-6,-69.11365 c 0.51182,-4.71184 2.37758,-6.98658 5.29167,-7.37432 z"
       id="path883"
       sodipodi:nodetypes="ccccccc" />
    <path
       style="display:inline;fill:#000000;fill-opacity:1;stroke:none;stroke-width:0.264583px;stroke-linecap:butt;stroke-linejoin:miter;stroke-opacity:1"
       d="m 264.58333,93.599883 -27.2554,-2.339139 c -4.30998,-0.678242 -11.55021,11.135756 -4.40237,22.580276 l 23.72027,5.30242 7.9375,0.5235 z"
       id="path885"
       sodipodi:nodetypes="cccccc" />
    <path
       style="display:inline;fill:none;stroke:#000000;stroke-width:10.5833;stroke-linecap:round;stroke-linejoin:miter;stroke-miterlimit:4;stroke-dasharray:none;stroke-opacity:1"
       d="M 234.64592,101.54596 212.6796,91.5319 204.60374,61.812758"
       id="path889"
       sodipodi:nodetypes="ccc" />
    <path
       style="display:inline;fill:none;stroke:#000000;stroke-width:10.5833;stroke-linecap:round;stroke-linejoin:miter;stroke-miterlimit:4;stroke-dasharray:none;stroke-opacity:1"
       d="m 242.18597,121.77857 -29.32171,5.47182 -18.99744,31.01127"
       id="path891"
       sodipodi:nodetypes="ccc" />
    <path
       style="display:inline;fill:none;stroke:#000000;stroke-width:10.5833;stroke-linecap:round;stroke-linejoin:miter;stroke-miterlimit:4;stroke-dasharray:none;stroke-opacity:1"
       d="m 238.4478,149.18129 -21.70714,14.64883 -2.66099,29.84214"
       id="path893"
       sodipodi:nodetypes="ccc" />
    <path
       style="display:inline;fill:#000000;fill-opacity:1;stroke:none;stroke-width:0.264583px;stroke-linecap:butt;stroke-linejoin:miter;stroke-opacity:1"
       d="m 264.58333,119.66694 27.68905,-5.82592 c 4.71554,-1.14087 3.17376,-3.00599 8.38809,-1.1541 4.65742,2.39808 1.20718,26.46447 1.81077,45.07787 -2.74365,14.65109 -15.77391,30.85675 -32.59623,38.39012 l -10e-6,-69.11365 c -0.51182,-4.71184 -2.37758,-6.98658 -5.29167,-7.37432 z"
       id="path895"
       sodipodi:nodetypes="ccccccc" />
    <path
       style="display:inline;fill:#000000;fill-opacity:1;stroke:none;stroke-width:0.264583px;stroke-linecap:butt;stroke-linejoin:miter;stroke-opacity:1"
       d="m 264.58333,93.599883 27.2554,-2.339139 c 4.30998,-0.678242 11.55021,11.135756 4.40237,22.580276 l -23.72027,5.30242 -7.9375,0.5235 z"
       id="path897"
       sodipodi:nodetypes="cccccc" />
    <path
       style="display:inline;fill:#000000;fill-opacity:1;stroke:none;stroke-width:0.264583px;stroke-linecap:butt;stroke-linejoin:miter;stroke-opacity:1"
       d="m 288.80544,78.826079 c 7.91557,-7.028212 8.82521,-20.793518 7.31175,-31.449252 -1.38154,-9.726911 -5.3807,-17.699264 -14.40412,-25.714089 0,0 2.83363,5.459354 -1.54711,6.894777 3.95511,2.734325 0.57204,6.33741 0.57204,6.33741 6.77603,4.584123 7.69676,9.680818 7.49298,15.379851 -0.27672,7.738867 -7.12276,15.264525 -11.64058,20.104641 z"
       id="path899"
       sodipodi:nodetypes="cacccacc" />
    <path
       style="display:inline;fill:none;stroke:#000000;stroke-width:10.5833;stroke-linecap:round;stroke-linejoin:miter;stroke-miterlimit:4;stroke-dasharray:none;stroke-opacity:1"
       d="M 294.52074,101.54596 316.48706,91.5319 324.56292,61.812758"
       id="path901"
       sodipodi:nodetypes="ccc" />
    <path
       style="display:inline;fill:none;stroke:#000000;stroke-width:10.5833;stroke-linecap:round;stroke-linejoin:miter;stroke-miterlimit:4;stroke-dasharray:none;stroke-opacity:1"
       d="m 286.98069,121.77857 29.32171,5.47182 18.99745,31.01127"
       id="path903"
       sodipodi:nodetypes="ccc" />
    <path
       style="display:inline;fill:none;stroke:#000000;stroke-width:10.5833;stroke-linecap:round;stroke-linejoin:miter;stroke-miterlimit:4;stroke-dasharray:none;stroke-opacity:1"
       d="m 290.71886,149.18129 21.70714,14.64883 2.661,29.84214"
       id="path905"
       sodipodi:nodetypes="ccc" />
    <path
       style="display:inline;fill:#000000;fill-opacity:1;stroke:none;stroke-width:0.264583px;stroke-linecap:butt;stroke-linejoin:miter;stroke-opacity:1"
       d="m 240.36122,78.826079 c -7.91557,-7.028212 -8.82521,-20.793518 -7.31175,-31.449252 1.38154,-9.726911 5.3807,-17.699264 14.40412,-25.714089 0,0 -2.83363,5.459541 1.54711,6.894964 -3.95511,2.734325 -0.57204,6.337223 -0.57204,6.337223 -6.77603,4.584123 -7.69676,9.680818 -7.49298,15.379851 0.27672,7.738867 7.12276,15.264525 11.64058,20.104641 z"
       id="path1150"
       sodipodi:nodetypes="cacccacc" />
  </g>
</svg>
