<?xml version="1.0" encoding="UTF-8" standalone="no"?>
<svg
   xmlns:dc="http://purl.org/dc/elements/1.1/"
   xmlns:cc="http://creativecommons.org/ns#"
   xmlns:rdf="http://www.w3.org/1999/02/22-rdf-syntax-ns#"
   xmlns:svg="http://www.w3.org/2000/svg"
   xmlns="http://www.w3.org/2000/svg"
   xmlns:sodipodi="http://sodipodi.sourceforge.net/DTD/sodipodi-0.dtd"
   xmlns:inkscape="http://www.inkscape.org/namespaces/inkscape"
   width="300"
   height="700"
   viewBox="0 0 79.374999 185.20834"
   version="1.1"
   id="svg8"
   inkscape:version="1.0.1 (c497b03c, 2020-09-10)"
   sodipodi:docname="butterfly.svg"
   inkscape:export-filename="/Users/tass/bee.png"
   inkscape:export-xdpi="96"
   inkscape:export-ydpi="96">
  <defs
     id="defs2" />
  <sodipodi:namedview
     id="base"
     pagecolor="#ffffff"
     bordercolor="#666666"
     borderopacity="1.0"
     inkscape:pageopacity="0.0"
     inkscape:pageshadow="2"
     inkscape:zoom="1.3329587"
     inkscape:cx="165.96706"
     inkscape:cy="326.52478"
     inkscape:document-units="px"
     inkscape:current-layer="layer1"
     showgrid="false"
     showguides="false"
     inkscape:guide-bbox="true"
     inkscape:lockguides="false"
     units="px"
     inkscape:window-width="1860"
     inkscape:window-height="1287"
     inkscape:window-x="0"
     inkscape:window-y="22"
     inkscape:window-maximized="0"
     inkscape:document-rotation="0">
    <sodipodi:guide
       position="105.83333,0"
       orientation="1,0"
       id="guide954"
       inkscape:locked="false"
       inkscape:label=""
       inkscape:color="rgb(0,0,255)" />
    <sodipodi:guide
       position="97.895834,0"
       orientation="1,0"
       id="guide4710"
       inkscape:locked="false"
       inkscape:label=""
       inkscape:color="rgb(0,0,255)" />
    <sodipodi:guide
       position="113.77083,0"
       orientation="1,0"
       id="guide4712"
       inkscape:locked="false"
       inkscape:label=""
       inkscape:color="rgb(0,0,255)" />
  </sodipodi:namedview>
  <metadata
     id="metadata5">
    <rdf:RDF>
      <cc:Work
         rdf:about="">
        <dc:format>image/svg+xml</dc:format>
        <dc:type
           rdf:resource="http://purl.org/dc/dcmitype/StillImage" />
        <dc:title></dc:title>
      </cc:Work>
    </rdf:RDF>
  </metadata>
  <g
     inkscape:label="bug"
     inkscape:groupmode="layer"
     id="layer1"
     transform="translate(0,-32.41665)"
     style="display:inline">
    <path
       id="path991"
       style="fill:#000000;fill-opacity:1;stroke-width:0.0698095;stroke-linecap:round;stroke-linejoin:round"
       d="M 10.186346,162.261 C 9.6100693,178.38444 5.8450137,189.38024 0,191.16668 V 128.8505 c 5.646519,3.69239 10.379677,28.00136 10.186346,33.4105 z"
       sodipodi:nodetypes="sccs" />
    <g
       transform="matrix(0.90699503,0,0,1.2511875,-181.8665,12.269943)"
       style="stroke-width:0.938721"
       id="g4730" />
    <g
       transform="matrix(0.90699503,0,0,1.2511875,-181.8665,12.269943)"
       id="g952">
      <g
         id="g950" />
    </g>
    <g
       transform="matrix(0.90699503,0,0,1.2511875,-181.8665,12.269943)"
       style="display:inline;stroke-width:0.938721"
       id="g875" />
    <g
       transform="matrix(0.90699503,0,0,1.2511875,-181.8665,12.269943)"
       id="g879"
       style="display:inline">
      <g
         id="g877" />
    </g>
    <path
       id="path989"
       style="fill:#000000;fill-opacity:1;stroke-width:0.0569388;stroke-linecap:round;stroke-linejoin:round"
       d="M 10.583333,84.804154 C 10.583333,90.649167 5.8450134,101.88134 0,101.88134 L 2.4468441e-8,74.220821 C 5.8450134,74.220821 10.583333,78.959141 10.583333,84.804154 Z"
       sodipodi:nodetypes="sccs" />
    <path
       style="fill:none;stroke:#000000;stroke-width:5.29167;stroke-linecap:round;stroke-linejoin:round;stroke-miterlimit:4;stroke-dasharray:none;stroke-opacity:1"
       d="M 4.5281091,76.682965 C 12.313773,52.117077 26.056878,43.244787 37.700438,40.030854"
       id="path995"
       sodipodi:nodetypes="cc" />
    <path
       style="fill:#000000;fill-opacity:1;stroke:none;stroke-width:0.264583;stroke-linecap:butt;stroke-linejoin:miter;stroke-miterlimit:4;stroke-dasharray:none;stroke-opacity:1"
       d="M 0,101.88134 C 34.970124,67.948769 52.990393,63.069441 65.601825,63.67025 c 12.611433,0.60081 -18.25463,38.45694 -14.114791,49.8896 2.872598,10.02971 10.53142,25.43975 9.129943,30.40074 -2.455034,3.27684 -9.270056,3.86787 -15.628014,1.7161 23.261176,1.82937 12.46447,40.21353 7.297616,42.23039 C 23.026339,195.55747 7.5389828,143.74123 0,128.8505 Z"
       id="path997"
       sodipodi:nodetypes="czcccccc" />
    <path
       id="path1159"
       style="fill:#000000;fill-opacity:1;stroke-width:0.0698095;stroke-linecap:round;stroke-linejoin:round"
       d="M -10.186346,162.261 C -9.61007,178.38444 -5.845014,189.38024 2.4468434e-8,191.16668 V 128.8505 C -5.646519,132.54289 -10.379677,156.85186 -10.186346,162.261 Z"
       sodipodi:nodetypes="sccs" />
    <g
       transform="matrix(-0.90699503,0,0,1.2511875,181.8665,12.269943)"
       style="stroke-width:0.938721"
       id="g1161" />
    <g
       transform="matrix(-0.90699503,0,0,1.2511875,181.8665,12.269943)"
       id="g1165">
      <g
         id="g1163" />
    </g>
    <g
       transform="matrix(-0.90699503,0,0,1.2511875,181.8665,12.269943)"
       style="display:inline;stroke-width:0.938721"
       id="g1167" />
    <g
       transform="matrix(-0.90699503,0,0,1.2511875,181.8665,12.269943)"
       id="g1171"
       style="display:inline">
      <g
         id="g1169" />
    </g>
    <path
       id="path1173"
       style="fill:#000000;fill-opacity:1;stroke-width:0.0569388;stroke-linecap:round;stroke-linejoin:round"
       d="m -10.583333,84.804154 c 0,5.845013 4.738319,17.077186 10.583333024468434,17.077186 V 74.220821 C -5.845014,74.220821 -10.583333,78.959141 -10.583333,84.804154 Z"
       sodipodi:nodetypes="sccs" />
    <path
       style="fill:none;stroke:#000000;stroke-width:5.29167;stroke-linecap:round;stroke-linejoin:round;stroke-miterlimit:4;stroke-dasharray:none;stroke-opacity:1"
       d="M -4.52811,76.682965 C -12.313773,52.117077 -26.056878,43.244787 -37.700438,40.030854"
       id="path1175"
       sodipodi:nodetypes="cc" />
    <path
       style="fill:#000000;fill-opacity:1;stroke:none;stroke-width:0.264583;stroke-linecap:butt;stroke-linejoin:miter;stroke-miterlimit:4;stroke-dasharray:none;stroke-opacity:1"
       d="M 0,101.88134 C -34.970124,67.948769 -52.990393,63.069441 -65.601825,63.67025 c -12.611433,0.60081 18.25463,38.45694 14.114791,49.8896 -2.872598,10.02971 -10.53142,25.43975 -9.129943,30.40074 2.455034,3.27684 9.270056,3.86787 15.628014,1.7161 -23.261176,1.82937 -12.46447,40.21353 -7.297616,42.23039 C -23.026339,195.55747 -7.538983,143.74123 0,128.8505 Z"
       id="path1341"
       sodipodi:nodetypes="czcccccc" />
  </g>
</svg>
