<?xml version="1.0" encoding="UTF-8" standalone="no"?>
<svg
   xmlns:dc="http://purl.org/dc/elements/1.1/"
   xmlns:cc="http://creativecommons.org/ns#"
   xmlns:rdf="http://www.w3.org/1999/02/22-rdf-syntax-ns#"
   xmlns:svg="http://www.w3.org/2000/svg"
   xmlns="http://www.w3.org/2000/svg"
   xmlns:sodipodi="http://sodipodi.sourceforge.net/DTD/sodipodi-0.dtd"
   xmlns:inkscape="http://www.inkscape.org/namespaces/inkscape"
   width="300"
   height="700"
   viewBox="0 0 79.374999 185.20834"
   version="1.1"
   id="svg8"
   inkscape:version="1.0.1 (c497b03c, 2020-09-10)"
   sodipodi:docname="grasshopper-tile.svg"
   inkscape:export-filename="/Users/tass/bee.png"
   inkscape:export-xdpi="96"
   inkscape:export-ydpi="96">
  <defs
     id="defs2" />
  <sodipodi:namedview
     id="base"
     pagecolor="#ffffff"
     bordercolor="#666666"
     borderopacity="1.0"
     inkscape:pageopacity="0.0"
     inkscape:pageshadow="2"
     inkscape:zoom="1.144813"
     inkscape:cx="107.49535"
     inkscape:cy="333.28815"
     inkscape:document-units="px"
     inkscape:current-layer="layer1"
     showgrid="false"
     showguides="false"
     inkscape:guide-bbox="true"
     inkscape:lockguides="false"
     units="px"
     inkscape:window-width="1860"
     inkscape:window-height="1287"
     inkscape:window-x="0"
     inkscape:window-y="22"
     inkscape:window-maximized="0"
     inkscape:document-rotation="0">
    <sodipodi:guide
       position="105.83333,0"
       orientation="1,0"
       id="guide954"
       inkscape:locked="false"
       inkscape:label=""
       inkscape:color="rgb(0,0,255)" />
    <sodipodi:guide
       position="97.895834,0"
       orientation="1,0"
       id="guide4710"
       inkscape:locked="false"
       inkscape:label=""
       inkscape:color="rgb(0,0,255)" />
    <sodipodi:guide
       position="113.77083,0"
       orientation="1,0"
       id="guide4712"
       inkscape:locked="false"
       inkscape:label=""
       inkscape:color="rgb(0,0,255)" />
  </sodipodi:namedview>
  <metadata
     id="metadata5">
    <rdf:RDF>
      <cc:Work
         rdf:about="">
        <dc:format>image/svg+xml</dc:format>
        <dc:type
           rdf:resource="http://purl.org/dc/dcmitype/StillImage" />
        <dc:title></dc:title>
      </cc:Work>
    </rdf:RDF>
  </metadata>
  <g
     inkscape:label="bug"
     inkscape:groupmode="layer"
     id="layer1"
     transform="translate(0,-32.41665)"
     style="display:inline">
    <g
       transform="matrix(0.90699503,0,0,1.2511875,80.071016,-1.7481335)"
       style="stroke-width:0.938721"
       id="g4730" />
    <g
       transform="matrix(0.90699503,0,0,1.2511875,80.071016,-1.7481335)"
       id="g952">
      <g
         id="g950" />
    </g>
    <g
       transform="matrix(0.90699503,0,0,1.2511875,80.071016,-1.7481335)"
       style="display:inline;stroke-width:0.938721"
       id="g875" />
    <g
       transform="matrix(0.90699503,0,0,1.2511875,80.071016,-1.7481335)"
       id="g879"
       style="display:inline">
      <g
         id="g877" />
    </g>
    <path
       style="fill:#000000;fill-opacity:1;stroke:none;stroke-width:0.218442px;stroke-linecap:butt;stroke-linejoin:miter;stroke-opacity:1"
       d="m 0,51.756364 c 6.8076804,0.09504 11.451559,2.034184 15.665191,7.965835 l 4.372302,57.492771 c -2.142707,43.2227 -7.417112,51.51743 -9.249066,60.41715 C 8.3260513,181.98395 0,194.83689 0,194.83689 Z"
       id="path941"
       sodipodi:nodetypes="cccccc" />
    <path
       style="fill:none;stroke:#000000;stroke-width:5.29167;stroke-linecap:round;stroke-linejoin:miter;stroke-miterlimit:4;stroke-dasharray:none;stroke-opacity:1"
       d="M 3.0226628,58.694712 C 12.033177,44.611338 18.693317,38.614328 29.994227,35.062485"
       id="path943"
       sodipodi:nodetypes="cc" />
    <path
       style="fill:none;stroke:#000000;stroke-width:10.5833;stroke-linecap:round;stroke-linejoin:round;stroke-miterlimit:4;stroke-dasharray:none;stroke-opacity:1"
       d="M 15.866264,82.070066 38.980533,73.772582 46.214899,54.961161"
       id="path1604"
       sodipodi:nodetypes="ccc" />
    <path
       style="fill:none;stroke:#000000;stroke-width:10.5833;stroke-linecap:round;stroke-linejoin:round;stroke-miterlimit:4;stroke-dasharray:none;stroke-opacity:1"
       d="M 18.691857,96.454896 38.506633,99.340259 50.80086,116.49092"
       id="path1606"
       sodipodi:nodetypes="ccc" />
    <path
       style="fill:#000000;fill-opacity:1;stroke:none;stroke-width:0.218442px;stroke-linecap:butt;stroke-linejoin:miter;stroke-opacity:1"
       d="m 15.866264,121.11462 c 18.197769,-1.85425 63.596416,30.94594 60.468664,37.60955 -3.044444,11.94524 -36.804245,40.46466 -41.906007,41.77936 -5.101762,1.3147 -11.491901,-0.55477 -5.053293,-8.16233 6.438607,-7.60756 31.513344,-26.84427 30.708662,-32.4679 -7.817338,-7.09713 -34.955393,-8.73778 -45.510604,-16.09357 z"
       id="path1608"
       sodipodi:nodetypes="cczzccc" />
    <g
       transform="matrix(-0.90699503,0,0,1.2511875,-80.071016,-1.7481335)"
       style="stroke-width:0.938721"
       id="g1620" />
    <g
       transform="matrix(-0.90699503,0,0,1.2511875,-80.071016,-1.7481335)"
       id="g1624">
      <g
         id="g1622" />
    </g>
    <g
       transform="matrix(-0.90699503,0,0,1.2511875,-80.071016,-1.7481335)"
       style="display:inline;stroke-width:0.938721"
       id="g1626" />
    <g
       transform="matrix(-0.90699503,0,0,1.2511875,-80.071016,-1.7481335)"
       id="g1630"
       style="display:inline">
      <g
         id="g1628" />
    </g>
    <g
       transform="matrix(0.90699503,0,0,1.2511875,80.071016,-1.7481335)"
       style="stroke-width:0.938721"
       id="g1642" />
    <g
       transform="matrix(0.90699503,0,0,1.2511875,80.071016,-1.7481335)"
       id="g1646">
      <g
         id="g1644" />
    </g>
    <g
       transform="matrix(0.90699503,0,0,1.2511875,80.071016,-1.7481335)"
       style="display:inline;stroke-width:0.938721"
       id="g1648" />
    <g
       transform="matrix(0.90699503,0,0,1.2511875,80.071016,-1.7481335)"
       id="g1652"
       style="display:inline">
      <g
         id="g1650" />
    </g>
    <g
       transform="matrix(-0.90699503,0,0,1.2511875,-80.071016,-1.7481335)"
       style="stroke-width:0.938721"
       id="g1664" />
    <g
       transform="matrix(-0.90699503,0,0,1.2511875,-80.071016,-1.7481335)"
       id="g1668">
      <g
         id="g1666" />
    </g>
    <g
       transform="matrix(-0.90699503,0,0,1.2511875,-80.071016,-1.7481335)"
       style="display:inline;stroke-width:0.938721"
       id="g1670" />
    <g
       transform="matrix(-0.90699503,0,0,1.2511875,-80.071016,-1.7481335)"
       id="g1674"
       style="display:inline">
      <g
         id="g1672" />
    </g>
    <g
       transform="matrix(-0.90699503,0,0,1.2511875,-80.071016,-1.7481335)"
       style="stroke-width:0.938721"
       id="g1676" />
    <g
       transform="matrix(-0.90699503,0,0,1.2511875,-80.071016,-1.7481335)"
       id="g1680">
      <g
         id="g1678" />
    </g>
    <g
       transform="matrix(-0.90699503,0,0,1.2511875,-80.071016,-1.7481335)"
       style="display:inline;stroke-width:0.938721"
       id="g1682" />
    <g
       transform="matrix(-0.90699503,0,0,1.2511875,-80.071016,-1.7481335)"
       id="g1686"
       style="display:inline">
      <g
         id="g1684" />
    </g>
    <g
       transform="matrix(0.90699503,0,0,1.2511875,80.071016,-1.7481335)"
       style="stroke-width:0.938721"
       id="g1698" />
    <g
       transform="matrix(0.90699503,0,0,1.2511875,80.071016,-1.7481335)"
       id="g1702">
      <g
         id="g1700" />
    </g>
    <g
       transform="matrix(0.90699503,0,0,1.2511875,80.071016,-1.7481335)"
       style="display:inline;stroke-width:0.938721"
       id="g1704" />
    <g
       transform="matrix(0.90699503,0,0,1.2511875,80.071016,-1.7481335)"
       id="g1708"
       style="display:inline">
      <g
         id="g1706" />
    </g>
    <g
       transform="matrix(-0.90699503,0,0,1.2511875,-80.071016,-1.7481335)"
       style="stroke-width:0.938721"
       id="g1710" />
    <g
       transform="matrix(-0.90699503,0,0,1.2511875,-80.071016,-1.7481335)"
       id="g1714">
      <g
         id="g1712" />
    </g>
    <g
       transform="matrix(-0.90699503,0,0,1.2511875,-80.071016,-1.7481335)"
       style="display:inline;stroke-width:0.938721"
       id="g1716" />
    <g
       transform="matrix(-0.90699503,0,0,1.2511875,-80.071016,-1.7481335)"
       id="g1720"
       style="display:inline">
      <g
         id="g1718" />
    </g>
    <g
       transform="matrix(0.90699503,0,0,1.2511875,80.071016,-1.7481335)"
       style="stroke-width:0.938721"
       id="g1732" />
    <g
       transform="matrix(0.90699503,0,0,1.2511875,80.071016,-1.7481335)"
       id="g1736">
      <g
         id="g1734" />
    </g>
    <g
       transform="matrix(0.90699503,0,0,1.2511875,80.071016,-1.7481335)"
       style="display:inline;stroke-width:0.938721"
       id="g1738" />
    <g
       transform="matrix(0.90699503,0,0,1.2511875,80.071016,-1.7481335)"
       id="g1742"
       style="display:inline">
      <g
         id="g1740" />
    </g>
    <g
       transform="matrix(-0.90699503,0,0,1.2511875,-80.071016,-1.7481335)"
       style="stroke-width:0.938721"
       id="g1805" />
    <g
       transform="matrix(-0.90699503,0,0,1.2511875,-80.071016,-1.7481335)"
       id="g1809">
      <g
         id="g1807" />
    </g>
    <g
       transform="matrix(-0.90699503,0,0,1.2511875,-80.071016,-1.7481335)"
       style="display:inline;stroke-width:0.938721"
       id="g1811" />
    <g
       transform="matrix(-0.90699503,0,0,1.2511875,-80.071016,-1.7481335)"
       id="g1815"
       style="display:inline">
      <g
         id="g1813" />
    </g>
    <g
       transform="matrix(0.90699503,0,0,1.2511875,80.071018,-1.7481335)"
       style="stroke-width:0.938721"
       id="g1827" />
    <g
       transform="matrix(0.90699503,0,0,1.2511875,80.071018,-1.7481335)"
       id="g1831">
      <g
         id="g1829" />
    </g>
    <g
       transform="matrix(0.90699503,0,0,1.2511875,80.071018,-1.7481335)"
       style="display:inline;stroke-width:0.938721"
       id="g1833" />
    <g
       transform="matrix(0.90699503,0,0,1.2511875,80.071018,-1.7481335)"
       id="g1837"
       style="display:inline">
      <g
         id="g1835" />
    </g>
    <g
       transform="matrix(-0.90699503,0,0,1.2511875,-80.071016,-1.7481335)"
       style="stroke-width:0.938721"
       id="g1839" />
    <g
       transform="matrix(-0.90699503,0,0,1.2511875,-80.071016,-1.7481335)"
       id="g1843">
      <g
         id="g1841" />
    </g>
    <g
       transform="matrix(-0.90699503,0,0,1.2511875,-80.071016,-1.7481335)"
       style="display:inline;stroke-width:0.938721"
       id="g1845" />
    <g
       transform="matrix(-0.90699503,0,0,1.2511875,-80.071016,-1.7481335)"
       id="g1849"
       style="display:inline">
      <g
         id="g1847" />
    </g>
    <g
       transform="matrix(0.90699503,0,0,1.2511875,80.071018,-1.7481335)"
       style="stroke-width:0.938721"
       id="g1851" />
    <g
       transform="matrix(0.90699503,0,0,1.2511875,80.071018,-1.7481335)"
       id="g1855">
      <g
         id="g1853" />
    </g>
    <g
       transform="matrix(0.90699503,0,0,1.2511875,80.071018,-1.7481335)"
       style="display:inline;stroke-width:0.938721"
       id="g1857" />
    <g
       transform="matrix(0.90699503,0,0,1.2511875,80.071018,-1.7481335)"
       id="g1861"
       style="display:inline">
      <g
         id="g1859" />
    </g>
    <g
       transform="matrix(0.90699503,0,0,1.2511875,80.071018,-1.7481335)"
       style="stroke-width:0.938721"
       id="g1863" />
    <g
       transform="matrix(0.90699503,0,0,1.2511875,80.071018,-1.7481335)"
       id="g1867">
      <g
         id="g1865" />
    </g>
    <g
       transform="matrix(0.90699503,0,0,1.2511875,80.071018,-1.7481335)"
       style="display:inline;stroke-width:0.938721"
       id="g1869" />
    <g
       transform="matrix(0.90699503,0,0,1.2511875,80.071018,-1.7481335)"
       id="g1873"
       style="display:inline">
      <g
         id="g1871" />
    </g>
    <g
       transform="matrix(-0.90699503,0,0,1.2511875,-80.071016,-1.7481335)"
       style="stroke-width:0.938721"
       id="g1875" />
    <g
       transform="matrix(-0.90699503,0,0,1.2511875,-80.071016,-1.7481335)"
       id="g1879">
      <g
         id="g1877" />
    </g>
    <g
       transform="matrix(-0.90699503,0,0,1.2511875,-80.071016,-1.7481335)"
       style="display:inline;stroke-width:0.938721"
       id="g1881" />
    <g
       transform="matrix(-0.90699503,0,0,1.2511875,-80.071016,-1.7481335)"
       id="g1885"
       style="display:inline">
      <g
         id="g1883" />
    </g>
    <g
       transform="matrix(0.90699503,0,0,1.2511875,80.071018,-1.7481335)"
       style="stroke-width:0.938721"
       id="g1887" />
    <g
       transform="matrix(0.90699503,0,0,1.2511875,80.071018,-1.7481335)"
       id="g1891">
      <g
         id="g1889" />
    </g>
    <g
       transform="matrix(0.90699503,0,0,1.2511875,80.071018,-1.7481335)"
       style="display:inline;stroke-width:0.938721"
       id="g1893" />
    <g
       transform="matrix(0.90699503,0,0,1.2511875,80.071018,-1.7481335)"
       id="g1897"
       style="display:inline">
      <g
         id="g1895" />
    </g>
    <g
       transform="matrix(-0.90699503,0,0,1.2511875,-80.071016,-1.7481335)"
       style="stroke-width:0.938721"
       id="g1899" />
    <g
       transform="matrix(-0.90699503,0,0,1.2511875,-80.071016,-1.7481335)"
       id="g1903">
      <g
         id="g1901" />
    </g>
    <g
       transform="matrix(-0.90699503,0,0,1.2511875,-80.071016,-1.7481335)"
       style="display:inline;stroke-width:0.938721"
       id="g1905" />
    <g
       transform="matrix(-0.90699503,0,0,1.2511875,-80.071016,-1.7481335)"
       id="g1909"
       style="display:inline">
      <g
         id="g1907" />
    </g>
    <path
       style="fill:#000000;fill-opacity:1;stroke:none;stroke-width:0.218442px;stroke-linecap:butt;stroke-linejoin:miter;stroke-opacity:1"
       d="m 0,51.756364 c -6.80768,0.09504 -11.451559,2.034184 -15.665191,7.965835 l -4.372302,57.492771 c 2.142707,43.2227 7.417112,51.51743 9.249066,60.41715 C -8.326051,181.98395 0,194.83689 0,194.83689 Z"
       id="path8418"
       sodipodi:nodetypes="cccccc" />
    <path
       style="fill:none;stroke:#000000;stroke-width:5.29167;stroke-linecap:round;stroke-linejoin:miter;stroke-miterlimit:4;stroke-dasharray:none;stroke-opacity:1"
       d="M -3.022663,58.694712 C -12.033177,44.611338 -18.693317,38.614328 -29.994227,35.062485"
       id="path8420"
       sodipodi:nodetypes="cc" />
    <path
       style="fill:none;stroke:#000000;stroke-width:10.5833;stroke-linecap:round;stroke-linejoin:round;stroke-miterlimit:4;stroke-dasharray:none;stroke-opacity:1"
       d="M -15.866264,82.070066 -38.980533,73.772582 -46.214899,54.961161"
       id="path8422"
       sodipodi:nodetypes="ccc" />
    <path
       style="fill:none;stroke:#000000;stroke-width:10.5833;stroke-linecap:round;stroke-linejoin:round;stroke-miterlimit:4;stroke-dasharray:none;stroke-opacity:1"
       d="M -18.691857,96.454896 -38.506633,99.340259 -50.80086,116.49092"
       id="path8424"
       sodipodi:nodetypes="ccc" />
    <path
       style="fill:#000000;fill-opacity:1;stroke:none;stroke-width:0.218442px;stroke-linecap:butt;stroke-linejoin:miter;stroke-opacity:1"
       d="m -15.866264,121.11462 c -18.197769,-1.85425 -63.596416,30.94594 -60.468664,37.60955 3.044444,11.94524 36.804245,40.46466 41.906007,41.77936 5.101762,1.3147 11.491901,-0.55477 5.053293,-8.16233 -6.438607,-7.60756 -31.513344,-26.84427 -30.708662,-32.4679 7.817338,-7.09713 34.955393,-8.73778 45.510604,-16.09357 z"
       id="path8426"
       sodipodi:nodetypes="cczzccc" />
  </g>
</svg>
