<?xml version="1.0" encoding="UTF-8" standalone="no"?>
<svg
   xmlns:dc="http://purl.org/dc/elements/1.1/"
   xmlns:cc="http://creativecommons.org/ns#"
   xmlns:rdf="http://www.w3.org/1999/02/22-rdf-syntax-ns#"
   xmlns:svg="http://www.w3.org/2000/svg"
   xmlns="http://www.w3.org/2000/svg"
   xmlns:sodipodi="http://sodipodi.sourceforge.net/DTD/sodipodi-0.dtd"
   xmlns:inkscape="http://www.inkscape.org/namespaces/inkscape"
   width="300"
   height="700"
   viewBox="0 0 79.374999 185.20834"
   version="1.1"
   id="svg8"
   inkscape:version="1.0.1 (c497b03c, 2020-09-10)"
   sodipodi:docname="grasshopper-tile.svg"
   inkscape:export-filename="/Users/tass/bee.png"
   inkscape:export-xdpi="96"
   inkscape:export-ydpi="96">
  <defs
     id="defs2" />
  <sodipodi:namedview
     id="base"
     pagecolor="#ffffff"
     bordercolor="#666666"
     borderopacity="1.0"
     inkscape:pageopacity="0.0"
     inkscape:pageshadow="2"
     inkscape:zoom="1.144813"
     inkscape:cx="107.49535"
     inkscape:cy="333.28815"
     inkscape:document-units="px"
     inkscape:current-layer="g9100"
     showgrid="false"
     showguides="false"
     inkscape:guide-bbox="true"
     inkscape:lockguides="false"
     units="px"
     inkscape:window-width="1860"
     inkscape:window-height="1287"
     inkscape:window-x="0"
     inkscape:window-y="22"
     inkscape:window-maximized="0"
     inkscape:document-rotation="0">
    <sodipodi:guide
       position="105.83333,0"
       orientation="1,0"
       id="guide954"
       inkscape:locked="false"
       inkscape:label=""
       inkscape:color="rgb(0,0,255)" />
    <sodipodi:guide
       position="97.895834,0"
       orientation="1,0"
       id="guide4710"
       inkscape:locked="false"
       inkscape:label=""
       inkscape:color="rgb(0,0,255)" />
    <sodipodi:guide
       position="113.77083,0"
       orientation="1,0"
       id="guide4712"
       inkscape:locked="false"
       inkscape:label=""
       inkscape:color="rgb(0,0,255)" />
  </sodipodi:namedview>
  <metadata
     id="metadata5">
    <rdf:RDF>
      <cc:Work
         rdf:about="">
        <dc:format>image/svg+xml</dc:format>
        <dc:type
           rdf:resource="http://purl.org/dc/dcmitype/StillImage" />
        <dc:title></dc:title>
      </cc:Work>
    </rdf:RDF>
  </metadata>
  <g
     inkscape:label="tile"
     inkscape:groupmode="layer"
     id="g9100"
     transform="translate(0,-32.41665)"
     style="display:inline">
    <g
       transform="matrix(0.90699503,0,0,1.2511875,80.071016,-1.7481335)"
       style="stroke-width:0.938721"
       id="g8888" />
    <g
       transform="matrix(0.90699503,0,0,1.2511875,80.071016,-1.7481335)"
       id="g8892">
      <g
         id="g8890" />
    </g>
    <g
       transform="matrix(0.90699503,0,0,1.2511875,80.071016,-1.7481335)"
       style="display:inline;stroke-width:0.938721"
       id="g8894" />
    <g
       transform="matrix(0.90699503,0,0,1.2511875,80.071016,-1.7481335)"
       id="g8898"
       style="display:inline">
      <g
         id="g8896" />
    </g>
    <path
       id="path8900"
       style="fill:#ff0000;fill-opacity:1;stroke:none;stroke-width:0.218442px;stroke-linecap:butt;stroke-linejoin:miter;stroke-opacity:1"
       d="M 0,50.666016 V 198.90942 c 4.6729014,-7.30283 7.8676403,-13.21493 12.28125,-20.67895 1.422386,-6.12109 3.555376,-12.06139 4.684463,-18.25261 2.816471,-13.73228 3.81706,-27.75324 4.603963,-41.72471 0.0501,-3.19267 -0.413965,-6.36388 -0.5885,-9.54776 C 19.726138,92.190282 18.467851,75.675409 17.214844,59.160156 14.478992,55.04357 10.322573,51.650067 5.3759248,50.724106 3.089874,50.229845 2.3298917,50.17305 0,50.121094 Z"
       sodipodi:nodetypes="cccccccccc" />
    <path
       style="fill:none;stroke:#ff0000;stroke-width:7.93750009;stroke-linecap:round;stroke-linejoin:miter;stroke-miterlimit:4;stroke-dasharray:none;stroke-opacity:1"
       d="M 3.0226628,58.694712 C 12.033177,44.611338 18.693317,38.614328 29.994227,35.062485"
       id="path8902"
       sodipodi:nodetypes="cc" />
    <path
       style="fill:none;stroke:#ff0000;stroke-width:13.22916682;stroke-linecap:round;stroke-linejoin:round;stroke-miterlimit:4;stroke-dasharray:none;stroke-opacity:1"
       d="M 15.866264,82.070066 38.980533,73.772582 46.214899,54.961161"
       id="path8904"
       sodipodi:nodetypes="ccc" />
    <path
       style="fill:none;stroke:#ff0000;stroke-width:13.22916682;stroke-linecap:round;stroke-linejoin:round;stroke-miterlimit:4;stroke-dasharray:none;stroke-opacity:1"
       d="M 18.691857,96.454896 38.506633,99.340259 50.80086,116.49092"
       id="path8906"
       sodipodi:nodetypes="ccc" />
    <path
       id="path8908"
       style="fill:#ff0000;fill-opacity:1;stroke:none;stroke-width:0.21844200000000000px;stroke-linecap:butt;stroke-linejoin:miter;stroke-opacity:1"
       d="m 16.724609,119.46484 c -0.837925,0.0445 -2.010635,-0.0491 -2.347656,0.9336 -0.241789,1.93745 -0.242077,3.92095 -0.391402,5.87605 -0.348835,6.10641 -0.696583,12.21289 -1.046098,18.31926 5.291089,3.73783 11.657013,5.38362 17.816597,7.06928 7.851402,2.08711 15.861096,3.55309 23.431773,6.56399 1.435937,0.60996 2.967258,1.34096 4.214521,2.35501 -0.669568,2.00299 -2.223591,3.53455 -3.538203,5.12994 -5.23761,5.84733 -11.266058,10.92752 -17.03331,16.25425 -3.610583,3.29542 -7.340053,6.51404 -10.433049,10.31698 -1.428392,1.83824 -2.703005,4.18733 -2.179994,6.58419 0.582839,2.14268 2.804912,3.3883 4.912831,3.51688 2.733937,0.37328 5.590206,-0.31308 7.820557,-1.94954 4.627832,-2.95089 8.806343,-6.5383 12.997545,-10.06527 7.376564,-6.35626 14.439423,-13.1278 20.637011,-20.65264 2.534985,-3.13787 4.938247,-6.50483 6.244346,-10.35744 0.460548,-1.42652 0.12664,-2.95613 -0.610693,-4.22388 -1.454535,-2.65734 -3.666393,-4.79602 -5.793946,-6.91325 -5.171893,-4.9236 -10.981379,-9.12592 -16.899988,-13.09853 -8.181166,-5.40133 -16.833743,-10.20773 -26.09623,-13.48857 -3.761491,-1.29356 -7.705684,-2.22163 -11.704612,-2.17031 z" />
    <g
       transform="matrix(-0.90699503,0,0,1.2511875,-80.071016,-1.7481335)"
       style="stroke-width:0.938721"
       id="g8910" />
    <g
       transform="matrix(-0.90699503,0,0,1.2511875,-80.071016,-1.7481335)"
       id="g8914">
      <g
         id="g8912" />
    </g>
    <g
       transform="matrix(-0.90699503,0,0,1.2511875,-80.071016,-1.7481335)"
       style="display:inline;stroke-width:0.938721"
       id="g8916" />
    <g
       transform="matrix(-0.90699503,0,0,1.2511875,-80.071016,-1.7481335)"
       id="g8920"
       style="display:inline">
      <g
         id="g8918" />
    </g>
    <g
       transform="matrix(0.90699503,0,0,1.2511875,80.071016,-1.7481335)"
       style="stroke-width:0.938721"
       id="g8922" />
    <g
       transform="matrix(0.90699503,0,0,1.2511875,80.071016,-1.7481335)"
       id="g8926">
      <g
         id="g8924" />
    </g>
    <g
       transform="matrix(0.90699503,0,0,1.2511875,80.071016,-1.7481335)"
       style="display:inline;stroke-width:0.938721"
       id="g8928" />
    <g
       transform="matrix(0.90699503,0,0,1.2511875,80.071016,-1.7481335)"
       id="g8932"
       style="display:inline">
      <g
         id="g8930" />
    </g>
    <g
       transform="matrix(-0.90699503,0,0,1.2511875,-80.071016,-1.7481335)"
       style="stroke-width:0.938721"
       id="g8934" />
    <g
       transform="matrix(-0.90699503,0,0,1.2511875,-80.071016,-1.7481335)"
       id="g8938">
      <g
         id="g8936" />
    </g>
    <g
       transform="matrix(-0.90699503,0,0,1.2511875,-80.071016,-1.7481335)"
       style="display:inline;stroke-width:0.938721"
       id="g8940" />
    <g
       transform="matrix(-0.90699503,0,0,1.2511875,-80.071016,-1.7481335)"
       id="g8944"
       style="display:inline">
      <g
         id="g8942" />
    </g>
    <g
       transform="matrix(-0.90699503,0,0,1.2511875,-80.071016,-1.7481335)"
       style="stroke-width:0.938721"
       id="g8946" />
    <g
       transform="matrix(-0.90699503,0,0,1.2511875,-80.071016,-1.7481335)"
       id="g8950">
      <g
         id="g8948" />
    </g>
    <g
       transform="matrix(-0.90699503,0,0,1.2511875,-80.071016,-1.7481335)"
       style="display:inline;stroke-width:0.938721"
       id="g8952" />
    <g
       transform="matrix(-0.90699503,0,0,1.2511875,-80.071016,-1.7481335)"
       id="g8956"
       style="display:inline">
      <g
         id="g8954" />
    </g>
    <g
       transform="matrix(0.90699503,0,0,1.2511875,80.071016,-1.7481335)"
       style="stroke-width:0.938721"
       id="g8958" />
    <g
       transform="matrix(0.90699503,0,0,1.2511875,80.071016,-1.7481335)"
       id="g8962">
      <g
         id="g8960" />
    </g>
    <g
       transform="matrix(0.90699503,0,0,1.2511875,80.071016,-1.7481335)"
       style="display:inline;stroke-width:0.938721"
       id="g8964" />
    <g
       transform="matrix(0.90699503,0,0,1.2511875,80.071016,-1.7481335)"
       id="g8968"
       style="display:inline">
      <g
         id="g8966" />
    </g>
    <g
       transform="matrix(-0.90699503,0,0,1.2511875,-80.071016,-1.7481335)"
       style="stroke-width:0.938721"
       id="g8970" />
    <g
       transform="matrix(-0.90699503,0,0,1.2511875,-80.071016,-1.7481335)"
       id="g8974">
      <g
         id="g8972" />
    </g>
    <g
       transform="matrix(-0.90699503,0,0,1.2511875,-80.071016,-1.7481335)"
       style="display:inline;stroke-width:0.938721"
       id="g8976" />
    <g
       transform="matrix(-0.90699503,0,0,1.2511875,-80.071016,-1.7481335)"
       id="g8980"
       style="display:inline">
      <g
         id="g8978" />
    </g>
    <g
       transform="matrix(0.90699503,0,0,1.2511875,80.071016,-1.7481335)"
       style="stroke-width:0.938721"
       id="g8982" />
    <g
       transform="matrix(0.90699503,0,0,1.2511875,80.071016,-1.7481335)"
       id="g8986">
      <g
         id="g8984" />
    </g>
    <g
       transform="matrix(0.90699503,0,0,1.2511875,80.071016,-1.7481335)"
       style="display:inline;stroke-width:0.938721"
       id="g8988" />
    <g
       transform="matrix(0.90699503,0,0,1.2511875,80.071016,-1.7481335)"
       id="g8992"
       style="display:inline">
      <g
         id="g8990" />
    </g>
    <g
       transform="matrix(-0.90699503,0,0,1.2511875,-80.071016,-1.7481335)"
       style="stroke-width:0.938721"
       id="g8994" />
    <g
       transform="matrix(-0.90699503,0,0,1.2511875,-80.071016,-1.7481335)"
       id="g8998">
      <g
         id="g8996" />
    </g>
    <g
       transform="matrix(-0.90699503,0,0,1.2511875,-80.071016,-1.7481335)"
       style="display:inline;stroke-width:0.938721"
       id="g9000" />
    <g
       transform="matrix(-0.90699503,0,0,1.2511875,-80.071016,-1.7481335)"
       id="g9004"
       style="display:inline">
      <g
         id="g9002" />
    </g>
    <g
       transform="matrix(0.90699503,0,0,1.2511875,80.071018,-1.7481335)"
       style="stroke-width:0.938721"
       id="g9006" />
    <g
       transform="matrix(0.90699503,0,0,1.2511875,80.071018,-1.7481335)"
       id="g9010">
      <g
         id="g9008" />
    </g>
    <g
       transform="matrix(0.90699503,0,0,1.2511875,80.071018,-1.7481335)"
       style="display:inline;stroke-width:0.938721"
       id="g9012" />
    <g
       transform="matrix(0.90699503,0,0,1.2511875,80.071018,-1.7481335)"
       id="g9016"
       style="display:inline">
      <g
         id="g9014" />
    </g>
    <g
       transform="matrix(-0.90699503,0,0,1.2511875,-80.071016,-1.7481335)"
       style="stroke-width:0.938721"
       id="g9018" />
    <g
       transform="matrix(-0.90699503,0,0,1.2511875,-80.071016,-1.7481335)"
       id="g9022">
      <g
         id="g9020" />
    </g>
    <g
       transform="matrix(-0.90699503,0,0,1.2511875,-80.071016,-1.7481335)"
       style="display:inline;stroke-width:0.938721"
       id="g9024" />
    <g
       transform="matrix(-0.90699503,0,0,1.2511875,-80.071016,-1.7481335)"
       id="g9028"
       style="display:inline">
      <g
         id="g9026" />
    </g>
    <g
       transform="matrix(0.90699503,0,0,1.2511875,80.071018,-1.7481335)"
       style="stroke-width:0.938721"
       id="g9030" />
    <g
       transform="matrix(0.90699503,0,0,1.2511875,80.071018,-1.7481335)"
       id="g9034">
      <g
         id="g9032" />
    </g>
    <g
       transform="matrix(0.90699503,0,0,1.2511875,80.071018,-1.7481335)"
       style="display:inline;stroke-width:0.938721"
       id="g9036" />
    <g
       transform="matrix(0.90699503,0,0,1.2511875,80.071018,-1.7481335)"
       id="g9040"
       style="display:inline">
      <g
         id="g9038" />
    </g>
    <g
       transform="matrix(0.90699503,0,0,1.2511875,80.071018,-1.7481335)"
       style="stroke-width:0.938721"
       id="g9042" />
    <g
       transform="matrix(0.90699503,0,0,1.2511875,80.071018,-1.7481335)"
       id="g9046">
      <g
         id="g9044" />
    </g>
    <g
       transform="matrix(0.90699503,0,0,1.2511875,80.071018,-1.7481335)"
       style="display:inline;stroke-width:0.938721"
       id="g9048" />
    <g
       transform="matrix(0.90699503,0,0,1.2511875,80.071018,-1.7481335)"
       id="g9052"
       style="display:inline">
      <g
         id="g9050" />
    </g>
    <g
       transform="matrix(-0.90699503,0,0,1.2511875,-80.071016,-1.7481335)"
       style="stroke-width:0.938721"
       id="g9054" />
    <g
       transform="matrix(-0.90699503,0,0,1.2511875,-80.071016,-1.7481335)"
       id="g9058">
      <g
         id="g9056" />
    </g>
    <g
       transform="matrix(-0.90699503,0,0,1.2511875,-80.071016,-1.7481335)"
       style="display:inline;stroke-width:0.938721"
       id="g9060" />
    <g
       transform="matrix(-0.90699503,0,0,1.2511875,-80.071016,-1.7481335)"
       id="g9064"
       style="display:inline">
      <g
         id="g9062" />
    </g>
    <g
       transform="matrix(0.90699503,0,0,1.2511875,80.071018,-1.7481335)"
       style="stroke-width:0.938721"
       id="g9066" />
    <g
       transform="matrix(0.90699503,0,0,1.2511875,80.071018,-1.7481335)"
       id="g9070">
      <g
         id="g9068" />
    </g>
    <g
       transform="matrix(0.90699503,0,0,1.2511875,80.071018,-1.7481335)"
       style="display:inline;stroke-width:0.938721"
       id="g9072" />
    <g
       transform="matrix(0.90699503,0,0,1.2511875,80.071018,-1.7481335)"
       id="g9076"
       style="display:inline">
      <g
         id="g9074" />
    </g>
    <g
       transform="matrix(-0.90699503,0,0,1.2511875,-80.071016,-1.7481335)"
       style="stroke-width:0.938721"
       id="g9078" />
    <g
       transform="matrix(-0.90699503,0,0,1.2511875,-80.071016,-1.7481335)"
       id="g9082">
      <g
         id="g9080" />
    </g>
    <g
       transform="matrix(-0.90699503,0,0,1.2511875,-80.071016,-1.7481335)"
       style="display:inline;stroke-width:0.938721"
       id="g9084" />
    <g
       transform="matrix(-0.90699503,0,0,1.2511875,-80.071016,-1.7481335)"
       id="g9088"
       style="display:inline">
      <g
         id="g9086" />
    </g>
    <path
       style="fill:none;stroke:#ff0000;stroke-width:7.93750009;stroke-linecap:round;stroke-linejoin:miter;stroke-miterlimit:4;stroke-dasharray:none;stroke-opacity:1"
       d="M -3.022663,58.694712 C -12.033177,44.611338 -18.693317,38.614328 -29.994227,35.062485"
       id="path9092"
       sodipodi:nodetypes="cc" />
    <path
       style="fill:none;stroke:#ff0000;stroke-width:13.22916682;stroke-linecap:round;stroke-linejoin:round;stroke-miterlimit:4;stroke-dasharray:none;stroke-opacity:1"
       d="M -15.866264,82.070066 -38.980533,73.772582 -46.214899,54.961161"
       id="path9094"
       sodipodi:nodetypes="ccc" />
    <path
       style="fill:none;stroke:#ff0000;stroke-width:13.22916682;stroke-linecap:round;stroke-linejoin:round;stroke-miterlimit:4;stroke-dasharray:none;stroke-opacity:1"
       d="M -18.691857,96.454896 -38.506633,99.340259 -50.80086,116.49092"
       id="path9096"
       sodipodi:nodetypes="ccc" />
    <path
       id="path9098"
       style="fill:#ff0000;fill-opacity:1;stroke:none;stroke-width:0.21844200000000000px;stroke-linecap:butt;stroke-linejoin:miter;stroke-opacity:1"
       d="m -18.654297,119.48828 c -7.313292,0.6107 -14.138778,3.61522 -20.659458,6.78945 -10.278406,5.17213 -19.94606,11.55629 -28.769923,18.93755 -3.268289,2.77732 -6.446026,5.76485 -8.82555,9.35953 -0.965743,1.47557 -1.528262,3.39003 -0.795434,5.08558 1.320261,4.01788 4.025822,7.36547 6.598582,10.64705 5.357769,6.49329 11.471041,12.32164 17.72617,17.94036 4.998412,4.41968 10.139407,8.71601 15.711538,12.39936 1.672795,1.09952 3.61633,1.77871 5.625885,1.81691 2.201762,0.12039 4.714268,-0.36763 6.146135,-2.18702 1.249119,-1.72255 0.922294,-4.10134 -0.126205,-5.83697 -1.794154,-3.38738 -4.799404,-5.87621 -7.490766,-8.52295 -7.454477,-7.01368 -15.454175,-13.4952 -22.230601,-21.2008 -1.067112,-1.26488 -2.120088,-2.61736 -2.68967,-4.17922 3.150092,-2.18999 6.860375,-3.39982 10.487989,-4.45455 9.779217,-2.92807 20.088549,-4.46351 29.579822,-8.44378 1.90614,-0.82952 3.733808,-1.84168 5.42633,-3.05089 -0.474936,-8.317 -0.949681,-16.63402 -1.421875,-24.95117 -1.427687,-0.11818 -2.859596,-0.23184 -4.292969,-0.14844 z" />
    <path
       id="path9114"
       style="fill:#ff0000;fill-opacity:1;stroke:none;stroke-width:0.218442px;stroke-linecap:butt;stroke-linejoin:miter;stroke-opacity:1"
       d="M 0,50.666016 V 198.90942 c -4.672901,-7.30283 -7.86764,-13.21493 -12.28125,-20.67895 -1.422386,-6.12109 -3.555376,-12.06139 -4.684463,-18.25261 -2.816471,-13.73228 -3.81706,-27.75324 -4.603963,-41.72471 -0.0501,-3.19267 0.413965,-6.36388 0.5885,-9.54776 1.255038,-16.515108 2.513325,-33.029981 3.766332,-49.545234 2.735852,-4.116586 6.892271,-7.510089 11.838919,-8.43605 C -3.089874,50.229845 -2.329892,50.17305 0,50.121094 Z"
       sodipodi:nodetypes="cccccccccc" />
  </g>
  <g
     inkscape:label="bug"
     inkscape:groupmode="layer"
     id="layer1"
     transform="translate(0,-32.41665)"
     style="display:inline">
    <g
       transform="matrix(0.90699503,0,0,1.2511875,80.071016,-1.7481335)"
       style="stroke-width:0.938721"
       id="g4730" />
    <g
       transform="matrix(0.90699503,0,0,1.2511875,80.071016,-1.7481335)"
       id="g952">
      <g
         id="g950" />
    </g>
    <g
       transform="matrix(0.90699503,0,0,1.2511875,80.071016,-1.7481335)"
       style="display:inline;stroke-width:0.938721"
       id="g875" />
    <g
       transform="matrix(0.90699503,0,0,1.2511875,80.071016,-1.7481335)"
       id="g879"
       style="display:inline">
      <g
         id="g877" />
    </g>
    <path
       style="fill:#000000;fill-opacity:1;stroke:none;stroke-width:0.218442px;stroke-linecap:butt;stroke-linejoin:miter;stroke-opacity:1"
       d="m 0,51.756364 c 6.8076804,0.09504 11.451559,2.034184 15.665191,7.965835 l 4.372302,57.492771 c -2.142707,43.2227 -7.417112,51.51743 -9.249066,60.41715 C 8.3260513,181.98395 0,194.83689 0,194.83689 Z"
       id="path941"
       sodipodi:nodetypes="cccccc" />
    <path
       style="fill:none;stroke:#000000;stroke-width:5.29167;stroke-linecap:round;stroke-linejoin:miter;stroke-miterlimit:4;stroke-dasharray:none;stroke-opacity:1"
       d="M 3.0226628,58.694712 C 12.033177,44.611338 18.693317,38.614328 29.994227,35.062485"
       id="path943"
       sodipodi:nodetypes="cc" />
    <path
       style="fill:none;stroke:#000000;stroke-width:10.5833;stroke-linecap:round;stroke-linejoin:round;stroke-miterlimit:4;stroke-dasharray:none;stroke-opacity:1"
       d="M 15.866264,82.070066 38.980533,73.772582 46.214899,54.961161"
       id="path1604"
       sodipodi:nodetypes="ccc" />
    <path
       style="fill:none;stroke:#000000;stroke-width:10.5833;stroke-linecap:round;stroke-linejoin:round;stroke-miterlimit:4;stroke-dasharray:none;stroke-opacity:1"
       d="M 18.691857,96.454896 38.506633,99.340259 50.80086,116.49092"
       id="path1606"
       sodipodi:nodetypes="ccc" />
    <path
       style="fill:#000000;fill-opacity:1;stroke:none;stroke-width:0.218442px;stroke-linecap:butt;stroke-linejoin:miter;stroke-opacity:1"
       d="m 15.866264,121.11462 c 18.197769,-1.85425 63.596416,30.94594 60.468664,37.60955 -3.044444,11.94524 -36.804245,40.46466 -41.906007,41.77936 -5.101762,1.3147 -11.491901,-0.55477 -5.053293,-8.16233 6.438607,-7.60756 31.513344,-26.84427 30.708662,-32.4679 -7.817338,-7.09713 -34.955393,-8.73778 -45.510604,-16.09357 z"
       id="path1608"
       sodipodi:nodetypes="cczzccc" />
    <g
       transform="matrix(-0.90699503,0,0,1.2511875,-80.071016,-1.7481335)"
       style="stroke-width:0.938721"
       id="g1620" />
    <g
       transform="matrix(-0.90699503,0,0,1.2511875,-80.071016,-1.7481335)"
       id="g1624">
      <g
         id="g1622" />
    </g>
    <g
       transform="matrix(-0.90699503,0,0,1.2511875,-80.071016,-1.7481335)"
       style="display:inline;stroke-width:0.938721"
       id="g1626" />
    <g
       transform="matrix(-0.90699503,0,0,1.2511875,-80.071016,-1.7481335)"
       id="g1630"
       style="display:inline">
      <g
         id="g1628" />
    </g>
    <g
       transform="matrix(0.90699503,0,0,1.2511875,80.071016,-1.7481335)"
       style="stroke-width:0.938721"
       id="g1642" />
    <g
       transform="matrix(0.90699503,0,0,1.2511875,80.071016,-1.7481335)"
       id="g1646">
      <g
         id="g1644" />
    </g>
    <g
       transform="matrix(0.90699503,0,0,1.2511875,80.071016,-1.7481335)"
       style="display:inline;stroke-width:0.938721"
       id="g1648" />
    <g
       transform="matrix(0.90699503,0,0,1.2511875,80.071016,-1.7481335)"
       id="g1652"
       style="display:inline">
      <g
         id="g1650" />
    </g>
    <g
       transform="matrix(-0.90699503,0,0,1.2511875,-80.071016,-1.7481335)"
       style="stroke-width:0.938721"
       id="g1664" />
    <g
       transform="matrix(-0.90699503,0,0,1.2511875,-80.071016,-1.7481335)"
       id="g1668">
      <g
         id="g1666" />
    </g>
    <g
       transform="matrix(-0.90699503,0,0,1.2511875,-80.071016,-1.7481335)"
       style="display:inline;stroke-width:0.938721"
       id="g1670" />
    <g
       transform="matrix(-0.90699503,0,0,1.2511875,-80.071016,-1.7481335)"
       id="g1674"
       style="display:inline">
      <g
         id="g1672" />
    </g>
    <g
       transform="matrix(-0.90699503,0,0,1.2511875,-80.071016,-1.7481335)"
       style="stroke-width:0.938721"
       id="g1676" />
    <g
       transform="matrix(-0.90699503,0,0,1.2511875,-80.071016,-1.7481335)"
       id="g1680">
      <g
         id="g1678" />
    </g>
    <g
       transform="matrix(-0.90699503,0,0,1.2511875,-80.071016,-1.7481335)"
       style="display:inline;stroke-width:0.938721"
       id="g1682" />
    <g
       transform="matrix(-0.90699503,0,0,1.2511875,-80.071016,-1.7481335)"
       id="g1686"
       style="display:inline">
      <g
         id="g1684" />
    </g>
    <g
       transform="matrix(0.90699503,0,0,1.2511875,80.071016,-1.7481335)"
       style="stroke-width:0.938721"
       id="g1698" />
    <g
       transform="matrix(0.90699503,0,0,1.2511875,80.071016,-1.7481335)"
       id="g1702">
      <g
         id="g1700" />
    </g>
    <g
       transform="matrix(0.90699503,0,0,1.2511875,80.071016,-1.7481335)"
       style="display:inline;stroke-width:0.938721"
       id="g1704" />
    <g
       transform="matrix(0.90699503,0,0,1.2511875,80.071016,-1.7481335)"
       id="g1708"
       style="display:inline">
      <g
         id="g1706" />
    </g>
    <g
       transform="matrix(-0.90699503,0,0,1.2511875,-80.071016,-1.7481335)"
       style="stroke-width:0.938721"
       id="g1710" />
    <g
       transform="matrix(-0.90699503,0,0,1.2511875,-80.071016,-1.7481335)"
       id="g1714">
      <g
         id="g1712" />
    </g>
    <g
       transform="matrix(-0.90699503,0,0,1.2511875,-80.071016,-1.7481335)"
       style="display:inline;stroke-width:0.938721"
       id="g1716" />
    <g
       transform="matrix(-0.90699503,0,0,1.2511875,-80.071016,-1.7481335)"
       id="g1720"
       style="display:inline">
      <g
         id="g1718" />
    </g>
    <g
       transform="matrix(0.90699503,0,0,1.2511875,80.071016,-1.7481335)"
       style="stroke-width:0.938721"
       id="g1732" />
    <g
       transform="matrix(0.90699503,0,0,1.2511875,80.071016,-1.7481335)"
       id="g1736">
      <g
         id="g1734" />
    </g>
    <g
       transform="matrix(0.90699503,0,0,1.2511875,80.071016,-1.7481335)"
       style="display:inline;stroke-width:0.938721"
       id="g1738" />
    <g
       transform="matrix(0.90699503,0,0,1.2511875,80.071016,-1.7481335)"
       id="g1742"
       style="display:inline">
      <g
         id="g1740" />
    </g>
    <g
       transform="matrix(-0.90699503,0,0,1.2511875,-80.071016,-1.7481335)"
       style="stroke-width:0.938721"
       id="g1805" />
    <g
       transform="matrix(-0.90699503,0,0,1.2511875,-80.071016,-1.7481335)"
       id="g1809">
      <g
         id="g1807" />
    </g>
    <g
       transform="matrix(-0.90699503,0,0,1.2511875,-80.071016,-1.7481335)"
       style="display:inline;stroke-width:0.938721"
       id="g1811" />
    <g
       transform="matrix(-0.90699503,0,0,1.2511875,-80.071016,-1.7481335)"
       id="g1815"
       style="display:inline">
      <g
         id="g1813" />
    </g>
    <g
       transform="matrix(0.90699503,0,0,1.2511875,80.071018,-1.7481335)"
       style="stroke-width:0.938721"
       id="g1827" />
    <g
       transform="matrix(0.90699503,0,0,1.2511875,80.071018,-1.7481335)"
       id="g1831">
      <g
         id="g1829" />
    </g>
    <g
       transform="matrix(0.90699503,0,0,1.2511875,80.071018,-1.7481335)"
       style="display:inline;stroke-width:0.938721"
       id="g1833" />
    <g
       transform="matrix(0.90699503,0,0,1.2511875,80.071018,-1.7481335)"
       id="g1837"
       style="display:inline">
      <g
         id="g1835" />
    </g>
    <g
       transform="matrix(-0.90699503,0,0,1.2511875,-80.071016,-1.7481335)"
       style="stroke-width:0.938721"
       id="g1839" />
    <g
       transform="matrix(-0.90699503,0,0,1.2511875,-80.071016,-1.7481335)"
       id="g1843">
      <g
         id="g1841" />
    </g>
    <g
       transform="matrix(-0.90699503,0,0,1.2511875,-80.071016,-1.7481335)"
       style="display:inline;stroke-width:0.938721"
       id="g1845" />
    <g
       transform="matrix(-0.90699503,0,0,1.2511875,-80.071016,-1.7481335)"
       id="g1849"
       style="display:inline">
      <g
         id="g1847" />
    </g>
    <g
       transform="matrix(0.90699503,0,0,1.2511875,80.071018,-1.7481335)"
       style="stroke-width:0.938721"
       id="g1851" />
    <g
       transform="matrix(0.90699503,0,0,1.2511875,80.071018,-1.7481335)"
       id="g1855">
      <g
         id="g1853" />
    </g>
    <g
       transform="matrix(0.90699503,0,0,1.2511875,80.071018,-1.7481335)"
       style="display:inline;stroke-width:0.938721"
       id="g1857" />
    <g
       transform="matrix(0.90699503,0,0,1.2511875,80.071018,-1.7481335)"
       id="g1861"
       style="display:inline">
      <g
         id="g1859" />
    </g>
    <g
       transform="matrix(0.90699503,0,0,1.2511875,80.071018,-1.7481335)"
       style="stroke-width:0.938721"
       id="g1863" />
    <g
       transform="matrix(0.90699503,0,0,1.2511875,80.071018,-1.7481335)"
       id="g1867">
      <g
         id="g1865" />
    </g>
    <g
       transform="matrix(0.90699503,0,0,1.2511875,80.071018,-1.7481335)"
       style="display:inline;stroke-width:0.938721"
       id="g1869" />
    <g
       transform="matrix(0.90699503,0,0,1.2511875,80.071018,-1.7481335)"
       id="g1873"
       style="display:inline">
      <g
         id="g1871" />
    </g>
    <g
       transform="matrix(-0.90699503,0,0,1.2511875,-80.071016,-1.7481335)"
       style="stroke-width:0.938721"
       id="g1875" />
    <g
       transform="matrix(-0.90699503,0,0,1.2511875,-80.071016,-1.7481335)"
       id="g1879">
      <g
         id="g1877" />
    </g>
    <g
       transform="matrix(-0.90699503,0,0,1.2511875,-80.071016,-1.7481335)"
       style="display:inline;stroke-width:0.938721"
       id="g1881" />
    <g
       transform="matrix(-0.90699503,0,0,1.2511875,-80.071016,-1.7481335)"
       id="g1885"
       style="display:inline">
      <g
         id="g1883" />
    </g>
    <g
       transform="matrix(0.90699503,0,0,1.2511875,80.071018,-1.7481335)"
       style="stroke-width:0.938721"
       id="g1887" />
    <g
       transform="matrix(0.90699503,0,0,1.2511875,80.071018,-1.7481335)"
       id="g1891">
      <g
         id="g1889" />
    </g>
    <g
       transform="matrix(0.90699503,0,0,1.2511875,80.071018,-1.7481335)"
       style="display:inline;stroke-width:0.938721"
       id="g1893" />
    <g
       transform="matrix(0.90699503,0,0,1.2511875,80.071018,-1.7481335)"
       id="g1897"
       style="display:inline">
      <g
         id="g1895" />
    </g>
    <g
       transform="matrix(-0.90699503,0,0,1.2511875,-80.071016,-1.7481335)"
       style="stroke-width:0.938721"
       id="g1899" />
    <g
       transform="matrix(-0.90699503,0,0,1.2511875,-80.071016,-1.7481335)"
       id="g1903">
      <g
         id="g1901" />
    </g>
    <g
       transform="matrix(-0.90699503,0,0,1.2511875,-80.071016,-1.7481335)"
       style="display:inline;stroke-width:0.938721"
       id="g1905" />
    <g
       transform="matrix(-0.90699503,0,0,1.2511875,-80.071016,-1.7481335)"
       id="g1909"
       style="display:inline">
      <g
         id="g1907" />
    </g>
    <path
       style="fill:#000000;fill-opacity:1;stroke:none;stroke-width:0.218442px;stroke-linecap:butt;stroke-linejoin:miter;stroke-opacity:1"
       d="m 0,51.756364 c -6.80768,0.09504 -11.451559,2.034184 -15.665191,7.965835 l -4.372302,57.492771 c 2.142707,43.2227 7.417112,51.51743 9.249066,60.41715 C -8.326051,181.98395 0,194.83689 0,194.83689 Z"
       id="path8418"
       sodipodi:nodetypes="cccccc" />
    <path
       style="fill:none;stroke:#000000;stroke-width:5.29166673;stroke-linecap:round;stroke-linejoin:miter;stroke-miterlimit:4;stroke-dasharray:none;stroke-opacity:1"
       d="M -3.022663,58.694712 C -12.033177,44.611338 -18.693317,38.614328 -29.994227,35.062485"
       id="path8420"
       sodipodi:nodetypes="cc" />
    <path
       style="fill:none;stroke:#000000;stroke-width:10.5833;stroke-linecap:round;stroke-linejoin:round;stroke-miterlimit:4;stroke-dasharray:none;stroke-opacity:1"
       d="M -15.866264,82.070066 -38.980533,73.772582 -46.214899,54.961161"
       id="path8422"
       sodipodi:nodetypes="ccc" />
    <path
       style="fill:none;stroke:#000000;stroke-width:10.5833;stroke-linecap:round;stroke-linejoin:round;stroke-miterlimit:4;stroke-dasharray:none;stroke-opacity:1"
       d="M -18.691857,96.454896 -38.506633,99.340259 -50.80086,116.49092"
       id="path8424"
       sodipodi:nodetypes="ccc" />
    <path
       style="fill:#000000;fill-opacity:1;stroke:none;stroke-width:0.218442px;stroke-linecap:butt;stroke-linejoin:miter;stroke-opacity:1"
       d="m -15.866264,121.11462 c -18.197769,-1.85425 -63.596416,30.94594 -60.468664,37.60955 3.044444,11.94524 36.804245,40.46466 41.906007,41.77936 5.101762,1.3147 11.491901,-0.55477 5.053293,-8.16233 -6.438607,-7.60756 -31.513344,-26.84427 -30.708662,-32.4679 7.817338,-7.09713 34.955393,-8.73778 45.510604,-16.09357 z"
       id="path8426"
       sodipodi:nodetypes="cczzccc" />
  </g>
</svg>
