<?xml version="1.0" standalone="no"?>
<!DOCTYPE svg PUBLIC "-//W3C//DTD SVG 1.1//EN" "http://www.w3.org/Graphics/SVG/1.1/DTD/svg11.dtd">
<svg width="22mm" height="8mm" viewBox="-2 -2 22 8" xmlns="http://www.w3.org/2000/svg" version="1.1">
<title>OpenSCAD Model</title>
<path d="
M 19.732,0.999985 L 19.732,-1 L 18,-1.99998 L 16.2679,-0.999985 L 16.2679,1 L 18,1.99998
 z
M 16.571,0.824997 L 16.571,-0.824997 L 18,-1.64999 L 19.4289,-0.824997 L 19.4289,0.824997 L 18,1.64999
 z
M 17.8278,0.894745 L 17.9563,0.824249 L 18.0673,0.693741 L 18.1743,0.488235 L 18.6963,-0.937744 L 18.3373,-0.937744
 L 18.1423,-0.291748 L 18.0633,0.00524902 L 18.0333,0.125244 L 17.965,-0.122238 L 17.9103,-0.296738 L 17.7023,-0.937744
 L 17.3413,-0.937744 L 17.8623,0.40625 L 17.8168,0.507996 L 17.7763,0.575241 L 17.7355,0.617996 L 17.6893,0.64624
 L 17.635,0.662735 L 17.5683,0.668243 L 17.5123,0.665741 L 17.4503,0.658249 L 17.4503,0.902237 L 17.5508,0.914246
 L 17.6663,0.918243 z
M 1.73204,0.999985 L 1.73204,-1 L 0,-1.99998 L -1.73204,-0.999985 L -1.73204,1 L 0,1.99998
 z
M -1.42894,0.824997 L -1.42894,-0.824997 L 0,-1.64999 L 1.42894,-0.824997 L 1.42894,0.824997 L 0,1.64999
 z
M 0.258499,0.802246 L 0.394257,0.7715 L 0.394257,0.559494 L 0.328506,0.572235 L 0.279251,0.576492 L 0.21225,0.564987
 L 0.165253,0.530487 L 0.13826,0.471985 L 0.129257,0.388489 L 0.129257,-0.2995 L 0.379257,-0.2995 L 0.379257,-0.531494
 L 0.129257,-0.531494 L 0.129257,-0.851486 L -0.0847321,-0.851486 L -0.192734,-0.531494 L -0.376724,-0.531494 L -0.376724,-0.2995
 L -0.209732,-0.2995 L -0.209732,0.480499 L -0.189224,0.626495 L -0.127731,0.730499 L -0.0284882,0.791992 L 0.105255,0.8125
 z
M 5.33205,0.999985 L 5.33205,-1 L 3.59999,-1.99998 L 1.86794,-0.999985 L 1.86794,1 L 3.59999,1.99998
 z
M 2.17105,0.824997 L 2.17105,-0.824997 L 3.59999,-1.64999 L 5.02893,-0.824997 L 5.02893,0.824997 L 3.59999,1.64999
 z
M 3.89137,0.611496 L 4.10338,0.477249 L 4.23688,0.264236 L 4.28137,-0.0167389 L 4.23888,-0.303741 L 4.11137,-0.51474
 L 3.90312,-0.644485 L 3.61838,-0.687744 L 3.33815,-0.64299 L 3.1274,-0.508743 L 2.99614,-0.296249 L 2.95239,-0.0167389
 L 2.99614,0.263748 L 3.1274,0.477249 L 3.3364,0.611496 L 3.61137,0.65625 z
M 3.48039,0.394241 L 3.38739,0.310242 L 3.3304,0.172485 L 3.31139,-0.0167389 L 3.38939,-0.34375 L 3.62338,-0.452744
 L 3.75212,-0.426743 L 3.84637,-0.34874 L 3.90413,-0.214249 L 3.92337,-0.0167389 L 3.84438,0.3125 L 3.60738,0.422241
 z
M 16.132,0.999985 L 16.132,-1 L 14.4,-1.99998 L 12.6679,-0.999985 L 12.6679,1 L 14.4,1.99998
 z
M 12.9711,0.824997 L 12.9711,-0.824997 L 14.4,-1.64999 L 15.8289,-0.824997 L 15.8289,0.824997 L 14.4,1.64999
 z
M 14.1714,0.168991 L 14.1904,0.0169983 L 14.2474,-0.104996 L 14.3356,-0.185242 L 14.4484,-0.21199 L 14.6246,-0.125
 L 14.6834,0.135986 L 14.6834,0.875 L 15.0244,0.875 L 15.0244,0.0379944 L 14.9964,-0.180237 L 14.9124,-0.338989
 L 14.7759,-0.436493 L 14.5904,-0.468994 L 14.4554,-0.451736 L 14.3404,-0.399994 L 14.2449,-0.311249 L 14.1664,-0.181
 L 14.1614,-0.181 L 14.1689,-0.306488 L 14.1714,-0.434998 L 14.1714,-0.916992 L 13.8284,-0.916992 L 13.8284,0.875
 L 14.1714,0.875 z
M 8.93204,0.999985 L 8.93204,-1 L 7.2,-1.99998 L 5.46794,-0.999985 L 5.46794,1 L 7.2,1.99998
 z
M 5.77106,0.824997 L 5.77106,-0.824997 L 7.2,-1.64999 L 8.62894,-0.824997 L 8.62894,0.824997 L 7.2,1.64999
 z
M 7.80688,0.516495 L 7.80438,0.35524 L 7.80438,-0.687744 L 7.46239,-0.687744 L 7.46239,0.0192413 L 7.44339,0.171997
 L 7.38638,0.294235 L 7.29814,0.373749 L 7.18539,0.400238 L 7.0099,0.313248 L 6.9514,0.0522461 L 6.9514,-0.687744
 L 6.60941,-0.687744 L 6.60941,0.150238 L 6.63741,0.369247 L 6.72141,0.528244 L 6.85789,0.624237 L 7.0434,0.65625
 L 7.17841,0.639236 L 7.29338,0.588242 L 7.38988,0.499741 L 7.46738,0.370239 L 7.47339,0.370239 L 7.47713,0.488739
 L 7.48839,0.65625 L 7.81438,0.65625 z
M 12.532,0.999985 L 12.532,-1 L 10.8,-1.99998 L 9.06795,-0.999985 L 9.06795,1 L 10.8,1.99998
 z
M 9.37105,0.824997 L 9.37105,-0.824997 L 10.8,-1.64999 L 12.2289,-0.824997 L 12.2289,0.824997 L 10.8,1.64999
 z
M 10.9973,0.642746 L 11.1333,0.602249 L 11.2488,0.536987 L 11.3393,0.449249 L 11.403,0.342743 L 11.4363,0.223236
 L 11.0923,0.208237 L 11.0638,0.301239 L 11.0103,0.36824 L 10.937,0.408737 L 10.8473,0.422241 L 10.6455,0.311249
 L 10.5783,-0.0217438 L 10.6443,-0.344986 L 10.8423,-0.452744 L 10.937,-0.438248 L 11.0073,-0.394745 L 11.0553,-0.326996
 L 11.0813,-0.239746 L 11.4263,-0.256744 L 11.359,-0.436737 L 11.2353,-0.572739 L 11.063,-0.658997 L 10.8503,-0.687744
 L 10.5825,-0.64299 L 10.3833,-0.508743 L 10.2603,-0.294235 L 10.2193,-0.00874329 L 10.26,0.270737 L 10.3823,0.481247
 L 10.5795,0.612488 L 10.8453,0.65625 z
M 7.13205,4.09999 L 7.13205,2.09999 L 5.39999,1.09999 L 3.66794,2.09999 L 3.66794,4.09999 L 5.39999,5.09999
 z
M 3.97105,3.92499 L 3.97105,2.27499 L 5.39999,1.45 L 6.82893,2.27499 L 6.82893,3.92499 L 5.39999,4.74998
 z
M 5.1579,3.93698 L 5.16339,3.86899 L 5.16789,3.79498 L 5.1694,3.73898 L 5.1714,3.73898 L 5.23814,3.83974
 L 5.3284,3.91399 L 5.44012,3.95973 L 5.57138,3.97499 L 5.78638,3.93048 L 5.94537,3.79698 L 6.04362,3.58324
 L 6.07639,3.29799 L 6.04514,3.01599 L 5.95139,2.806 L 5.79913,2.67474 L 5.59238,2.631 L 5.33464,2.69424
 L 5.1714,2.884 L 5.1664,2.884 L 5.1714,2.675 L 5.1714,2.183 L 4.8284,2.183 L 4.8284,3.67699
 L 4.82614,3.84448 L 4.8194,3.97499 L 5.1514,3.97499 z
M 5.3259,3.71248 L 5.2374,3.62698 L 5.18414,3.49048 L 5.1664,3.30899 L 5.1844,3.12099 L 5.2384,2.983
 L 5.3279,2.89749 L 5.45038,2.869 L 5.56963,2.89549 L 5.65338,2.97499 L 5.70288,3.10823 L 5.71938,3.29799
 L 5.65138,3.63023 L 5.44739,3.74098 z
M 10.732,4.09999 L 10.732,2.09999 L 9,1.09999 L 7.26794,2.09999 L 7.26794,4.09999 L 9,5.09999
 z
M 7.57104,3.92499 L 7.57104,2.27499 L 9,1.45 L 10.4289,2.27499 L 10.4289,3.92499 L 9,4.74998
 z
M 9.60689,3.61649 L 9.60439,3.45523 L 9.60439,2.41225 L 9.26239,2.41225 L 9.26239,3.11923 L 9.24339,3.27199
 L 9.18639,3.39423 L 9.09814,3.47374 L 8.9854,3.50023 L 8.80991,3.41324 L 8.7514,3.15224 L 8.7514,2.41225
 L 8.40941,2.41225 L 8.40941,3.25023 L 8.43741,3.46924 L 8.52141,3.62823 L 8.6579,3.72423 L 8.8434,3.75624
 L 8.97841,3.73923 L 9.09338,3.68823 L 9.18988,3.59973 L 9.26738,3.47023 L 9.27339,3.47023 L 9.27713,3.58873
 L 9.28839,3.75624 L 9.61438,3.75624 z
M 14.332,4.09999 L 14.332,2.09999 L 12.6,1.09999 L 10.868,2.09999 L 10.868,4.09999 L 12.6,5.09999
 z
M 11.1711,3.92499 L 11.1711,2.27499 L 12.6,1.45 L 14.0289,2.27499 L 14.0289,3.92499 L 12.6,4.74998
 z
M 12.8489,3.98198 L 13.0444,3.87323 L 13.1644,3.69449 L 13.2044,3.44623 L 13.2044,2.46825 L 13.2064,2.30475
 L 13.2124,2.16225 L 12.8874,2.16225 L 12.8814,2.20226 L 12.8754,2.27025 L 12.8716,2.343 L 12.8704,2.39925
 L 12.8644,2.39925 L 12.7091,2.2215 L 12.4654,2.16225 L 12.2466,2.20625 L 12.0864,2.33824 L 11.9889,2.55099
 L 11.9564,2.83725 L 11.9881,3.12224 L 12.0834,3.33324 L 12.2361,3.46298 L 12.4404,3.50624 L 12.7019,3.44548
 L 12.8644,3.26323 L 12.8674,3.26323 L 12.8644,3.38924 L 12.8644,3.45624 L 12.8479,3.60274 L 12.7984,3.70824
 L 12.7139,3.77199 L 12.5904,3.79323 L 12.5024,3.78174 L 12.4324,3.74724 L 12.3829,3.69374 L 12.3544,3.62323
 L 12.0114,3.66324 L 12.0736,3.81448 L 12.1924,3.92624 L 12.3629,3.99524 L 12.5804,4.01823 z
M 12.3814,3.16048 L 12.3134,2.83725 L 12.3821,2.50725 L 12.5884,2.39725 L 12.7069,2.42575 L 12.7944,2.51125
 L 12.8491,2.64775 L 12.8674,2.82925 L 12.8491,3.01599 L 12.7944,3.15424 L 12.7061,3.23973 L 12.5854,3.26823
 z
M 17.932,4.09999 L 17.932,2.09999 L 16.2,1.09999 L 14.4679,2.09999 L 14.4679,4.09999 L 16.2,5.09999
 z
M 14.7711,3.92499 L 14.7711,2.27499 L 16.2,1.45 L 17.6289,2.27499 L 17.6289,3.92499 L 16.2,4.74998
 z
M 16.464,3.72948 L 16.6503,3.64923 L 16.768,3.52199 L 16.8073,3.35423 L 16.7963,3.25323 L 16.7633,3.17223
 L 16.7128,3.10698 L 16.6473,3.05525 L 16.5633,3.01274 L 16.4553,2.97725 L 16.3268,2.94475 L 16.1813,2.91325
 L 16.0863,2.8885 L 16.0233,2.85825 L 15.988,2.8195 L 15.9763,2.76924 L 15.9915,2.7095 L 16.0373,2.67024
 L 16.1135,2.64775 L 16.2203,2.64024 L 16.3275,2.64999 L 16.4013,2.67924 L 16.4478,2.72749 L 16.4733,2.79625
 L 16.7763,2.76524 L 16.714,2.61375 L 16.5973,2.50325 L 16.4313,2.435 L 16.2193,2.41225 L 15.9825,2.43825
 L 15.8063,2.51625 L 15.6975,2.64 L 15.6613,2.80525 L 15.6745,2.90849 L 15.7143,2.99425 L 15.7793,3.06425
 L 15.8683,3.12024 L 16.0165,3.17049 L 16.2593,3.22523 L 16.3678,3.25323 L 16.4393,3.28723 L 16.479,3.32973
 L 16.4923,3.38524 L 16.4758,3.44948 L 16.4263,3.49423 L 16.3415,3.52048 L 16.2173,3.52924 L 16.0845,3.52048
 L 15.9983,3.49423 L 15.9453,3.44574 L 15.9103,3.37224 L 15.6093,3.41524 L 15.6813,3.56723 L 15.8013,3.67323
 L 15.9773,3.73549 L 16.2173,3.75624 z
" stroke="black" fill="lightgray" stroke-width="0.5"/>
</svg>
