<?xml version="1.0" encoding="UTF-8" standalone="no"?>
<svg
   xmlns:dc="http://purl.org/dc/elements/1.1/"
   xmlns:cc="http://creativecommons.org/ns#"
   xmlns:rdf="http://www.w3.org/1999/02/22-rdf-syntax-ns#"
   xmlns:svg="http://www.w3.org/2000/svg"
   xmlns="http://www.w3.org/2000/svg"
   xmlns:sodipodi="http://sodipodi.sourceforge.net/DTD/sodipodi-0.dtd"
   xmlns:inkscape="http://www.inkscape.org/namespaces/inkscape"
   width="300"
   height="700"
   viewBox="0 0 79.374998 185.20834"
   version="1.1"
   id="svg8"
   inkscape:version="1.0.1 (c497b03c, 2020-09-10)"
   sodipodi:docname="spider-tile.svg"
   inkscape:export-filename="/Users/tass/bee.png"
   inkscape:export-xdpi="96"
   inkscape:export-ydpi="96">
  <defs
     id="defs2" />
  <sodipodi:namedview
     id="base"
     pagecolor="#ffffff"
     bordercolor="#666666"
     borderopacity="1.0"
     inkscape:pageopacity="0.0"
     inkscape:pageshadow="2"
     inkscape:zoom="0.82287224"
     inkscape:cx="-118.75501"
     inkscape:cy="539.92438"
     inkscape:document-units="px"
     inkscape:current-layer="layer1"
     showgrid="false"
     showguides="false"
     inkscape:guide-bbox="true"
     inkscape:lockguides="false"
     units="px"
     inkscape:window-width="1860"
     inkscape:window-height="1287"
     inkscape:window-x="0"
     inkscape:window-y="22"
     inkscape:window-maximized="0"
     inkscape:document-rotation="0">
    <sodipodi:guide
       position="105.83333,0"
       orientation="1,0"
       id="guide954"
       inkscape:locked="false"
       inkscape:label=""
       inkscape:color="rgb(0,0,255)" />
    <sodipodi:guide
       position="97.895834,0"
       orientation="1,0"
       id="guide4710"
       inkscape:locked="false"
       inkscape:label=""
       inkscape:color="rgb(0,0,255)" />
    <sodipodi:guide
       position="113.77083,0"
       orientation="1,0"
       id="guide4712"
       inkscape:locked="false"
       inkscape:label=""
       inkscape:color="rgb(0,0,255)" />
  </sodipodi:namedview>
  <metadata
     id="metadata5">
    <rdf:RDF>
      <cc:Work
         rdf:about="">
        <dc:format>image/svg+xml</dc:format>
        <dc:type
           rdf:resource="http://purl.org/dc/dcmitype/StillImage" />
        <dc:title></dc:title>
      </cc:Work>
    </rdf:RDF>
  </metadata>
  <g
     inkscape:label="bug"
     inkscape:groupmode="layer"
     id="layer1"
     transform="translate(0,-32.41665)"
     style="display:inline">
    <g
       transform="matrix(0.90699503,0,0,1.2511875,80.071016,2.2411115)"
       style="stroke-width:0.938721"
       id="g4730" />
    <g
       transform="matrix(0.90699503,0,0,1.2511875,80.071016,2.2411115)"
       id="g952">
      <g
         id="g950" />
    </g>
    <g
       transform="matrix(0.90699503,0,0,1.2511875,80.071016,2.2411115)"
       style="display:inline;stroke-width:0.938721"
       id="g875" />
    <g
       transform="matrix(0.90699503,0,0,1.2511875,80.071016,2.2411115)"
       id="g879"
       style="display:inline">
      <g
         id="g877" />
    </g>
    <g
       transform="matrix(-0.90699503,0,0,1.2511875,-80.071016,2.2411115)"
       style="stroke-width:0.938721"
       id="g1620" />
    <g
       transform="matrix(-0.90699503,0,0,1.2511875,-80.071016,2.2411115)"
       id="g1624">
      <g
         id="g1622" />
    </g>
    <g
       transform="matrix(-0.90699503,0,0,1.2511875,-80.071016,2.2411115)"
       style="display:inline;stroke-width:0.938721"
       id="g1626" />
    <g
       transform="matrix(-0.90699503,0,0,1.2511875,-80.071016,2.2411115)"
       id="g1630"
       style="display:inline">
      <g
         id="g1628" />
    </g>
    <g
       transform="matrix(0.90699503,0,0,1.2511875,80.071016,2.2411115)"
       style="stroke-width:0.938721"
       id="g1642" />
    <g
       transform="matrix(0.90699503,0,0,1.2511875,80.071016,2.2411115)"
       id="g1646">
      <g
         id="g1644" />
    </g>
    <g
       transform="matrix(0.90699503,0,0,1.2511875,80.071016,2.2411115)"
       style="display:inline;stroke-width:0.938721"
       id="g1648" />
    <g
       transform="matrix(0.90699503,0,0,1.2511875,80.071016,2.2411115)"
       id="g1652"
       style="display:inline">
      <g
         id="g1650" />
    </g>
    <g
       transform="matrix(-0.90699503,0,0,1.2511875,-80.071016,2.2411115)"
       style="stroke-width:0.938721"
       id="g1664" />
    <g
       transform="matrix(-0.90699503,0,0,1.2511875,-80.071016,2.2411115)"
       id="g1668">
      <g
         id="g1666" />
    </g>
    <g
       transform="matrix(-0.90699503,0,0,1.2511875,-80.071016,2.2411115)"
       style="display:inline;stroke-width:0.938721"
       id="g1670" />
    <g
       transform="matrix(-0.90699503,0,0,1.2511875,-80.071016,2.2411115)"
       id="g1674"
       style="display:inline">
      <g
         id="g1672" />
    </g>
    <g
       transform="matrix(-0.90699503,0,0,1.2511875,-80.071016,2.2411115)"
       style="stroke-width:0.938721"
       id="g1676" />
    <g
       transform="matrix(-0.90699503,0,0,1.2511875,-80.071016,2.2411115)"
       id="g1680">
      <g
         id="g1678" />
    </g>
    <g
       transform="matrix(-0.90699503,0,0,1.2511875,-80.071016,2.2411115)"
       style="display:inline;stroke-width:0.938721"
       id="g1682" />
    <g
       transform="matrix(-0.90699503,0,0,1.2511875,-80.071016,2.2411115)"
       id="g1686"
       style="display:inline">
      <g
         id="g1684" />
    </g>
    <g
       transform="matrix(0.90699503,0,0,1.2511875,80.071016,2.2411115)"
       style="stroke-width:0.938721"
       id="g1698" />
    <g
       transform="matrix(0.90699503,0,0,1.2511875,80.071016,2.2411115)"
       id="g1702">
      <g
         id="g1700" />
    </g>
    <g
       transform="matrix(0.90699503,0,0,1.2511875,80.071016,2.2411115)"
       style="display:inline;stroke-width:0.938721"
       id="g1704" />
    <g
       transform="matrix(0.90699503,0,0,1.2511875,80.071016,2.2411115)"
       id="g1708"
       style="display:inline">
      <g
         id="g1706" />
    </g>
    <g
       transform="matrix(-0.90699503,0,0,1.2511875,-80.071016,2.2411115)"
       style="stroke-width:0.938721"
       id="g1710" />
    <g
       transform="matrix(-0.90699503,0,0,1.2511875,-80.071016,2.2411115)"
       id="g1714">
      <g
         id="g1712" />
    </g>
    <g
       transform="matrix(-0.90699503,0,0,1.2511875,-80.071016,2.2411115)"
       style="display:inline;stroke-width:0.938721"
       id="g1716" />
    <g
       transform="matrix(-0.90699503,0,0,1.2511875,-80.071016,2.2411115)"
       id="g1720"
       style="display:inline">
      <g
         id="g1718" />
    </g>
    <g
       transform="matrix(0.90699503,0,0,1.2511875,80.071016,2.2411115)"
       style="stroke-width:0.938721"
       id="g1732" />
    <g
       transform="matrix(0.90699503,0,0,1.2511875,80.071016,2.2411115)"
       id="g1736">
      <g
         id="g1734" />
    </g>
    <g
       transform="matrix(0.90699503,0,0,1.2511875,80.071016,2.2411115)"
       style="display:inline;stroke-width:0.938721"
       id="g1738" />
    <g
       transform="matrix(0.90699503,0,0,1.2511875,80.071016,2.2411115)"
       id="g1742"
       style="display:inline">
      <g
         id="g1740" />
    </g>
    <g
       transform="matrix(-0.90699503,0,0,1.2511875,-80.071016,2.2411115)"
       style="stroke-width:0.938721"
       id="g1805" />
    <g
       transform="matrix(-0.90699503,0,0,1.2511875,-80.071016,2.2411115)"
       id="g1809">
      <g
         id="g1807" />
    </g>
    <g
       transform="matrix(-0.90699503,0,0,1.2511875,-80.071016,2.2411115)"
       style="display:inline;stroke-width:0.938721"
       id="g1811" />
    <g
       transform="matrix(-0.90699503,0,0,1.2511875,-80.071016,2.2411115)"
       id="g1815"
       style="display:inline">
      <g
         id="g1813" />
    </g>
    <g
       transform="matrix(0.90699503,0,0,1.2511875,80.071018,2.2411115)"
       style="stroke-width:0.938721"
       id="g1827" />
    <g
       transform="matrix(0.90699503,0,0,1.2511875,80.071018,2.2411115)"
       id="g1831">
      <g
         id="g1829" />
    </g>
    <g
       transform="matrix(0.90699503,0,0,1.2511875,80.071018,2.2411115)"
       style="display:inline;stroke-width:0.938721"
       id="g1833" />
    <g
       transform="matrix(0.90699503,0,0,1.2511875,80.071018,2.2411115)"
       id="g1837"
       style="display:inline">
      <g
         id="g1835" />
    </g>
    <g
       transform="matrix(-0.90699503,0,0,1.2511875,-80.071016,2.2411115)"
       style="stroke-width:0.938721"
       id="g1839" />
    <g
       transform="matrix(-0.90699503,0,0,1.2511875,-80.071016,2.2411115)"
       id="g1843">
      <g
         id="g1841" />
    </g>
    <g
       transform="matrix(-0.90699503,0,0,1.2511875,-80.071016,2.2411115)"
       style="display:inline;stroke-width:0.938721"
       id="g1845" />
    <g
       transform="matrix(-0.90699503,0,0,1.2511875,-80.071016,2.2411115)"
       id="g1849"
       style="display:inline">
      <g
         id="g1847" />
    </g>
    <g
       transform="matrix(0.90699503,0,0,1.2511875,80.071018,2.2411115)"
       style="stroke-width:0.938721"
       id="g1851" />
    <g
       transform="matrix(0.90699503,0,0,1.2511875,80.071018,2.2411115)"
       id="g1855">
      <g
         id="g1853" />
    </g>
    <g
       transform="matrix(0.90699503,0,0,1.2511875,80.071018,2.2411115)"
       style="display:inline;stroke-width:0.938721"
       id="g1857" />
    <g
       transform="matrix(0.90699503,0,0,1.2511875,80.071018,2.2411115)"
       id="g1861"
       style="display:inline">
      <g
         id="g1859" />
    </g>
    <g
       transform="matrix(0.90699503,0,0,1.2511875,80.071018,2.2411115)"
       style="stroke-width:0.938721"
       id="g1863" />
    <g
       transform="matrix(0.90699503,0,0,1.2511875,80.071018,2.2411115)"
       id="g1867">
      <g
         id="g1865" />
    </g>
    <g
       transform="matrix(0.90699503,0,0,1.2511875,80.071018,2.2411115)"
       style="display:inline;stroke-width:0.938721"
       id="g1869" />
    <g
       transform="matrix(0.90699503,0,0,1.2511875,80.071018,2.2411115)"
       id="g1873"
       style="display:inline">
      <g
         id="g1871" />
    </g>
    <g
       transform="matrix(-0.90699503,0,0,1.2511875,-80.071016,2.2411115)"
       style="stroke-width:0.938721"
       id="g1875" />
    <g
       transform="matrix(-0.90699503,0,0,1.2511875,-80.071016,2.2411115)"
       id="g1879">
      <g
         id="g1877" />
    </g>
    <g
       transform="matrix(-0.90699503,0,0,1.2511875,-80.071016,2.2411115)"
       style="display:inline;stroke-width:0.938721"
       id="g1881" />
    <g
       transform="matrix(-0.90699503,0,0,1.2511875,-80.071016,2.2411115)"
       id="g1885"
       style="display:inline">
      <g
         id="g1883" />
    </g>
    <g
       transform="matrix(0.90699503,0,0,1.2511875,80.071018,2.2411115)"
       style="stroke-width:0.938721"
       id="g1887" />
    <g
       transform="matrix(0.90699503,0,0,1.2511875,80.071018,2.2411115)"
       id="g1891">
      <g
         id="g1889" />
    </g>
    <g
       transform="matrix(0.90699503,0,0,1.2511875,80.071018,2.2411115)"
       style="display:inline;stroke-width:0.938721"
       id="g1893" />
    <g
       transform="matrix(0.90699503,0,0,1.2511875,80.071018,2.2411115)"
       id="g1897"
       style="display:inline">
      <g
         id="g1895" />
    </g>
    <g
       transform="matrix(-0.90699503,0,0,1.2511875,-80.071016,2.2411115)"
       style="stroke-width:0.938721"
       id="g1899" />
    <g
       transform="matrix(-0.90699503,0,0,1.2511875,-80.071016,2.2411115)"
       id="g1903">
      <g
         id="g1901" />
    </g>
    <g
       transform="matrix(-0.90699503,0,0,1.2511875,-80.071016,2.2411115)"
       style="display:inline;stroke-width:0.938721"
       id="g1905" />
    <g
       transform="matrix(-0.90699503,0,0,1.2511875,-80.071016,2.2411115)"
       id="g1909"
       style="display:inline">
      <g
         id="g1907" />
    </g>
    <path
       id="path2991"
       style="fill:#0b0000;fill-opacity:1;stroke:none;stroke-width:14.9909;stroke-linecap:round;stroke-linejoin:round;stroke-miterlimit:4;stroke-dasharray:none;stroke-opacity:1"
       d="M 26.458334,154.12498 C 25.477207,165.70642 12.26279,176.37005 5.6622339,181.77118 2.8643683,180.55037 2.2896467,179.57977 3.0024195e-7,180.58332 V 127.66665 C 14.612531,127.66665 27.691824,139.5646 26.458334,154.12498 Z"
       sodipodi:nodetypes="scccs" />
    <path
       id="circle2993"
       style="fill:#0b0000;fill-opacity:1;stroke:none;stroke-width:11.4659;stroke-linecap:round;stroke-linejoin:round;stroke-miterlimit:4;stroke-dasharray:none;stroke-opacity:1"
       d="m 17.197917,111.79165 c 1e-6,13.15128 -7.6997694,23.8125 -17.19791710556129,23.8125 v -47.625 C 9.4981476,87.979149 17.197918,98.640369 17.197917,111.79165 Z"
       sodipodi:nodetypes="sccs" />
    <path
       id="path2995"
       style="fill:#0b0000;fill-opacity:1;stroke:none;stroke-width:19.5904;stroke-linecap:round;stroke-linejoin:round;stroke-miterlimit:4;stroke-dasharray:none;stroke-opacity:1"
       d="m 11.90625,81.364567 c 0,6.57564 -5.3306097,11.90625 -11.906250026848752,11.90625 V 71.672665 C 3.4476758,71.672665 6.5530911,70.923708 8.7273769,73.265622 10.700036,75.390365 11.90625,78.236603 11.90625,81.364567 Z"
       sodipodi:nodetypes="sccss" />
    <path
       style="fill:none;stroke:#000000;stroke-width:7.9375;stroke-linecap:round;stroke-linejoin:round;stroke-miterlimit:4;stroke-dasharray:none;stroke-opacity:1"
       d="m 7.4734236,126.24963 32.1080414,13.28609 4.70549,40.13505 -27.008599,27.71772"
       id="path2997"
       sodipodi:nodetypes="cccc" />
    <path
       style="fill:none;stroke:#000000;stroke-width:7.9375;stroke-linecap:round;stroke-linejoin:round;stroke-miterlimit:4;stroke-dasharray:none;stroke-opacity:1"
       d="m 11.902119,116.00828 28.232933,-1.38397 17.38468,16.48097 7.526733,22.54691"
       id="path2999"
       sodipodi:nodetypes="cccc" />
    <path
       style="fill:none;stroke:#000000;stroke-width:7.9375;stroke-linecap:round;stroke-linejoin:round;stroke-miterlimit:4;stroke-dasharray:none;stroke-opacity:1"
       d="M 11.071738,103.55257 38.47429,96.079146 53.307542,86.197521 61.567359,71.666744"
       id="path3001"
       sodipodi:nodetypes="cccc" />
    <path
       style="fill:none;stroke:#000000;stroke-width:7.9375;stroke-linecap:round;stroke-linejoin:round;stroke-miterlimit:4;stroke-dasharray:none;stroke-opacity:1"
       d="M 7.4734234,93.311212 29.063314,82.239475 40.198664,68.368733 39.858259,52.068985"
       id="path3003"
       sodipodi:nodetypes="cccc" />
    <path
       style="fill:none;stroke:#000000;stroke-width:5.29167;stroke-linecap:round;stroke-linejoin:round;stroke-miterlimit:4;stroke-dasharray:none;stroke-opacity:1"
       d="M 2.9466178,74.76605 7.134748,70.059341 6.263256,65.075837"
       id="path3005"
       sodipodi:nodetypes="ccc" />
    <g
       transform="matrix(-0.90699503,0,0,1.2511875,-80.071016,2.2411115)"
       style="stroke-width:0.938721"
       id="g3026" />
    <g
       transform="matrix(-0.90699503,0,0,1.2511875,-80.071016,2.2411115)"
       id="g3030">
      <g
         id="g3028" />
    </g>
    <g
       transform="matrix(-0.90699503,0,0,1.2511875,-80.071016,2.2411115)"
       style="display:inline;stroke-width:0.938721"
       id="g3032" />
    <g
       transform="matrix(-0.90699503,0,0,1.2511875,-80.071016,2.2411115)"
       id="g3036"
       style="display:inline">
      <g
         id="g3034" />
    </g>
    <g
       transform="matrix(0.90699503,0,0,1.2511875,80.071015,2.2411115)"
       style="stroke-width:0.938721"
       id="g3038" />
    <g
       transform="matrix(0.90699503,0,0,1.2511875,80.071015,2.2411115)"
       id="g3042">
      <g
         id="g3040" />
    </g>
    <g
       transform="matrix(0.90699503,0,0,1.2511875,80.071015,2.2411115)"
       style="display:inline;stroke-width:0.938721"
       id="g3044" />
    <g
       transform="matrix(0.90699503,0,0,1.2511875,80.071015,2.2411115)"
       id="g3048"
       style="display:inline">
      <g
         id="g3046" />
    </g>
    <g
       transform="matrix(-0.90699503,0,0,1.2511875,-80.071016,2.2411115)"
       style="stroke-width:0.938721"
       id="g3050" />
    <g
       transform="matrix(-0.90699503,0,0,1.2511875,-80.071016,2.2411115)"
       id="g3054">
      <g
         id="g3052" />
    </g>
    <g
       transform="matrix(-0.90699503,0,0,1.2511875,-80.071016,2.2411115)"
       style="display:inline;stroke-width:0.938721"
       id="g3056" />
    <g
       transform="matrix(-0.90699503,0,0,1.2511875,-80.071016,2.2411115)"
       id="g3060"
       style="display:inline">
      <g
         id="g3058" />
    </g>
    <g
       transform="matrix(0.90699503,0,0,1.2511875,80.071015,2.2411115)"
       style="stroke-width:0.938721"
       id="g3062" />
    <g
       transform="matrix(0.90699503,0,0,1.2511875,80.071015,2.2411115)"
       id="g3066">
      <g
         id="g3064" />
    </g>
    <g
       transform="matrix(0.90699503,0,0,1.2511875,80.071015,2.2411115)"
       style="display:inline;stroke-width:0.938721"
       id="g3068" />
    <g
       transform="matrix(0.90699503,0,0,1.2511875,80.071015,2.2411115)"
       id="g3072"
       style="display:inline">
      <g
         id="g3070" />
    </g>
    <g
       transform="matrix(0.90699503,0,0,1.2511875,80.071015,2.2411115)"
       style="stroke-width:0.938721"
       id="g3074" />
    <g
       transform="matrix(0.90699503,0,0,1.2511875,80.071015,2.2411115)"
       id="g3078">
      <g
         id="g3076" />
    </g>
    <g
       transform="matrix(0.90699503,0,0,1.2511875,80.071015,2.2411115)"
       style="display:inline;stroke-width:0.938721"
       id="g3080" />
    <g
       transform="matrix(0.90699503,0,0,1.2511875,80.071015,2.2411115)"
       id="g3084"
       style="display:inline">
      <g
         id="g3082" />
    </g>
    <g
       transform="matrix(-0.90699503,0,0,1.2511875,-80.071016,2.2411115)"
       style="stroke-width:0.938721"
       id="g3086" />
    <g
       transform="matrix(-0.90699503,0,0,1.2511875,-80.071016,2.2411115)"
       id="g3090">
      <g
         id="g3088" />
    </g>
    <g
       transform="matrix(-0.90699503,0,0,1.2511875,-80.071016,2.2411115)"
       style="display:inline;stroke-width:0.938721"
       id="g3092" />
    <g
       transform="matrix(-0.90699503,0,0,1.2511875,-80.071016,2.2411115)"
       id="g3096"
       style="display:inline">
      <g
         id="g3094" />
    </g>
    <g
       transform="matrix(0.90699503,0,0,1.2511875,80.071015,2.2411115)"
       style="stroke-width:0.938721"
       id="g3098" />
    <g
       transform="matrix(0.90699503,0,0,1.2511875,80.071015,2.2411115)"
       id="g3102">
      <g
         id="g3100" />
    </g>
    <g
       transform="matrix(0.90699503,0,0,1.2511875,80.071015,2.2411115)"
       style="display:inline;stroke-width:0.938721"
       id="g3104" />
    <g
       transform="matrix(0.90699503,0,0,1.2511875,80.071015,2.2411115)"
       id="g3108"
       style="display:inline">
      <g
         id="g3106" />
    </g>
    <g
       transform="matrix(-0.90699503,0,0,1.2511875,-80.071016,2.2411115)"
       style="stroke-width:0.938721"
       id="g3110" />
    <g
       transform="matrix(-0.90699503,0,0,1.2511875,-80.071016,2.2411115)"
       id="g3114">
      <g
         id="g3112" />
    </g>
    <g
       transform="matrix(-0.90699503,0,0,1.2511875,-80.071016,2.2411115)"
       style="display:inline;stroke-width:0.938721"
       id="g3116" />
    <g
       transform="matrix(-0.90699503,0,0,1.2511875,-80.071016,2.2411115)"
       id="g3120"
       style="display:inline">
      <g
         id="g3118" />
    </g>
    <g
       transform="matrix(0.90699503,0,0,1.2511875,80.071015,2.2411115)"
       style="stroke-width:0.938721"
       id="g3122" />
    <g
       transform="matrix(0.90699503,0,0,1.2511875,80.071015,2.2411115)"
       id="g3126">
      <g
         id="g3124" />
    </g>
    <g
       transform="matrix(0.90699503,0,0,1.2511875,80.071015,2.2411115)"
       style="display:inline;stroke-width:0.938721"
       id="g3128" />
    <g
       transform="matrix(0.90699503,0,0,1.2511875,80.071015,2.2411115)"
       id="g3132"
       style="display:inline">
      <g
         id="g3130" />
    </g>
    <g
       transform="matrix(-0.90699503,0,0,1.2511875,-80.071018,2.2411115)"
       style="stroke-width:0.938721"
       id="g3134" />
    <g
       transform="matrix(-0.90699503,0,0,1.2511875,-80.071018,2.2411115)"
       id="g3138">
      <g
         id="g3136" />
    </g>
    <g
       transform="matrix(-0.90699503,0,0,1.2511875,-80.071018,2.2411115)"
       style="display:inline;stroke-width:0.938721"
       id="g3140" />
    <g
       transform="matrix(-0.90699503,0,0,1.2511875,-80.071018,2.2411115)"
       id="g3144"
       style="display:inline">
      <g
         id="g3142" />
    </g>
    <g
       transform="matrix(0.90699503,0,0,1.2511875,80.071015,2.2411115)"
       style="stroke-width:0.938721"
       id="g3146" />
    <g
       transform="matrix(0.90699503,0,0,1.2511875,80.071015,2.2411115)"
       id="g3150">
      <g
         id="g3148" />
    </g>
    <g
       transform="matrix(0.90699503,0,0,1.2511875,80.071015,2.2411115)"
       style="display:inline;stroke-width:0.938721"
       id="g3152" />
    <g
       transform="matrix(0.90699503,0,0,1.2511875,80.071015,2.2411115)"
       id="g3156"
       style="display:inline">
      <g
         id="g3154" />
    </g>
    <g
       transform="matrix(-0.90699503,0,0,1.2511875,-80.071018,2.2411115)"
       style="stroke-width:0.938721"
       id="g3158" />
    <g
       transform="matrix(-0.90699503,0,0,1.2511875,-80.071018,2.2411115)"
       id="g3162">
      <g
         id="g3160" />
    </g>
    <g
       transform="matrix(-0.90699503,0,0,1.2511875,-80.071018,2.2411115)"
       style="display:inline;stroke-width:0.938721"
       id="g3164" />
    <g
       transform="matrix(-0.90699503,0,0,1.2511875,-80.071018,2.2411115)"
       id="g3168"
       style="display:inline">
      <g
         id="g3166" />
    </g>
    <g
       transform="matrix(-0.90699503,0,0,1.2511875,-80.071018,2.2411115)"
       style="stroke-width:0.938721"
       id="g3170" />
    <g
       transform="matrix(-0.90699503,0,0,1.2511875,-80.071018,2.2411115)"
       id="g3174">
      <g
         id="g3172" />
    </g>
    <g
       transform="matrix(-0.90699503,0,0,1.2511875,-80.071018,2.2411115)"
       style="display:inline;stroke-width:0.938721"
       id="g3176" />
    <g
       transform="matrix(-0.90699503,0,0,1.2511875,-80.071018,2.2411115)"
       id="g3180"
       style="display:inline">
      <g
         id="g3178" />
    </g>
    <g
       transform="matrix(0.90699503,0,0,1.2511875,80.071015,2.2411115)"
       style="stroke-width:0.938721"
       id="g3182" />
    <g
       transform="matrix(0.90699503,0,0,1.2511875,80.071015,2.2411115)"
       id="g3186">
      <g
         id="g3184" />
    </g>
    <g
       transform="matrix(0.90699503,0,0,1.2511875,80.071015,2.2411115)"
       style="display:inline;stroke-width:0.938721"
       id="g3188" />
    <g
       transform="matrix(0.90699503,0,0,1.2511875,80.071015,2.2411115)"
       id="g3192"
       style="display:inline">
      <g
         id="g3190" />
    </g>
    <g
       transform="matrix(-0.90699503,0,0,1.2511875,-80.071018,2.2411115)"
       style="stroke-width:0.938721"
       id="g3194" />
    <g
       transform="matrix(-0.90699503,0,0,1.2511875,-80.071018,2.2411115)"
       id="g3198">
      <g
         id="g3196" />
    </g>
    <g
       transform="matrix(-0.90699503,0,0,1.2511875,-80.071018,2.2411115)"
       style="display:inline;stroke-width:0.938721"
       id="g3200" />
    <g
       transform="matrix(-0.90699503,0,0,1.2511875,-80.071018,2.2411115)"
       id="g3204"
       style="display:inline">
      <g
         id="g3202" />
    </g>
    <g
       transform="matrix(0.90699503,0,0,1.2511875,80.071015,2.2411115)"
       style="stroke-width:0.938721"
       id="g3206" />
    <g
       transform="matrix(0.90699503,0,0,1.2511875,80.071015,2.2411115)"
       id="g3210">
      <g
         id="g3208" />
    </g>
    <g
       transform="matrix(0.90699503,0,0,1.2511875,80.071015,2.2411115)"
       style="display:inline;stroke-width:0.938721"
       id="g3212" />
    <g
       transform="matrix(0.90699503,0,0,1.2511875,80.071015,2.2411115)"
       id="g3216"
       style="display:inline">
      <g
         id="g3214" />
    </g>
    <path
       id="path3218"
       style="fill:#0b0000;fill-opacity:1;stroke:none;stroke-width:14.9909;stroke-linecap:round;stroke-linejoin:round;stroke-miterlimit:4;stroke-dasharray:none;stroke-opacity:1"
       d="m -26.458334,154.12498 c 0.981127,11.58144 14.195544,22.24507 20.7960999,27.6462 2.797866,-1.22081 3.372587,-2.19141 5.6622339944387,-1.18786 V 127.66665 C -14.612531,127.66665 -27.691824,139.5646 -26.458334,154.12498 Z"
       sodipodi:nodetypes="scccs" />
    <path
       id="path3220"
       style="fill:#0b0000;fill-opacity:1;stroke:none;stroke-width:11.4659;stroke-linecap:round;stroke-linejoin:round;stroke-miterlimit:4;stroke-dasharray:none;stroke-opacity:1"
       d="m -17.197917,111.79165 c -1e-6,13.15128 7.6997689,23.8125 17.1979168944387,23.8125 v -47.625 C -9.4981481,87.979149 -17.197918,98.640369 -17.197917,111.79165 Z"
       sodipodi:nodetypes="sccs" />
    <path
       id="path3222"
       style="fill:#0b0000;fill-opacity:1;stroke:none;stroke-width:19.5904;stroke-linecap:round;stroke-linejoin:round;stroke-miterlimit:4;stroke-dasharray:none;stroke-opacity:1"
       d="m -11.90625,81.364567 c 0,6.57564 5.3306099,11.90625 11.9062498944387,11.90625 V 71.672665 C -3.4476761,71.672665 -6.5530911,70.923708 -8.7273771,73.265622 -10.700036,75.390365 -11.90625,78.236603 -11.90625,81.364567 Z"
       sodipodi:nodetypes="sccss" />
    <path
       style="fill:none;stroke:#000000;stroke-width:7.9375;stroke-linecap:round;stroke-linejoin:round;stroke-miterlimit:4;stroke-dasharray:none;stroke-opacity:1"
       d="m -7.4734241,126.24963 -32.1080409,13.28609 -4.70549,40.13505 27.008599,27.71772"
       id="path3224"
       sodipodi:nodetypes="cccc" />
    <path
       style="fill:none;stroke:#000000;stroke-width:7.9375;stroke-linecap:round;stroke-linejoin:round;stroke-miterlimit:4;stroke-dasharray:none;stroke-opacity:1"
       d="m -11.902119,116.00828 -28.232933,-1.38397 -17.38468,16.48097 -7.526733,22.54691"
       id="path3226"
       sodipodi:nodetypes="cccc" />
    <path
       style="fill:none;stroke:#000000;stroke-width:7.9375;stroke-linecap:round;stroke-linejoin:round;stroke-miterlimit:4;stroke-dasharray:none;stroke-opacity:1"
       d="M -11.071738,103.55257 -38.47429,96.079146 -53.307542,86.197521 -61.567359,71.666744"
       id="path3228"
       sodipodi:nodetypes="cccc" />
    <path
       style="fill:none;stroke:#000000;stroke-width:7.9375;stroke-linecap:round;stroke-linejoin:round;stroke-miterlimit:4;stroke-dasharray:none;stroke-opacity:1"
       d="M -7.4734241,93.311212 -29.063314,82.239475 -40.198664,68.368733 -39.858259,52.068985"
       id="path3230"
       sodipodi:nodetypes="cccc" />
    <path
       style="fill:none;stroke:#000000;stroke-width:5.29167;stroke-linecap:round;stroke-linejoin:round;stroke-miterlimit:4;stroke-dasharray:none;stroke-opacity:1"
       d="m -2.9466181,74.76605 -4.18813,-4.706709 0.871492,-4.983504"
       id="path3232"
       sodipodi:nodetypes="ccc" />
  </g>
</svg>
